G04 ================== begin FILE IDENTIFICATION RECORD ==================*
G04 Layout Name:  G:/project_development/GitHub/HFPLink/PCB/hfplink_v1.brd*
G04 Film Name:    DRILL*
G04 File Format:  Gerber RS274X*
G04 File Origin:  Cadence Allegro 16.6-2015-S066*
G04 Origin Date:  Sat Dec 24 13:39:25 2022*
G04 *
G04 Layer:  MANUFACTURING/NCLEGEND-1-2*
G04 Layer:  MANUFACTURING/NCDRILL_LEGEND*
G04 Layer:  MANUFACTURING/NCDRILL_FIGURE*
G04 Layer:  BOARD GEOMETRY/OUTLINE*
G04 Layer:  BOARD GEOMETRY/DIMENSION*
G04 *
G04 Offset:    (0.00 0.00)*
G04 Mirror:    No*
G04 Mode:      Positive*
G04 Rotation:  0*
G04 FullContactRelief:  No*
G04 UndefLineWidth:     6.00*
G04 ================== end FILE IDENTIFICATION RECORD ====================*
%FSLAX55Y55*MOIN*%
%IR0*IPPOS*OFA0.00000B0.00000*MIA0B0*SFA1.00000B1.00000*%
%AMMACRO10*
1,1,.006,0.0,.025*
20,1,.006,0.0,.025,.021655,-.025,0.0*
1,1,.006,.021655,-.025*
20,1,.006,.021655,-.025,-.021655,-.025,0.0*
1,1,.006,-.021655,-.025*
20,1,.006,-.021655,-.025,0.0,.025,0.0*
1,1,.006,0.0,.025*
1,1,.006,.00578,.00181*
20,1,.006,.00578,.00181,.00325,.00325,0.0*
1,1,.006,.00325,.00325*
20,1,.006,.00325,.00325,.00109,.00361,0.0*
1,1,.006,.00109,.00361*
20,1,.006,.00109,.00361,-.0018,.00289,0.0*
1,1,.006,-.0018,.00289*
20,1,.006,-.0018,.00289,-.00396,.00145,0.0*
1,1,.006,-.00396,.00145*
20,1,.006,-.00396,.00145,-.00541,-.00108,0.0*
1,1,.006,-.00541,-.00108*
20,1,.006,-.00541,-.00108,-.00577,-.0036,0.0*
1,1,.006,-.00577,-.0036*
20,1,.006,-.00577,-.0036,-.00541,-.00613,0.0*
1,1,.006,-.00541,-.00613*
20,1,.006,-.00541,-.00613,-.00396,-.00829,0.0*
1,1,.006,-.00396,-.00829*
20,1,.006,-.00396,-.00829,-.0018,-.0101,0.0*
1,1,.006,-.0018,-.0101*
20,1,.006,-.0018,-.0101,.00109,-.01082,0.0*
1,1,.006,.00109,-.01082*
20,1,.006,.00109,-.01082,.00361,-.0101,0.0*
1,1,.006,.00361,-.0101*
20,1,.006,.00361,-.0101,.00578,-.00866,0.0*
1,1,.006,.00578,-.00866*
%
%ADD10MACRO10*%
%AMMACRO11*
1,1,.006,0.0,.025*
20,1,.006,0.0,.025,.021655,-.025,0.0*
1,1,.006,.021655,-.025*
20,1,.006,.021655,-.025,-.021655,-.025,0.0*
1,1,.006,-.021655,-.025*
20,1,.006,-.021655,-.025,0.0,.025,0.0*
1,1,.006,0.0,.025*
1,1,.006,-.00505,-.01623*
20,1,.006,-.00505,-.01623,-.00252,-.01768,0.0*
1,1,.006,-.00252,-.01768*
20,1,.006,-.00252,-.01768,.00037,-.01804,0.0*
1,1,.006,.00037,-.01804*
20,1,.006,.00037,-.01804,.00289,-.01768,0.0*
1,1,.006,.00289,-.01768*
20,1,.006,.00289,-.01768,.00506,-.01587,0.0*
1,1,.006,.00506,-.01587*
20,1,.006,.00506,-.01587,.0065,-.01335,0.0*
1,1,.006,.0065,-.01335*
20,1,.006,.0065,-.01335,.0065,.00361,0.0*
1,1,.006,.0065,.00361*
1,1,.006,.0065,.00073*
20,1,.006,.0065,.00073,.00506,.00217,0.0*
1,1,.006,.00506,.00217*
20,1,.006,.00506,.00217,.00289,.00325,0.0*
1,1,.006,.00289,.00325*
20,1,.006,.00289,.00325,.00037,.00361,0.0*
1,1,.006,.00037,.00361*
20,1,.006,.00037,.00361,-.00252,.00289,0.0*
1,1,.006,-.00252,.00289*
20,1,.006,-.00252,.00289,-.00433,.00145,0.0*
1,1,.006,-.00433,.00145*
20,1,.006,-.00433,.00145,-.00577,-.00108,0.0*
1,1,.006,-.00577,-.00108*
20,1,.006,-.00577,-.00108,-.00649,-.0036,0.0*
1,1,.006,-.00649,-.0036*
20,1,.006,-.00649,-.0036,-.00613,-.00577,0.0*
1,1,.006,-.00613,-.00577*
20,1,.006,-.00613,-.00577,-.00469,-.00829,0.0*
1,1,.006,-.00469,-.00829*
20,1,.006,-.00469,-.00829,-.00252,-.0101,0.0*
1,1,.006,-.00252,-.0101*
20,1,.006,-.00252,-.0101,.00037,-.01082,0.0*
1,1,.006,.00037,-.01082*
20,1,.006,.00037,-.01082,.00253,-.01046,0.0*
1,1,.006,.00253,-.01046*
20,1,.006,.00253,-.01046,.00506,-.00902,0.0*
1,1,.006,.00506,-.00902*
20,1,.006,.00506,-.00902,.0065,-.00757,0.0*
1,1,.006,.0065,-.00757*
%
%ADD11MACRO11*%
%AMMACRO12*
1,1,.006,-.0101,-.03248*
20,1,.006,-.0101,-.03248,-.00505,-.03536,0.0*
1,1,.006,-.00505,-.03536*
20,1,.006,-.00505,-.03536,.00073,-.03609,0.0*
1,1,.006,.00073,-.03609*
20,1,.006,.00073,-.03609,.00578,-.03536,0.0*
1,1,.006,.00578,-.03536*
20,1,.006,.00578,-.03536,.01011,-.03176,0.0*
1,1,.006,.01011,-.03176*
20,1,.006,.01011,-.03176,.013,-.0267,0.0*
1,1,.006,.013,-.0267*
20,1,.006,.013,-.0267,.013,.00722,0.0*
1,1,.006,.013,.00722*
1,1,.006,.013,.00145*
20,1,.006,.013,.00145,.01011,.00434,0.0*
1,1,.006,.01011,.00434*
20,1,.006,.01011,.00434,.00578,.0065,0.0*
1,1,.006,.00578,.0065*
20,1,.006,.00578,.0065,.00073,.00722,0.0*
1,1,.006,.00073,.00722*
20,1,.006,.00073,.00722,-.00505,.00578,0.0*
1,1,.006,-.00505,.00578*
20,1,.006,-.00505,.00578,-.00866,.00289,0.0*
1,1,.006,-.00866,.00289*
20,1,.006,-.00866,.00289,-.01155,-.00216,0.0*
1,1,.006,-.01155,-.00216*
20,1,.006,-.01155,-.00216,-.01299,-.00721,0.0*
1,1,.006,-.01299,-.00721*
20,1,.006,-.01299,-.00721,-.01227,-.01155,0.0*
1,1,.006,-.01227,-.01155*
20,1,.006,-.01227,-.01155,-.00938,-.0166,0.0*
1,1,.006,-.00938,-.0166*
20,1,.006,-.00938,-.0166,-.00505,-.02021,0.0*
1,1,.006,-.00505,-.02021*
20,1,.006,-.00505,-.02021,.00073,-.02165,0.0*
1,1,.006,.00073,-.02165*
20,1,.006,.00073,-.02165,.00506,-.02093,0.0*
1,1,.006,.00506,-.02093*
20,1,.006,.00506,-.02093,.01011,-.01804,0.0*
1,1,.006,.01011,-.01804*
20,1,.006,.01011,-.01804,.013,-.01515,0.0*
1,1,.006,.013,-.01515*
%
%ADD12MACRO12*%
%ADD13C,.006*%
G75*
%LPD*%
G75*
G54D10*
X15370Y8315D03*
X11232Y62898D03*
X10823Y40310D03*
Y91208D03*
X15370Y110792D03*
X11232Y56145D03*
X15823Y78340D03*
X23104Y-59536D03*
X38421Y11768D03*
X33697D03*
X52423Y20883D03*
X75503Y25082D03*
X48048Y7453D03*
X56324D03*
X73836D03*
X82112D03*
X77737Y20883D03*
X81875Y16745D03*
X77737Y12607D03*
X70198Y11991D03*
X70768Y25115D03*
X31283Y7841D03*
X26283D03*
X21283D03*
X29320Y12067D03*
Y17067D03*
Y22067D03*
X62127Y75603D03*
X52432Y35179D03*
X29559Y33451D03*
X43658Y33968D03*
X35443Y50849D03*
X75756Y73785D03*
X73938Y54251D03*
X54404Y56069D03*
X94853Y78162D03*
Y65162D03*
X123430Y80081D03*
X49465Y94599D03*
X79495Y94483D03*
X70633Y98621D03*
X63051Y98737D03*
X58327D03*
X49465Y88693D03*
X41349Y50849D03*
X88947Y78162D03*
X25414Y62898D03*
X79641Y35126D03*
X26340Y26684D03*
X21340D03*
X54076Y71817D03*
X49706Y41889D03*
X25823D03*
X58190Y42249D03*
X20823Y41889D03*
G54D11*
X23104Y-72536D03*
X72954Y15918D03*
X57206D03*
G54D12*
X23104Y-85536D03*
X121164Y74253D03*
Y64253D03*
Y54253D03*
Y44253D03*
G54D13*
G01X104Y-92036D02*
Y-2036D01*
X249104D01*
Y-92036D01*
X104D01*
G01Y-27036D02*
X249104D01*
G01X104Y-40036D02*
X249104D01*
G01X104Y-53036D02*
X249104D01*
G01X104Y-66036D02*
X249104D01*
G01X104Y-79036D02*
X249104D01*
G01X46104Y-40036D02*
Y-92036D01*
G01X144104Y-40036D02*
Y-92036D01*
G01X209604Y-40036D02*
Y-92036D01*
G01X4954Y-49786D02*
Y-43286D01*
X8754D01*
G01X7354Y-46428D02*
X4954D01*
G01X12154Y-43286D02*
X14554D01*
G01X13354D02*
Y-49786D01*
G01X12154D02*
X14554D01*
G01X20454Y-46536D02*
X22454D01*
Y-48486D01*
X21854Y-49136D01*
X21154Y-49569D01*
X20154Y-49786D01*
X19154Y-49569D01*
X18454Y-49136D01*
X17854Y-48486D01*
X17454Y-47728D01*
X17254Y-46861D01*
Y-46103D01*
X17454Y-45453D01*
X17854Y-44694D01*
X18454Y-44044D01*
X19054Y-43611D01*
X19854Y-43286D01*
X20554D01*
X21354Y-43503D01*
X21954Y-43936D01*
G01X24154Y-43286D02*
Y-47944D01*
X24554Y-48920D01*
X25354Y-49569D01*
X26354Y-49786D01*
X27354Y-49569D01*
X28154Y-48920D01*
X28554Y-47944D01*
Y-43286D01*
G01X30854Y-49786D02*
Y-43286D01*
X33354D01*
X34154Y-43611D01*
X34654Y-44044D01*
X34854Y-44911D01*
X34654Y-45778D01*
X34054Y-46319D01*
X33354Y-46644D01*
X30854D01*
G01X33354D02*
X34854Y-49786D01*
G01X41354D02*
X37354D01*
Y-43286D01*
X41354D01*
G01X39754Y-46428D02*
X37354D01*
G01X0Y0D02*
X130000D01*
Y125000D01*
X0D01*
Y0D01*
G01X41154Y-11786D02*
Y-5286D01*
X43154D01*
X43954Y-5611D01*
X44554Y-6044D01*
X45054Y-6694D01*
X45454Y-7453D01*
X45554Y-8536D01*
X45454Y-9619D01*
X45054Y-10378D01*
X44554Y-11028D01*
X43954Y-11461D01*
X43154Y-11786D01*
X41154D01*
G01X47854D02*
Y-5286D01*
X50354D01*
X51154Y-5611D01*
X51654Y-6044D01*
X51854Y-6911D01*
X51654Y-7778D01*
X51054Y-8319D01*
X50354Y-8644D01*
X47854D01*
G01X50354D02*
X51854Y-11786D01*
G01X55154Y-5286D02*
X57554D01*
G01X56354D02*
Y-11786D01*
G01X55154D02*
X57554D01*
G01X60854Y-5286D02*
Y-11786D01*
X64854D01*
G01X67354Y-5286D02*
Y-11786D01*
X71354D01*
G01X84554Y-5828D02*
X83954Y-5503D01*
X83254Y-5286D01*
X82454D01*
X81554Y-5611D01*
X80854Y-6153D01*
X80354Y-6803D01*
X79954Y-7886D01*
X79854Y-8861D01*
X80054Y-9836D01*
X80354Y-10486D01*
X80954Y-11136D01*
X81654Y-11569D01*
X82354Y-11786D01*
X83054D01*
X83754Y-11569D01*
X84354Y-11244D01*
X84854Y-10811D01*
G01X86754Y-11786D02*
Y-5286D01*
G01X90954D02*
Y-11786D01*
G01Y-8536D02*
X86754D01*
G01X92854Y-11786D02*
X95354Y-5286D01*
X97854Y-11786D01*
G01X96954Y-9511D02*
X93754D01*
G01X99854Y-11786D02*
Y-5286D01*
X102354D01*
X103154Y-5611D01*
X103654Y-6044D01*
X103854Y-6911D01*
X103654Y-7778D01*
X103054Y-8319D01*
X102354Y-8644D01*
X99854D01*
G01X102354D02*
X103854Y-11786D01*
G01X108354Y-5286D02*
Y-11786D01*
G01X106054Y-5286D02*
X110654D01*
G01X114854Y-12003D02*
X114654Y-11894D01*
Y-11678D01*
X114854Y-11569D01*
X115054Y-11678D01*
Y-11894D01*
X114854Y-12003D01*
G01Y-9078D02*
X114654Y-8969D01*
Y-8753D01*
X114854Y-8644D01*
X115054Y-8753D01*
Y-8969D01*
X114854Y-9078D01*
G01X127854Y-5286D02*
Y-11786D01*
G01X125554Y-5286D02*
X130154D01*
G01X134354Y-11786D02*
X133554Y-11678D01*
X132854Y-11244D01*
X132254Y-10594D01*
X131854Y-9836D01*
X131654Y-8969D01*
Y-8103D01*
X131854Y-7236D01*
X132254Y-6478D01*
X132854Y-5828D01*
X133554Y-5394D01*
X134354Y-5286D01*
X135154Y-5394D01*
X135854Y-5828D01*
X136454Y-6478D01*
X136854Y-7236D01*
X137054Y-8103D01*
Y-8969D01*
X136854Y-9836D01*
X136454Y-10594D01*
X135854Y-11244D01*
X135154Y-11678D01*
X134354Y-11786D01*
G01X138854D02*
Y-5286D01*
X141254D01*
X142054Y-5611D01*
X142654Y-6369D01*
X142854Y-7236D01*
X142654Y-8103D01*
X142154Y-8753D01*
X141254Y-9078D01*
X138854D01*
G01X153854Y-5286D02*
Y-11786D01*
G01X152454Y-7453D02*
X155254D01*
G01X160354Y-11786D02*
X159754Y-11678D01*
X159154Y-11244D01*
X158754Y-10486D01*
X158554Y-9619D01*
X158754Y-8753D01*
X159154Y-7994D01*
X159754Y-7561D01*
X160354Y-7453D01*
X160954Y-7561D01*
X161554Y-7994D01*
X161954Y-8753D01*
X162054Y-9619D01*
X161954Y-10486D01*
X161554Y-11244D01*
X160954Y-11678D01*
X160354Y-11786D01*
G01X174154Y-8319D02*
X174554Y-7994D01*
X174854Y-7453D01*
X175054Y-6694D01*
X174854Y-6044D01*
X174454Y-5611D01*
X173754Y-5286D01*
X171054D01*
Y-11786D01*
X174354D01*
X175054Y-11353D01*
X175454Y-10703D01*
X175654Y-9944D01*
X175454Y-9186D01*
X174854Y-8536D01*
X174154Y-8319D01*
X171054D01*
G01X179854Y-11786D02*
X179054Y-11678D01*
X178354Y-11244D01*
X177754Y-10594D01*
X177354Y-9836D01*
X177154Y-8969D01*
Y-8103D01*
X177354Y-7236D01*
X177754Y-6478D01*
X178354Y-5828D01*
X179054Y-5394D01*
X179854Y-5286D01*
X180654Y-5394D01*
X181354Y-5828D01*
X181954Y-6478D01*
X182354Y-7236D01*
X182554Y-8103D01*
Y-8969D01*
X182354Y-9836D01*
X181954Y-10594D01*
X181354Y-11244D01*
X180654Y-11678D01*
X179854Y-11786D01*
G01X186354Y-5286D02*
Y-11786D01*
G01X184054Y-5286D02*
X188654D01*
G01X192854D02*
Y-11786D01*
G01X190554Y-5286D02*
X195154D01*
G01X199354Y-11786D02*
X198554Y-11678D01*
X197854Y-11244D01*
X197254Y-10594D01*
X196854Y-9836D01*
X196654Y-8969D01*
Y-8103D01*
X196854Y-7236D01*
X197254Y-6478D01*
X197854Y-5828D01*
X198554Y-5394D01*
X199354Y-5286D01*
X200154Y-5394D01*
X200854Y-5828D01*
X201454Y-6478D01*
X201854Y-7236D01*
X202054Y-8103D01*
Y-8969D01*
X201854Y-9836D01*
X201454Y-10594D01*
X200854Y-11244D01*
X200154Y-11678D01*
X199354Y-11786D01*
G01X203254D02*
Y-5286D01*
X205854Y-10703D01*
X208454Y-5286D01*
Y-11786D01*
G01X57104Y-36786D02*
X59604Y-30286D01*
X62104Y-36786D01*
G01X61204Y-34511D02*
X58004D01*
G01X64104Y-30286D02*
Y-36786D01*
X68104D01*
G01X70604Y-30286D02*
Y-36786D01*
X74604D01*
G01X83404Y-30286D02*
Y-34944D01*
X83804Y-35920D01*
X84604Y-36569D01*
X85604Y-36786D01*
X86604Y-36569D01*
X87404Y-35920D01*
X87804Y-34944D01*
Y-30286D01*
G01X89804Y-36786D02*
Y-30286D01*
X94404Y-36786D01*
Y-30286D01*
G01X97404D02*
X99804D01*
G01X98604D02*
Y-36786D01*
G01X97404D02*
X99804D01*
G01X105104Y-30286D02*
Y-36786D01*
G01X102804Y-30286D02*
X107404D01*
G01X109504Y-35920D02*
X110304Y-36461D01*
X111204Y-36786D01*
X112004D01*
X112804Y-36461D01*
X113404Y-35920D01*
X113704Y-35161D01*
X113504Y-34403D01*
X113004Y-33753D01*
X112104Y-33319D01*
X110904Y-33103D01*
X110204Y-32669D01*
X109904Y-31911D01*
X110104Y-31153D01*
X110604Y-30611D01*
X111304Y-30286D01*
X112004D01*
X112704Y-30503D01*
X113304Y-31044D01*
G01X122104Y-36786D02*
X124604Y-30286D01*
X127104Y-36786D01*
G01X126204Y-34511D02*
X123004D01*
G01X129104Y-36786D02*
Y-30286D01*
X131604D01*
X132404Y-30611D01*
X132904Y-31044D01*
X133104Y-31911D01*
X132904Y-32778D01*
X132304Y-33319D01*
X131604Y-33644D01*
X129104D01*
G01X131604D02*
X133104Y-36786D01*
G01X139604D02*
X135604D01*
Y-30286D01*
X139604D01*
G01X138004Y-33428D02*
X135604D01*
G01X149404Y-30286D02*
X151804D01*
G01X150604D02*
Y-36786D01*
G01X149404D02*
X151804D01*
G01X154804D02*
Y-30286D01*
X159404Y-36786D01*
Y-30286D01*
G01X167504Y-36786D02*
Y-30286D01*
X170104Y-35703D01*
X172704Y-30286D01*
Y-36786D01*
G01X175404Y-30286D02*
X177804D01*
G01X176604D02*
Y-36786D01*
G01X175404D02*
X177804D01*
G01X181104Y-30286D02*
Y-36786D01*
X185104D01*
G01X187504Y-35920D02*
X188304Y-36461D01*
X189204Y-36786D01*
X190004D01*
X190804Y-36461D01*
X191404Y-35920D01*
X191704Y-35161D01*
X191504Y-34403D01*
X191004Y-33753D01*
X190104Y-33319D01*
X188904Y-33103D01*
X188204Y-32669D01*
X187904Y-31911D01*
X188104Y-31153D01*
X188604Y-30611D01*
X189304Y-30286D01*
X190004D01*
X190704Y-30503D01*
X191304Y-31044D01*
G01X83254Y-48920D02*
X84054Y-49461D01*
X84954Y-49786D01*
X85754D01*
X86554Y-49461D01*
X87154Y-48920D01*
X87454Y-48161D01*
X87254Y-47403D01*
X86754Y-46753D01*
X85854Y-46319D01*
X84654Y-46103D01*
X83954Y-45669D01*
X83654Y-44911D01*
X83854Y-44153D01*
X84354Y-43611D01*
X85054Y-43286D01*
X85754D01*
X86454Y-43503D01*
X87054Y-44044D01*
G01X90654Y-43286D02*
X93054D01*
G01X91854D02*
Y-49786D01*
G01X90654D02*
X93054D01*
G01X96454Y-43286D02*
X100254D01*
X96454Y-49786D01*
X100254D01*
G01X106854D02*
X102854D01*
Y-43286D01*
X106854D01*
G01X105254Y-46428D02*
X102854D01*
G01X85354Y-62786D02*
Y-56286D01*
X84154Y-57586D01*
G01Y-62786D02*
X86554D01*
G01X89954Y-57369D02*
X90554Y-56719D01*
X91254Y-56394D01*
X92054Y-56286D01*
X93054Y-56503D01*
X93754Y-57044D01*
X93954Y-57694D01*
X93854Y-58344D01*
X93454Y-58886D01*
X91454Y-59969D01*
X90554Y-60728D01*
X89954Y-61811D01*
X89754Y-62786D01*
X93954D01*
G01X98354Y-63003D02*
X98154Y-62894D01*
Y-62678D01*
X98354Y-62569D01*
X98554Y-62678D01*
Y-62894D01*
X98354Y-63003D01*
G01X104854Y-56286D02*
X104054Y-56503D01*
X103454Y-57044D01*
X103054Y-57694D01*
X102754Y-58561D01*
X102654Y-59536D01*
X102754Y-60511D01*
X103054Y-61378D01*
X103454Y-62028D01*
X104054Y-62569D01*
X104854Y-62786D01*
X105654Y-62569D01*
X106254Y-62028D01*
X106654Y-61378D01*
X106954Y-60511D01*
X107054Y-59536D01*
X106954Y-58561D01*
X106654Y-57694D01*
X106254Y-57044D01*
X105654Y-56503D01*
X104854Y-56286D01*
G01X82104Y-75786D02*
Y-69286D01*
X80904Y-70586D01*
G01Y-75786D02*
X83304D01*
G01X86904Y-75028D02*
X87604Y-75569D01*
X88404Y-75786D01*
X89204Y-75569D01*
X89904Y-74920D01*
X90404Y-73944D01*
X90604Y-72969D01*
Y-71778D01*
X90404Y-70803D01*
X89904Y-69936D01*
X89304Y-69503D01*
X88604Y-69286D01*
X87804Y-69503D01*
X87204Y-69936D01*
X86804Y-70586D01*
X86604Y-71453D01*
X86804Y-72211D01*
X87304Y-72969D01*
X87904Y-73403D01*
X88604Y-73511D01*
X89404Y-73294D01*
X90004Y-72753D01*
X90604Y-71778D01*
G01X95104Y-76003D02*
X94904Y-75894D01*
Y-75678D01*
X95104Y-75569D01*
X95304Y-75678D01*
Y-75894D01*
X95104Y-76003D01*
G01X99704Y-73078D02*
X100404Y-72319D01*
X101004Y-71886D01*
X101804Y-71669D01*
X102504Y-71886D01*
X103004Y-72319D01*
X103404Y-72969D01*
X103504Y-73728D01*
X103404Y-74378D01*
X103004Y-75028D01*
X102404Y-75569D01*
X101704Y-75786D01*
X100904Y-75569D01*
X100204Y-74920D01*
X99804Y-73944D01*
X99704Y-72861D01*
X99904Y-71453D01*
X100204Y-70694D01*
X100704Y-69936D01*
X101404Y-69394D01*
X102104Y-69286D01*
X102804Y-69503D01*
X103304Y-70044D01*
G01X106404Y-75028D02*
X107104Y-75569D01*
X107904Y-75786D01*
X108704Y-75569D01*
X109404Y-74920D01*
X109904Y-73944D01*
X110104Y-72969D01*
Y-71778D01*
X109904Y-70803D01*
X109404Y-69936D01*
X108804Y-69503D01*
X108104Y-69286D01*
X107304Y-69503D01*
X106704Y-69936D01*
X106304Y-70586D01*
X106104Y-71453D01*
X106304Y-72211D01*
X106804Y-72969D01*
X107404Y-73403D01*
X108104Y-73511D01*
X108904Y-73294D01*
X109504Y-72753D01*
X110104Y-71778D01*
G01X79904Y-87486D02*
X80504Y-88244D01*
X81304Y-88678D01*
X82204Y-88786D01*
X83004Y-88678D01*
X83804Y-88136D01*
X84304Y-87486D01*
X84404Y-86836D01*
X84204Y-86078D01*
X83504Y-85536D01*
X82804Y-85319D01*
X81904D01*
G01X82804D02*
X83404Y-84994D01*
X83904Y-84453D01*
X84104Y-83803D01*
X83904Y-83153D01*
X83404Y-82611D01*
X82504Y-82286D01*
X81604Y-82394D01*
X80704Y-82828D01*
G01X86904Y-88028D02*
X87604Y-88569D01*
X88404Y-88786D01*
X89204Y-88569D01*
X89904Y-87920D01*
X90404Y-86944D01*
X90604Y-85969D01*
Y-84778D01*
X90404Y-83803D01*
X89904Y-82936D01*
X89304Y-82503D01*
X88604Y-82286D01*
X87804Y-82503D01*
X87204Y-82936D01*
X86804Y-83586D01*
X86604Y-84453D01*
X86804Y-85211D01*
X87304Y-85969D01*
X87904Y-86403D01*
X88604Y-86511D01*
X89404Y-86294D01*
X90004Y-85753D01*
X90604Y-84778D01*
G01X95104Y-89003D02*
X94904Y-88894D01*
Y-88678D01*
X95104Y-88569D01*
X95304Y-88678D01*
Y-88894D01*
X95104Y-89003D01*
G01X99404Y-87486D02*
X100004Y-88244D01*
X100804Y-88678D01*
X101704Y-88786D01*
X102504Y-88678D01*
X103304Y-88136D01*
X103804Y-87486D01*
X103904Y-86836D01*
X103704Y-86078D01*
X103004Y-85536D01*
X102304Y-85319D01*
X101404D01*
G01X102304D02*
X102904Y-84994D01*
X103404Y-84453D01*
X103604Y-83803D01*
X103404Y-83153D01*
X102904Y-82611D01*
X102004Y-82286D01*
X101104Y-82394D01*
X100204Y-82828D01*
G01X107904Y-88786D02*
X108104Y-87378D01*
X108404Y-86186D01*
X108804Y-85103D01*
X109304Y-83911D01*
X110104Y-82286D01*
X106104D01*
G01X158604Y-49786D02*
Y-43286D01*
X161004D01*
X161804Y-43611D01*
X162404Y-44369D01*
X162604Y-45236D01*
X162404Y-46103D01*
X161904Y-46753D01*
X161004Y-47078D01*
X158604D01*
G01X165104Y-43286D02*
Y-49786D01*
X169104D01*
G01X171104D02*
X173604Y-43286D01*
X176104Y-49786D01*
G01X175204Y-47511D02*
X172004D01*
G01X180104Y-43286D02*
Y-49786D01*
G01X177804Y-43286D02*
X182404D01*
G01X188604Y-49786D02*
X184604D01*
Y-43286D01*
X188604D01*
G01X187004Y-46428D02*
X184604D01*
G01X190904Y-49786D02*
Y-43286D01*
X192904D01*
X193704Y-43611D01*
X194304Y-44044D01*
X194804Y-44694D01*
X195204Y-45453D01*
X195304Y-46536D01*
X195204Y-47619D01*
X194804Y-48378D01*
X194304Y-49028D01*
X193704Y-49461D01*
X192904Y-49786D01*
X190904D01*
G01X222854D02*
X222054Y-49678D01*
X221354Y-49244D01*
X220754Y-48594D01*
X220354Y-47836D01*
X220154Y-46969D01*
Y-46103D01*
X220354Y-45236D01*
X220754Y-44478D01*
X221354Y-43828D01*
X222054Y-43394D01*
X222854Y-43286D01*
X223654Y-43394D01*
X224354Y-43828D01*
X224954Y-44478D01*
X225354Y-45236D01*
X225554Y-46103D01*
Y-46969D01*
X225354Y-47836D01*
X224954Y-48594D01*
X224354Y-49244D01*
X223654Y-49678D01*
X222854Y-49786D01*
G01X223654Y-48053D02*
X224854Y-49786D01*
G01X229354Y-43286D02*
Y-49786D01*
G01X227054Y-43286D02*
X231654D01*
G01X235854Y-49786D02*
Y-46861D01*
X233854Y-43286D01*
G01X237854D02*
X235854Y-46861D01*
G01X158604Y-62786D02*
Y-56286D01*
X161004D01*
X161804Y-56611D01*
X162404Y-57369D01*
X162604Y-58236D01*
X162404Y-59103D01*
X161904Y-59753D01*
X161004Y-60078D01*
X158604D01*
G01X165104Y-56286D02*
Y-62786D01*
X169104D01*
G01X171104D02*
X173604Y-56286D01*
X176104Y-62786D01*
G01X175204Y-60511D02*
X172004D01*
G01X180104Y-56286D02*
Y-62786D01*
G01X177804Y-56286D02*
X182404D01*
G01X188604Y-62786D02*
X184604D01*
Y-56286D01*
X188604D01*
G01X187004Y-59428D02*
X184604D01*
G01X190904Y-62786D02*
Y-56286D01*
X192904D01*
X193704Y-56611D01*
X194304Y-57044D01*
X194804Y-57694D01*
X195204Y-58453D01*
X195304Y-59536D01*
X195204Y-60619D01*
X194804Y-61378D01*
X194304Y-62028D01*
X193704Y-62461D01*
X192904Y-62786D01*
X190904D01*
G01X223904Y-61811D02*
X224504Y-62353D01*
X225204Y-62678D01*
X226104Y-62786D01*
X227004Y-62569D01*
X227704Y-62136D01*
X228204Y-61378D01*
X228304Y-60511D01*
X228104Y-59644D01*
X227604Y-59103D01*
X226904Y-58669D01*
X226204Y-58561D01*
X225504Y-58669D01*
X224604Y-59103D01*
X224904Y-56286D01*
X227604D01*
G01X233804Y-62786D02*
Y-56286D01*
X230104Y-60944D01*
X235104D01*
G01X158604Y-75786D02*
Y-69286D01*
X161004D01*
X161804Y-69611D01*
X162404Y-70369D01*
X162604Y-71236D01*
X162404Y-72103D01*
X161904Y-72753D01*
X161004Y-73078D01*
X158604D01*
G01X165104Y-69286D02*
Y-75786D01*
X169104D01*
G01X171104D02*
X173604Y-69286D01*
X176104Y-75786D01*
G01X175204Y-73511D02*
X172004D01*
G01X180104Y-69286D02*
Y-75786D01*
G01X177804Y-69286D02*
X182404D01*
G01X188604Y-75786D02*
X184604D01*
Y-69286D01*
X188604D01*
G01X187004Y-72428D02*
X184604D01*
G01X190904Y-75786D02*
Y-69286D01*
X192904D01*
X193704Y-69611D01*
X194304Y-70044D01*
X194804Y-70694D01*
X195204Y-71453D01*
X195304Y-72536D01*
X195204Y-73619D01*
X194804Y-74378D01*
X194304Y-75028D01*
X193704Y-75461D01*
X192904Y-75786D01*
X190904D01*
G01X227454Y-70369D02*
X228054Y-69719D01*
X228754Y-69394D01*
X229554Y-69286D01*
X230554Y-69503D01*
X231254Y-70044D01*
X231454Y-70694D01*
X231354Y-71344D01*
X230954Y-71886D01*
X228954Y-72969D01*
X228054Y-73728D01*
X227454Y-74811D01*
X227254Y-75786D01*
X231454D01*
G01X158604Y-88786D02*
Y-82286D01*
X161004D01*
X161804Y-82611D01*
X162404Y-83369D01*
X162604Y-84236D01*
X162404Y-85103D01*
X161904Y-85753D01*
X161004Y-86078D01*
X158604D01*
G01X165104Y-82286D02*
Y-88786D01*
X169104D01*
G01X171104D02*
X173604Y-82286D01*
X176104Y-88786D01*
G01X175204Y-86511D02*
X172004D01*
G01X180104Y-82286D02*
Y-88786D01*
G01X177804Y-82286D02*
X182404D01*
G01X188604Y-88786D02*
X184604D01*
Y-82286D01*
X188604D01*
G01X187004Y-85428D02*
X184604D01*
G01X190904Y-88786D02*
Y-82286D01*
X192904D01*
X193704Y-82611D01*
X194304Y-83044D01*
X194804Y-83694D01*
X195204Y-84453D01*
X195304Y-85536D01*
X195204Y-86619D01*
X194804Y-87378D01*
X194304Y-88028D01*
X193704Y-88461D01*
X192904Y-88786D01*
X190904D01*
G01X230554D02*
Y-82286D01*
X226854Y-86944D01*
X231854D01*
M02*
