G04 ================== begin FILE IDENTIFICATION RECORD ==================*
G04 Layout Name:  G:/project_development/GitHub/HFPLink/PCB/hfplink_v1.brd*
G04 Film Name:    SOLDTOP*
G04 File Format:  Gerber RS274X*
G04 File Origin:  Cadence Allegro 16.6-2015-S066*
G04 Origin Date:  Sat Dec 24 13:39:25 2022*
G04 *
G04 Layer:  VIA CLASS/SOLDERMASK_TOP*
G04 Layer:  PIN/SOLDERMASK_TOP*
G04 Layer:  PACKAGE GEOMETRY/SOLDERMASK_TOP*
G04 Layer:  BOARD GEOMETRY/SOLDERMASK_TOP*
G04 Layer:  BOARD GEOMETRY/OUTLINE*
G04 *
G04 Offset:    (0.00 0.00)*
G04 Mirror:    No*
G04 Mode:      Positive*
G04 Rotation:  0*
G04 FullContactRelief:  No*
G04 UndefLineWidth:     6.00*
G04 ================== end FILE IDENTIFICATION RECORD ====================*
%FSLAX55Y55*MOIN*%
%IR0*IPPOS*OFA0.00000B0.00000*MIA0B0*SFA1.00000B1.00000*%
%ADD15R,.01969X.07677*%
%ADD12C,.02008*%
%ADD11R,.03543X.03543*%
%ADD18C,.06693*%
%ADD21R,.22047X.08268*%
%ADD19R,.06693X.06693*%
%ADD20R,.04331X.03543*%
%ADD17R,.01575X.05118*%
%ADD16R,.05118X.01575*%
%ADD13R,.07087X.05512*%
%ADD14R,.06811X.03937*%
%ADD10R,.02874X.09252*%
%ADD22C,.006*%
G75*
%LPD*%
G75*
G54D10*
X15823Y20262D03*
X10823D03*
X15823Y71160D03*
X10823D03*
Y98956D03*
X15823D03*
X10823Y48058D03*
X15823D03*
X25823Y20262D03*
X20823D03*
X25823Y71160D03*
X20823D03*
Y98956D03*
X25823D03*
X20823Y48058D03*
X25823D03*
G54D20*
X48968Y30228D03*
X39520Y26488D03*
Y33968D03*
G54D11*
X15370Y12453D03*
Y62898D03*
Y106654D03*
Y56145D03*
X38421Y15906D03*
Y21812D03*
X33697Y15906D03*
Y21812D03*
X21276Y12453D03*
X75357Y88577D03*
Y94483D03*
X58327Y88693D03*
Y94599D03*
X70633Y88577D03*
Y94483D03*
X63051Y88693D03*
Y94599D03*
X56570Y35179D03*
Y29273D03*
X33697Y33451D03*
Y27545D03*
X75503Y35126D03*
Y29220D03*
X21276Y62898D03*
X41349Y54987D03*
X35443D03*
X53603Y94599D03*
Y88693D03*
X88947Y74024D03*
X94853D03*
X123430Y84219D03*
Y90125D03*
X61320Y35159D03*
Y29253D03*
X66044Y35159D03*
Y29253D03*
X88947Y69300D03*
X94853D03*
X21276Y106654D03*
X70768Y29253D03*
Y35159D03*
X118706Y84219D03*
Y90125D03*
X21276Y56145D03*
G54D21*
X46379Y107327D03*
X83781D03*
G54D12*
X72954Y15918D03*
X57206D03*
G54D22*
G01X0Y0D02*
X130000D01*
Y125000D01*
X0D01*
Y0D01*
G54D13*
X77974Y7453D03*
X52186D03*
G54D14*
X77737Y16745D03*
X52423D03*
G54D15*
X70198Y18615D03*
X67639D03*
X65080D03*
X62521D03*
X59962D03*
G54D16*
X81812Y75754D03*
Y73785D03*
Y71817D03*
Y69848D03*
Y67880D03*
Y65911D03*
Y63943D03*
Y61974D03*
Y60006D03*
Y58037D03*
Y56069D03*
Y54100D03*
X48348D03*
Y56069D03*
Y58037D03*
Y60006D03*
Y61974D03*
Y63943D03*
Y65911D03*
Y67880D03*
Y69848D03*
Y71817D03*
Y73785D03*
Y75754D03*
G54D17*
X75907Y48195D03*
X73938D03*
X71970D03*
X70001D03*
X68033D03*
X66064D03*
X64096D03*
X62127D03*
X60159D03*
X58190D03*
X56222D03*
X54253D03*
Y81659D03*
X56222D03*
X58190D03*
X60159D03*
X62127D03*
X64096D03*
X66064D03*
X68033D03*
X70001D03*
X71970D03*
X73938D03*
X75907D03*
G54D18*
X121164Y74253D03*
Y64253D03*
Y54253D03*
G54D19*
Y44253D03*
M02*
