G04 ================== begin FILE IDENTIFICATION RECORD ==================*
G04 Layout Name:  G:/project_development/GitHub/HFPLink/PCB/hfplink_v1.brd*
G04 Film Name:    TOP*
G04 File Format:  Gerber RS274X*
G04 File Origin:  Cadence Allegro 16.6-2015-S066*
G04 Origin Date:  Sat Dec 24 13:39:25 2022*
G04 *
G04 Layer:  VIA CLASS/TOP*
G04 Layer:  PIN/TOP*
G04 Layer:  ETCH/TOP*
G04 Layer:  BOARD GEOMETRY/OUTLINE*
G04 *
G04 Offset:    (0.00 0.00)*
G04 Mirror:    No*
G04 Mode:      Positive*
G04 Rotation:  0*
G04 FullContactRelief:  No*
G04 UndefLineWidth:     6.00*
G04 ================== end FILE IDENTIFICATION RECORD ====================*
%FSLAX55Y55*MOIN*%
%IR0*IPPOS*OFA0.00000B0.00000*MIA0B0*SFA1.00000B1.00000*%
%ADD13C,.02008*%
%ADD11R,.0315X.0315*%
%ADD12C,.02756*%
%ADD19C,.06299*%
%ADD22R,.21654X.07874*%
%ADD20R,.06299X.06299*%
%ADD18R,.01181X.04724*%
%ADD17R,.04724X.01181*%
%ADD21R,.03937X.0315*%
%ADD15R,.06417X.03543*%
%ADD16R,.01575X.07283*%
%ADD14R,.06693X.05118*%
%ADD10R,.0248X.08858*%
%ADD23C,.01*%
%ADD24C,.012*%
%ADD25C,.03*%
%ADD26C,.015*%
%ADD27C,.024*%
%ADD28C,.006*%
%ADD29C,.008*%
%ADD30C,.03012*%
%ADD31C,.07302*%
%ADD32R,.07302X.07302*%
G75*
%LPD*%
G75*
G36*
G01X2004Y2004D02*
Y122996D01*
X127996D01*
Y2004D01*
X2004D01*
G37*
%LPC*%
G75*
G36*
G01X17564Y103886D02*
Y94026D01*
X14082D01*
Y103886D01*
X14122D01*
Y104578D01*
X13294D01*
Y108730D01*
X13368D01*
Y110792D01*
G02X17372I2002J0D01*
G01Y108730D01*
X17446D01*
Y106984D01*
X17524Y106906D01*
Y103886D01*
X17564D01*
G37*
G36*
G01X120782Y88124D02*
Y88048D01*
X116630D01*
Y92202D01*
X120782D01*
Y92126D01*
X121354D01*
Y92202D01*
X125506D01*
Y88048D01*
X121354D01*
Y88124D01*
X120782D01*
G37*
G36*
G01X17564Y76090D02*
Y66230D01*
X14082D01*
Y76090D01*
X14822D01*
Y76749D01*
G02X16824I1001J1591D01*
G01Y76090D01*
X17564D01*
G37*
G36*
G01X23352Y60896D02*
Y60822D01*
X19200D01*
Y62568D01*
X19122Y62646D01*
Y66230D01*
X19082D01*
Y76090D01*
X22564D01*
Y72862D01*
X24082D01*
Y76090D01*
X27564D01*
Y66230D01*
X24082D01*
Y69458D01*
X22564D01*
Y66230D01*
X22524D01*
Y64974D01*
X23352D01*
Y64900D01*
X25414D01*
G02Y60896I0J-2002D01*
G01X23352D01*
G37*
G36*
G01X15283Y81232D02*
X11824Y77774D01*
Y76090D01*
X12564D01*
Y66230D01*
X9082D01*
Y76090D01*
X9822D01*
Y78604D01*
X14453Y83236D01*
X25626D01*
X39980Y68882D01*
X41164D01*
G03X41446Y69564I-1J400D01*
G01X19822Y91189D01*
Y94026D01*
X19082D01*
Y103886D01*
X22564D01*
Y94026D01*
X21824D01*
Y92019D01*
X42994Y70850D01*
X45484D01*
Y72784D01*
X42459D01*
X24822Y90421D01*
Y94026D01*
X24082D01*
Y103886D01*
X24822D01*
Y105322D01*
X24491Y105652D01*
X23352D01*
Y104578D01*
X19200D01*
Y108730D01*
X23352D01*
Y107656D01*
X25321D01*
X26824Y106152D01*
Y103886D01*
X27564D01*
Y94026D01*
X26824D01*
Y91251D01*
X43289Y74786D01*
X45484D01*
Y76846D01*
X51212D01*
Y72818D01*
X52485D01*
G02Y70816I1591J-1001D01*
G01X51212D01*
Y56945D01*
X45484D01*
Y66878D01*
X39150D01*
X24796Y81232D01*
X15283D01*
G37*
G36*
G01X43350Y52910D02*
Y50849D01*
G02X39348I-2001J0D01*
G01Y52910D01*
X39272D01*
Y57064D01*
X43426D01*
Y56088D01*
X44380D01*
X45267Y55202D01*
X48348D01*
G02X48481Y55193I-8J-1101D01*
G01X48493Y55192D01*
X51212D01*
Y53008D01*
X48493D01*
X48481Y53007D01*
G02X48348Y52998I-141J1092D01*
G01X44355D01*
X44108Y53245D01*
G03X43426Y52962I-282J-283D01*
G01Y52910D01*
X43350D01*
G37*
G36*
G01X17564Y52988D02*
Y43128D01*
X14082D01*
Y52988D01*
X14122D01*
Y54068D01*
X13294D01*
Y54144D01*
X11232D01*
G02Y58146I0J2001D01*
G01X13294D01*
Y58222D01*
X17446D01*
Y56475D01*
X17524Y56397D01*
Y52988D01*
X17564D01*
G37*
G36*
G01X22564D02*
Y42598D01*
X22578Y42564D01*
G02X19068I-1755J-675D01*
G01X19082Y42598D01*
Y52988D01*
X22564D01*
G37*
G36*
G01X77580Y33124D02*
Y33050D01*
X73426D01*
Y37202D01*
X74402D01*
Y44885D01*
X74806Y45289D01*
Y48195D01*
G02X74814Y48328I1101J1D01*
G01X74815Y48340D01*
Y51058D01*
X76999D01*
Y48340D01*
X77000Y48328D01*
G02X77008Y48195I-1093J-132D01*
G01Y44377D01*
X76604Y43973D01*
Y37202D01*
X77580D01*
Y37128D01*
X79641D01*
G02Y33124I0J-2002D01*
G01X77580D01*
G37*
G36*
G01X72770Y27176D02*
Y25115D01*
G02X68766I-2002J0D01*
G01Y27176D01*
X68692D01*
Y31330D01*
X72844D01*
Y27176D01*
X72770D01*
G37*
G36*
G01X41388Y5362D02*
X19683D01*
X17680Y7364D01*
Y15332D01*
X14082D01*
Y24328D01*
G03X13399Y24610I-400J-1D01*
G01X12564Y23776D01*
Y15332D01*
X9082D01*
Y25192D01*
X11148D01*
X25395Y39440D01*
G03X25237Y40103I-283J283D01*
G02X24068Y42564I586J1786D01*
G01X24082Y42598D01*
Y52988D01*
X24822D01*
Y54399D01*
X24077Y55144D01*
X23352D01*
Y54068D01*
X19200D01*
Y58222D01*
X23352D01*
Y57146D01*
X24907D01*
X26824Y55229D01*
Y52988D01*
X27564D01*
Y42598D01*
X27578Y42564D01*
G02X27609Y42475I-1759J-663D01*
G03X28272Y42317I380J125D01*
G01X29038Y43082D01*
X42055D01*
X52333Y53360D01*
X59772D01*
X61160Y51972D01*
Y51059D01*
X70968D01*
Y51548D01*
X70408Y52108D01*
Y56256D01*
X71995Y57842D01*
X76346D01*
X77932Y56256D01*
Y54427D01*
X78266Y54094D01*
G03X78948Y54376I282J283D01*
G01Y72909D01*
X84676D01*
Y68882D01*
X86870D01*
Y71376D01*
X91024D01*
Y67224D01*
X88287D01*
X87942Y66878D01*
X84676D01*
Y55102D01*
X110596D01*
X117973Y62479D01*
G02X119517Y60995I3191J1774D01*
G01X119387Y61060D01*
X112068Y53741D01*
G03X112210Y53400I142J-141D01*
G01X112580D01*
X114435Y55254D01*
X117650D01*
X117695Y55392D01*
G02Y53114I3469J-1139D01*
G01X117650Y53252D01*
X115265D01*
X113410Y51396D01*
X78130D01*
X75930Y53597D01*
Y55426D01*
X75516Y55840D01*
X72825D01*
X72412Y55426D01*
Y52938D01*
X72972Y52378D01*
Y51059D01*
X73062D01*
Y45331D01*
X70902D01*
Y44378D01*
X70518Y43994D01*
Y42364D01*
X69288Y41134D01*
X66396D01*
X65184Y39921D01*
Y39535D01*
X66946Y37773D01*
Y37236D01*
X68120D01*
Y36060D01*
X68692D01*
Y37236D01*
X72844D01*
Y33082D01*
X68692D01*
Y34258D01*
X68120D01*
Y33082D01*
X63968D01*
Y37236D01*
G03X64251Y37918I0J400D01*
G01X63682Y38487D01*
X63113Y37918D01*
G03X63396Y37236I283J-282D01*
G01Y33082D01*
X59244D01*
Y37236D01*
X60418D01*
Y37773D01*
X62180Y39535D01*
Y41165D01*
X65152Y44136D01*
X67132D01*
Y45331D01*
X59192D01*
Y43840D01*
G02X56374Y41764I-1002J-1591D01*
G03X55705Y41943I-386J-104D01*
G01X52058Y38296D01*
X29845D01*
X24054Y32505D01*
G03X24336Y31822I283J-283D01*
G01X42297D01*
X43599Y30521D01*
G03X44282Y30803I283J283D01*
G01Y31888D01*
X45263Y32870D01*
X57927D01*
X59467Y31330D01*
X63396D01*
Y28451D01*
X63422Y28425D01*
Y22758D01*
X64178D01*
Y27176D01*
X63968D01*
Y31330D01*
X68120D01*
Y27176D01*
X65982D01*
Y22758D01*
X68928D01*
Y14472D01*
X61640D01*
Y13639D01*
X58896Y10896D01*
X47197D01*
X44590Y13502D01*
G03X43908Y13220I-282J-283D01*
G01Y7881D01*
X41388Y5362D01*
G37*
G36*
G01X64467Y71778D02*
X59831D01*
X55220Y76389D01*
Y78795D01*
X53160D01*
Y84523D01*
X59058D01*
Y86405D01*
X58846Y86616D01*
X56250D01*
Y86692D01*
X55680D01*
Y86616D01*
X51526D01*
Y86692D01*
X49465D01*
G02Y90694I0J2001D01*
G01X51526D01*
Y90770D01*
X55680D01*
Y90694D01*
X56250D01*
Y90770D01*
X60404D01*
Y88174D01*
X60633Y87945D01*
G03X60974Y88086I141J141D01*
G01Y90770D01*
X63711D01*
X64662Y91720D01*
Y104737D01*
X63073Y106326D01*
X57708D01*
Y102888D01*
X35050D01*
Y111766D01*
X57708D01*
Y108328D01*
X63903D01*
X66497Y105734D01*
X69091Y108328D01*
X72452D01*
Y111766D01*
X95110D01*
Y102888D01*
X72452D01*
Y106326D01*
X69921D01*
X68460Y104864D01*
Y92167D01*
X69973Y90654D01*
X72710D01*
Y86500D01*
X69973D01*
X69034Y85562D01*
Y84523D01*
X77172D01*
Y85346D01*
X76017Y86500D01*
X73280D01*
Y90654D01*
X77434D01*
Y87917D01*
X79174Y86176D01*
Y80141D01*
G03X79857Y79859I400J1D01*
G01X85219Y85220D01*
X116630D01*
Y86296D01*
X120782D01*
Y82142D01*
X116630D01*
Y83218D01*
X86049D01*
X80360Y77529D01*
G03X80643Y76846I283J-283D01*
G01X81667D01*
X81679Y76847D01*
G02X81812Y76856I141J-1092D01*
G01X86946D01*
Y78162D01*
G02X90948I2001J0D01*
G01Y76100D01*
X91024D01*
Y71948D01*
X86870D01*
Y74543D01*
X86761Y74652D01*
X81812D01*
G02X81679Y74661I8J1101D01*
G01X81667Y74662D01*
X78948D01*
Y75152D01*
G03X78266Y75434I-400J-1D01*
G01X78080Y75248D01*
X67937D01*
X64467Y71778D01*
G37*
G54D30*
X72954Y15918D03*
G54D31*
X121164Y74253D03*
G54D32*
Y44253D03*
%LPD*%
G75*
G36*
G01X47405Y11397D02*
X44783Y14019D01*
Y31680D01*
X45471Y32368D01*
X57719D01*
X58916Y31171D01*
Y25073D01*
X61138Y22851D01*
Y13847D01*
X58688Y11397D01*
X47405D01*
G37*
G36*
G01X19891Y5863D02*
X18182Y7572D01*
Y25835D01*
X23668Y31321D01*
X42089D01*
X43406Y30004D01*
Y8089D01*
X41180Y5863D01*
X19891D01*
G37*
G36*
G01X63094Y78795D02*
Y78583D01*
X64681Y76996D01*
X65887D01*
G02X66169Y76314I-1J-400D01*
G01X63637Y73782D01*
X60661D01*
X57224Y77219D01*
Y78795D01*
X61252D01*
Y81518D01*
X61253Y81530D01*
G03X61260Y81659I-1094J124D01*
G01Y86616D01*
X63711D01*
X65062Y85265D01*
Y84523D01*
X63004D01*
Y78795D01*
X63094D01*
G37*
%LPC*%
G75*
G36*
G01X56133Y17701D02*
G03X56674Y17327I400J0D01*
G02X56810Y14465I532J-1409D01*
G01X56784Y14472D01*
X48713D01*
Y19018D01*
X50422D01*
Y20883D01*
G02X54424I2001J0D01*
G01Y19018D01*
X56133D01*
Y17701D01*
G37*
G36*
G01X40422Y13830D02*
Y11768D01*
G02X36420I-2001J0D01*
G01Y13830D01*
X36344D01*
Y17982D01*
X40498D01*
Y13830D01*
X40422D01*
G37*
G36*
G01X35698D02*
Y11768D01*
G02X31696I-2001J0D01*
G01Y13830D01*
X31620D01*
Y17982D01*
X35774D01*
Y13830D01*
X35698D01*
G37*
%LPD*%
G75*
G54D10*
X15823Y20262D03*
X10823D03*
X15823Y71160D03*
X10823D03*
Y98956D03*
X15823D03*
X10823Y48058D03*
X15823D03*
X25823Y20262D03*
X20823D03*
X25823Y71160D03*
X20823D03*
Y98956D03*
X25823D03*
X20823Y48058D03*
X25823D03*
G54D20*
X121164Y44253D03*
G54D11*
X15370Y12453D03*
Y62898D03*
Y106654D03*
Y56145D03*
X38421Y15906D03*
Y21812D03*
X33697Y15906D03*
Y21812D03*
X21276Y12453D03*
X75357Y88577D03*
Y94483D03*
X58327Y88693D03*
Y94599D03*
X70633Y88577D03*
Y94483D03*
X63051Y88693D03*
Y94599D03*
X56570Y35179D03*
Y29273D03*
X33697Y33451D03*
Y27545D03*
X75503Y35126D03*
Y29220D03*
X21276Y62898D03*
X41349Y54987D03*
X35443D03*
X53603Y94599D03*
Y88693D03*
X88947Y74024D03*
X94853D03*
X123430Y84219D03*
Y90125D03*
X61320Y35159D03*
Y29253D03*
X66044Y35159D03*
Y29253D03*
X88947Y69300D03*
X94853D03*
X21276Y106654D03*
X70768Y29253D03*
Y35159D03*
X118706Y84219D03*
Y90125D03*
X21276Y56145D03*
G54D21*
X48968Y30228D03*
X39520Y26488D03*
Y33968D03*
G54D12*
X15370Y8315D03*
X11232Y62898D03*
X10823Y40310D03*
Y91208D03*
X15370Y110792D03*
X11232Y56145D03*
X15823Y78340D03*
X38421Y11768D03*
X33697D03*
X52423Y20883D03*
X75503Y25082D03*
X48048Y7453D03*
X56324D03*
X73836D03*
X82112D03*
X77737Y20883D03*
X81875Y16745D03*
X77737Y12607D03*
X70198Y11991D03*
X70768Y25115D03*
X31283Y7841D03*
X26283D03*
X21283D03*
X29320Y12067D03*
Y17067D03*
Y22067D03*
X62127Y75603D03*
X52432Y35179D03*
X29559Y33451D03*
X43658Y33968D03*
X35443Y50849D03*
X75756Y73785D03*
X73938Y54251D03*
X54404Y56069D03*
X94853Y78162D03*
Y65162D03*
X123430Y80081D03*
X49465Y94599D03*
X79495Y94483D03*
X70633Y98621D03*
X63051Y98737D03*
X58327D03*
X49465Y88693D03*
X41349Y50849D03*
X88947Y78162D03*
X25414Y62898D03*
X79641Y35126D03*
X26340Y26684D03*
X21340D03*
X54076Y71817D03*
X49706Y41889D03*
X25823D03*
X58190Y42249D03*
X20823Y41889D03*
G54D22*
X46379Y107327D03*
X83781D03*
G54D13*
X72954Y15918D03*
X57206D03*
G54D23*
G01X15823Y20262D02*
Y25691D01*
X29430Y39298D01*
X51643D01*
X56222Y43877D01*
Y48195D01*
G01X60159D02*
Y51557D01*
X59357Y52359D01*
X52748D01*
X42470Y42081D01*
X29453D01*
X10823Y23451D01*
Y20262D01*
G01X48348Y67880D02*
X39565D01*
X25211Y82234D01*
X14868D01*
X10823Y78189D01*
Y71160D01*
G01X15823D02*
Y78340D01*
G01X121164Y70401D02*
Y74253D01*
G01D02*
Y78105D01*
G01X117312Y74253D02*
X121164D01*
G01D02*
X125016D01*
G01X25823Y98956D02*
Y105737D01*
X24906Y106654D01*
X21276D01*
G01X25823Y98956D02*
Y90836D01*
X42874Y73785D01*
X48348D01*
G01Y69848D02*
X42579D01*
X20823Y91604D01*
Y98956D01*
G01X48348Y71817D02*
X54076D01*
G01X83781Y107327D02*
X69506D01*
X67458Y105279D01*
Y91752D01*
X70633Y88577D01*
G01D02*
X68033Y85977D01*
Y81659D01*
G01X46379Y107327D02*
X63488D01*
X65663Y105152D01*
Y91305D01*
X63051Y88693D01*
G01D02*
X66064Y85680D01*
Y81659D01*
G01X64096D02*
Y78998D01*
X65096Y77998D01*
X76850D01*
X78173Y79321D01*
Y85761D01*
X75357Y88577D01*
G01X56222Y81659D02*
Y76804D01*
X60246Y72780D01*
X64052D01*
X67522Y76250D01*
X77665D01*
X85634Y84219D01*
X118706D01*
G01X88947Y69300D02*
X87527Y67880D01*
X81812D01*
G01X121164Y54253D02*
X114850D01*
X112995Y52398D01*
X78545D01*
X76931Y54012D01*
Y55841D01*
X75931Y56841D01*
X72410D01*
X71410Y55841D01*
Y52523D01*
X71970Y51963D01*
Y48195D01*
G01X81812Y54100D02*
X111011D01*
X121164Y64253D01*
G01X25823Y48058D02*
Y41889D01*
G01Y48058D02*
Y54814D01*
X24492Y56145D01*
X21276D01*
G01X54253Y48195D02*
Y46424D01*
X51400Y43571D01*
X51388D01*
X49706Y41889D01*
G01X58190Y48195D02*
Y42249D01*
G01X20823Y48058D02*
Y41889D01*
G54D14*
X77974Y7453D03*
X52186D03*
G54D24*
G01X62127Y81659D02*
Y75603D01*
G01X81812Y73785D02*
X75756D01*
G01X73938Y48195D02*
Y54251D01*
G01X48348Y56069D02*
X54404D01*
G01X60159Y81659D02*
Y86861D01*
X58327Y88693D01*
G01X48348Y54100D02*
X44811D01*
X43924Y54987D01*
X41349D01*
G01X88947Y74024D02*
X87217Y75754D01*
X81812D01*
G01X75503Y35126D02*
Y44429D01*
X75907Y44833D01*
Y48195D01*
G54D15*
X77737Y16745D03*
X52423D03*
G54D25*
G01X15370Y12453D02*
Y8315D01*
G01Y62898D02*
X11232D01*
G01X15370Y106654D02*
Y110792D01*
G01Y56145D02*
X11232D01*
G01X38421Y15906D02*
Y11768D01*
G01X33697Y15906D02*
Y11768D01*
G01X52423Y16745D02*
Y20883D01*
G01X52186Y7453D02*
X48048D01*
G01X52186D02*
X56324D01*
G01X77974D02*
X73836D01*
G01X77974D02*
X82112D01*
G01X77737Y16745D02*
Y20883D01*
G01Y16745D02*
X81875D01*
G01X77737D02*
Y12607D01*
G01X56570Y35179D02*
X52432D01*
G01X33697Y33451D02*
X29559D01*
G01X39520Y33968D02*
X43658D01*
G01X35443Y54987D02*
Y50849D01*
G01X94853Y74024D02*
Y78162D01*
G01Y69300D02*
Y65162D01*
G01X123430Y84219D02*
Y80081D01*
G01X53603Y94599D02*
X49465D01*
G01X75357Y94483D02*
X79495D01*
G01X70633D02*
Y98621D01*
G01X63051Y94599D02*
Y98737D01*
G01X58327Y94599D02*
Y98737D01*
G01X75503Y29220D02*
Y25082D01*
G01X58327Y88693D02*
X53603D01*
G01D02*
X49465D01*
G01X41349Y54987D02*
Y50849D01*
G01X88947Y74024D02*
Y78162D01*
G01X21276Y62898D02*
X25414D01*
G01X75503Y35126D02*
X79641D01*
G01X70768Y29253D02*
Y25115D01*
G01X123430Y90125D02*
X118706D01*
G54D16*
X70198Y18615D03*
X67639D03*
X65080D03*
X62521D03*
X59962D03*
G54D26*
G01X70198D02*
Y11991D01*
G54D17*
X81812Y75754D03*
Y73785D03*
Y71817D03*
Y69848D03*
Y67880D03*
Y65911D03*
Y63943D03*
Y61974D03*
Y60006D03*
Y58037D03*
Y56069D03*
Y54100D03*
X48348D03*
Y56069D03*
Y58037D03*
Y60006D03*
Y61974D03*
Y63943D03*
Y65911D03*
Y67880D03*
Y69848D03*
Y71817D03*
Y73785D03*
Y75754D03*
G54D27*
G01X10823Y48058D02*
Y40310D01*
G01Y98956D02*
Y91208D01*
G01X15370Y106654D02*
X15823Y106201D01*
Y98956D01*
G01Y48058D02*
Y55692D01*
X15370Y56145D01*
G01X20823Y71160D02*
X25823D01*
G01X20823D02*
Y63351D01*
X21276Y62898D01*
G54D18*
X75907Y48195D03*
X73938D03*
X71970D03*
X70001D03*
X68033D03*
X66064D03*
X64096D03*
X62127D03*
X60159D03*
X58190D03*
X56222D03*
X54253D03*
Y81659D03*
X56222D03*
X58190D03*
X60159D03*
X62127D03*
X64096D03*
X66064D03*
X68033D03*
X70001D03*
X71970D03*
X73938D03*
X75907D03*
G54D28*
G01X0Y0D02*
X130000D01*
Y125000D01*
X0D01*
Y0D01*
G54D19*
X121164Y74253D03*
Y64253D03*
Y54253D03*
G54D29*
G01X62521Y18615D02*
Y28052D01*
X61320Y29253D01*
G01X65080Y18615D02*
Y28289D01*
X66044Y29253D01*
G01Y35159D02*
Y37400D01*
X64282Y39162D01*
Y40294D01*
X66023Y42035D01*
X68915D01*
X69617Y42737D01*
Y44367D01*
X70001Y44751D01*
Y48195D01*
G01X70768Y35159D02*
X66044D01*
G01X61320D02*
Y37400D01*
X63082Y39162D01*
Y40792D01*
X65525Y43235D01*
X68417D01*
Y44367D01*
X68033Y44751D01*
Y48195D01*
M02*
