M48
INCH,LZ
T01C.012
T02C.01969
T03C.03937
;LEADER: 12 
;HEADER: 
;CODE  : ASCII 
;FILE  : hfplink_v1-1-2.drl for board #Taaaaar16180.tmp ... layers TOP and BOTTOM
;T01 Holesize 1. = 12.000000 Tolerance = +0.000000/-0.000000 PLATED MILS Quantity = 54
;T02 Holesize 2. = 19.690000 Tolerance = +0.000000/-0.000000 PLATED MILS Quantity = 2
;T03 Holesize 3. = 39.370000 Tolerance = +0.000000/-0.000000 PLATED MILS Quantity = 4
%
G90
T01
X001537Y000831
X001082Y004031
X001123Y005614
X001123Y00629
X001582Y007834
X001082Y009121
X001537Y011079
X002541Y00629
X003544Y005085
X002582Y004189
X002082Y004189
X002956Y003345
X002634Y002668
X002134Y002668
X002932Y002207
X002932Y001707
X002932Y001207
X003842Y001177
X00337Y001177
X003128Y000784
X002628Y000784
X002128Y000784
X004805Y000745
X005632Y000745
X005242Y002088
X004366Y003397
X005243Y003518
X004971Y004189
X005819Y004225
X004135Y005085
X00544Y005607
X005408Y007182
X004946Y008869
X004946Y00946
X005833Y009874
X006305Y009874
X007063Y009862
X00795Y009448
X006213Y00756
X007576Y007378
X007394Y005425
X007964Y003513
X00755Y002508
X007077Y002512
X007774Y002088
X007774Y001261
X00702Y001199
X007384Y000745
X008211Y000745
X008188Y001674
X009485Y006516
X008895Y007816
X009485Y007816
X012343Y008008
T02
X005721Y001592
X007295Y001592
T03
X012116Y004425
X012116Y005425
X012116Y006425
X012116Y007425
M30
