G04 ================== begin FILE IDENTIFICATION RECORD ==================*
G04 Layout Name:  G:/project_development/GitHub/HFPLink/PCB/V1.1/hfplink.brd*
G04 Film Name:    DRILL*
G04 File Format:  Gerber RS274X*
G04 File Origin:  Cadence Allegro 16.6-2015-S066*
G04 Origin Date:  Sun Jan 29 10:22:11 2023*
G04 *
G04 Layer:  MANUFACTURING/NCLEGEND-1-2*
G04 Layer:  MANUFACTURING/NCDRILL_LEGEND*
G04 Layer:  MANUFACTURING/NCDRILL_FIGURE*
G04 Layer:  BOARD GEOMETRY/OUTLINE*
G04 Layer:  BOARD GEOMETRY/DIMENSION*
G04 *
G04 Offset:    (0.00 0.00)*
G04 Mirror:    No*
G04 Mode:      Positive*
G04 Rotation:  0*
G04 FullContactRelief:  No*
G04 UndefLineWidth:     1.00*
G04 ================== end FILE IDENTIFICATION RECORD ====================*
%FSLAX55Y55*MOIN*%
%IR0*IPPOS*OFA0.00000B0.00000*MIA0B0*SFA1.00000B1.00000*%
%AMMACRO14*
1,1,.001,0.0,.02166*
20,1,.001,0.0,.02166,0.0,-.02165,0.0*
1,1,.001,0.0,-.02165*
1,1,.001,-.0101,.00722*
20,1,.001,-.0101,.00722,.01011,.00722,0.0*
1,1,.001,.01011,.00722*
%
%ADD14MACRO14*%
%AMMACRO11*
1,1,.001,0.0,.025*
20,1,.001,0.0,.025,.021655,-.025,0.0*
1,1,.001,.021655,-.025*
20,1,.001,.021655,-.025,-.021655,-.025,0.0*
1,1,.001,-.021655,-.025*
20,1,.001,-.021655,-.025,0.0,.025,0.0*
1,1,.001,0.0,.025*
1,1,.001,.00578,.00181*
20,1,.001,.00578,.00181,.00325,.00325,0.0*
1,1,.001,.00325,.00325*
20,1,.001,.00325,.00325,.00109,.00361,0.0*
1,1,.001,.00109,.00361*
20,1,.001,.00109,.00361,-.0018,.00289,0.0*
1,1,.001,-.0018,.00289*
20,1,.001,-.0018,.00289,-.00396,.00145,0.0*
1,1,.001,-.00396,.00145*
20,1,.001,-.00396,.00145,-.00541,-.00108,0.0*
1,1,.001,-.00541,-.00108*
20,1,.001,-.00541,-.00108,-.00577,-.0036,0.0*
1,1,.001,-.00577,-.0036*
20,1,.001,-.00577,-.0036,-.00541,-.00613,0.0*
1,1,.001,-.00541,-.00613*
20,1,.001,-.00541,-.00613,-.00396,-.00829,0.0*
1,1,.001,-.00396,-.00829*
20,1,.001,-.00396,-.00829,-.0018,-.0101,0.0*
1,1,.001,-.0018,-.0101*
20,1,.001,-.0018,-.0101,.00109,-.01082,0.0*
1,1,.001,.00109,-.01082*
20,1,.001,.00109,-.01082,.00361,-.0101,0.0*
1,1,.001,.00361,-.0101*
20,1,.001,.00361,-.0101,.00578,-.00866,0.0*
1,1,.001,.00578,-.00866*
%
%ADD11MACRO11*%
%AMMACRO15*
1,1,.001,-.01378,-.01378*
20,1,.001,-.01378,-.01378,-.01378,.01378,0.0*
1,1,.001,-.01378,.01378*
20,1,.001,-.01378,.01378,-.013571,.016173,0.0*
1,1,.001,-.013571,.016173*
20,1,.001,-.013571,.016173,-.012949,.018493,0.0*
1,1,.001,-.012949,.018493*
20,1,.001,-.012949,.018493,-.011934,.02067,0.0*
1,1,.001,-.011934,.02067*
20,1,.001,-.011934,.02067,-.010556,.022638,0.0*
1,1,.001,-.010556,.022638*
20,1,.001,-.010556,.022638,-.008858,.024336,0.0*
1,1,.001,-.008858,.024336*
20,1,.001,-.008858,.024336,-.00689,.025714,0.0*
1,1,.001,-.00689,.025714*
20,1,.001,-.00689,.025714,-.004713,.026729,0.0*
1,1,.001,-.004713,.026729*
20,1,.001,-.004713,.026729,-.002393,.027351,0.0*
1,1,.001,-.002393,.027351*
20,1,.001,-.002393,.027351,0.0,.02756,0.0*
1,1,.001,0.0,.02756*
20,1,.001,0.0,.02756,.002393,.027351,0.0*
1,1,.001,.002393,.027351*
20,1,.001,.002393,.027351,.004713,.026729,0.0*
1,1,.001,.004713,.026729*
20,1,.001,.004713,.026729,.00689,.025714,0.0*
1,1,.001,.00689,.025714*
20,1,.001,.00689,.025714,.008858,.024336,0.0*
1,1,.001,.008858,.024336*
20,1,.001,.008858,.024336,.010556,.022638,0.0*
1,1,.001,.010556,.022638*
20,1,.001,.010556,.022638,.011934,.02067,0.0*
1,1,.001,.011934,.02067*
20,1,.001,.011934,.02067,.012949,.018493,0.0*
1,1,.001,.012949,.018493*
20,1,.001,.012949,.018493,.013571,.016173,0.0*
1,1,.001,.013571,.016173*
20,1,.001,.013571,.016173,.01378,.01378,0.0*
1,1,.001,.01378,.01378*
20,1,.001,.01378,.01378,.01378,-.01378,0.0*
1,1,.001,.01378,-.01378*
20,1,.001,.01378,-.01378,.013571,-.016173,0.0*
1,1,.001,.013571,-.016173*
20,1,.001,.013571,-.016173,.012949,-.018493,0.0*
1,1,.001,.012949,-.018493*
20,1,.001,.012949,-.018493,.011934,-.02067,0.0*
1,1,.001,.011934,-.02067*
20,1,.001,.011934,-.02067,.010556,-.022638,0.0*
1,1,.001,.010556,-.022638*
20,1,.001,.010556,-.022638,.008858,-.024336,0.0*
1,1,.001,.008858,-.024336*
20,1,.001,.008858,-.024336,.00689,-.025714,0.0*
1,1,.001,.00689,-.025714*
20,1,.001,.00689,-.025714,.004713,-.026729,0.0*
1,1,.001,.004713,-.026729*
20,1,.001,.004713,-.026729,.002393,-.027351,0.0*
1,1,.001,.002393,-.027351*
20,1,.001,.002393,-.027351,0.0,-.02756,0.0*
1,1,.001,0.0,-.02756*
20,1,.001,0.0,-.02756,-.002393,-.027351,0.0*
1,1,.001,-.002393,-.027351*
20,1,.001,-.002393,-.027351,-.004713,-.026729,0.0*
1,1,.001,-.004713,-.026729*
20,1,.001,-.004713,-.026729,-.00689,-.025714,0.0*
1,1,.001,-.00689,-.025714*
20,1,.001,-.00689,-.025714,-.008858,-.024336,0.0*
1,1,.001,-.008858,-.024336*
20,1,.001,-.008858,-.024336,-.010556,-.022638,0.0*
1,1,.001,-.010556,-.022638*
20,1,.001,-.010556,-.022638,-.011934,-.02067,0.0*
1,1,.001,-.011934,-.02067*
20,1,.001,-.011934,-.02067,-.012949,-.018493,0.0*
1,1,.001,-.012949,-.018493*
20,1,.001,-.012949,-.018493,-.013571,-.016173,0.0*
1,1,.001,-.013571,-.016173*
20,1,.001,-.013571,-.016173,-.01378,-.01378,0.0*
1,1,.001,-.01378,-.01378*
1,1,.001,-.00322,-.01034*
20,1,.001,-.00322,-.01034,-.00161,-.01125,0.0*
1,1,.001,-.00161,-.01125*
20,1,.001,-.00161,-.01125,.00023,-.01148,0.0*
1,1,.001,.00023,-.01148*
20,1,.001,.00023,-.01148,.00184,-.01125,0.0*
1,1,.001,.00184,-.01125*
20,1,.001,.00184,-.01125,.00322,-.01011,0.0*
1,1,.001,.00322,-.01011*
20,1,.001,.00322,-.01011,.00413,-.0085,0.0*
1,1,.001,.00413,-.0085*
20,1,.001,.00413,-.0085,.00413,.0023,0.0*
1,1,.001,.00413,.0023*
1,1,.001,.00413,.00046*
20,1,.001,.00413,.00046,.00322,.00138,0.0*
1,1,.001,.00322,.00138*
20,1,.001,.00322,.00138,.00184,.00207,0.0*
1,1,.001,.00184,.00207*
20,1,.001,.00184,.00207,.00023,.0023,0.0*
1,1,.001,.00023,.0023*
20,1,.001,.00023,.0023,-.00161,.00184,0.0*
1,1,.001,-.00161,.00184*
20,1,.001,-.00161,.00184,-.00276,.00092,0.0*
1,1,.001,-.00276,.00092*
20,1,.001,-.00276,.00092,-.00367,-.00069,0.0*
1,1,.001,-.00367,-.00069*
20,1,.001,-.00367,-.00069,-.00413,-.0023,0.0*
1,1,.001,-.00413,-.0023*
20,1,.001,-.00413,-.0023,-.0039,-.00367,0.0*
1,1,.001,-.0039,-.00367*
20,1,.001,-.0039,-.00367,-.00299,-.00528,0.0*
1,1,.001,-.00299,-.00528*
20,1,.001,-.00299,-.00528,-.00161,-.00643,0.0*
1,1,.001,-.00161,-.00643*
20,1,.001,-.00161,-.00643,.00023,-.00689,0.0*
1,1,.001,.00023,-.00689*
20,1,.001,.00023,-.00689,.00161,-.00666,0.0*
1,1,.001,.00161,-.00666*
20,1,.001,.00161,-.00666,.00322,-.00574,0.0*
1,1,.001,.00322,-.00574*
20,1,.001,.00322,-.00574,.00413,-.00482,0.0*
1,1,.001,.00413,-.00482*
%
%ADD15MACRO15*%
%AMMACRO10*
1,1,.001,-.01378,-.01968*
20,1,.001,-.01378,-.01968,-.01378,.01968,0.0*
1,1,.001,-.01378,.01968*
20,1,.001,-.01378,.01968,-.013571,.022073,0.0*
1,1,.001,-.013571,.022073*
20,1,.001,-.013571,.022073,-.012949,.024393,0.0*
1,1,.001,-.012949,.024393*
20,1,.001,-.012949,.024393,-.011934,.02657,0.0*
1,1,.001,-.011934,.02657*
20,1,.001,-.011934,.02657,-.010556,.028538,0.0*
1,1,.001,-.010556,.028538*
20,1,.001,-.010556,.028538,-.008858,.030236,0.0*
1,1,.001,-.008858,.030236*
20,1,.001,-.008858,.030236,-.00689,.031614,0.0*
1,1,.001,-.00689,.031614*
20,1,.001,-.00689,.031614,-.004713,.032629,0.0*
1,1,.001,-.004713,.032629*
20,1,.001,-.004713,.032629,-.002393,.033251,0.0*
1,1,.001,-.002393,.033251*
20,1,.001,-.002393,.033251,0.0,.03346,0.0*
1,1,.001,0.0,.03346*
20,1,.001,0.0,.03346,.002393,.033251,0.0*
1,1,.001,.002393,.033251*
20,1,.001,.002393,.033251,.004713,.032629,0.0*
1,1,.001,.004713,.032629*
20,1,.001,.004713,.032629,.00689,.031614,0.0*
1,1,.001,.00689,.031614*
20,1,.001,.00689,.031614,.008858,.030236,0.0*
1,1,.001,.008858,.030236*
20,1,.001,.008858,.030236,.010556,.028538,0.0*
1,1,.001,.010556,.028538*
20,1,.001,.010556,.028538,.011934,.02657,0.0*
1,1,.001,.011934,.02657*
20,1,.001,.011934,.02657,.012949,.024393,0.0*
1,1,.001,.012949,.024393*
20,1,.001,.012949,.024393,.013571,.022073,0.0*
1,1,.001,.013571,.022073*
20,1,.001,.013571,.022073,.01378,.01968,0.0*
1,1,.001,.01378,.01968*
20,1,.001,.01378,.01968,.01378,-.01968,0.0*
1,1,.001,.01378,-.01968*
20,1,.001,.01378,-.01968,.013571,-.022073,0.0*
1,1,.001,.013571,-.022073*
20,1,.001,.013571,-.022073,.012949,-.024393,0.0*
1,1,.001,.012949,-.024393*
20,1,.001,.012949,-.024393,.011934,-.02657,0.0*
1,1,.001,.011934,-.02657*
20,1,.001,.011934,-.02657,.010556,-.028538,0.0*
1,1,.001,.010556,-.028538*
20,1,.001,.010556,-.028538,.008858,-.030236,0.0*
1,1,.001,.008858,-.030236*
20,1,.001,.008858,-.030236,.00689,-.031614,0.0*
1,1,.001,.00689,-.031614*
20,1,.001,.00689,-.031614,.004713,-.032629,0.0*
1,1,.001,.004713,-.032629*
20,1,.001,.004713,-.032629,.002393,-.033251,0.0*
1,1,.001,.002393,-.033251*
20,1,.001,.002393,-.033251,0.0,-.03346,0.0*
1,1,.001,0.0,-.03346*
20,1,.001,0.0,-.03346,-.002393,-.033251,0.0*
1,1,.001,-.002393,-.033251*
20,1,.001,-.002393,-.033251,-.004713,-.032629,0.0*
1,1,.001,-.004713,-.032629*
20,1,.001,-.004713,-.032629,-.00689,-.031614,0.0*
1,1,.001,-.00689,-.031614*
20,1,.001,-.00689,-.031614,-.008858,-.030236,0.0*
1,1,.001,-.008858,-.030236*
20,1,.001,-.008858,-.030236,-.010556,-.028538,0.0*
1,1,.001,-.010556,-.028538*
20,1,.001,-.010556,-.028538,-.011934,-.02657,0.0*
1,1,.001,-.011934,-.02657*
20,1,.001,-.011934,-.02657,-.012949,-.024393,0.0*
1,1,.001,-.012949,-.024393*
20,1,.001,-.012949,-.024393,-.013571,-.022073,0.0*
1,1,.001,-.013571,-.022073*
20,1,.001,-.013571,-.022073,-.01378,-.01968,0.0*
1,1,.001,-.01378,-.01968*
1,1,.001,-.00322,-.01034*
20,1,.001,-.00322,-.01034,-.00161,-.01125,0.0*
1,1,.001,-.00161,-.01125*
20,1,.001,-.00161,-.01125,.00023,-.01148,0.0*
1,1,.001,.00023,-.01148*
20,1,.001,.00023,-.01148,.00184,-.01125,0.0*
1,1,.001,.00184,-.01125*
20,1,.001,.00184,-.01125,.00322,-.01011,0.0*
1,1,.001,.00322,-.01011*
20,1,.001,.00322,-.01011,.00413,-.0085,0.0*
1,1,.001,.00413,-.0085*
20,1,.001,.00413,-.0085,.00413,.0023,0.0*
1,1,.001,.00413,.0023*
1,1,.001,.00413,.00046*
20,1,.001,.00413,.00046,.00322,.00138,0.0*
1,1,.001,.00322,.00138*
20,1,.001,.00322,.00138,.00184,.00207,0.0*
1,1,.001,.00184,.00207*
20,1,.001,.00184,.00207,.00023,.0023,0.0*
1,1,.001,.00023,.0023*
20,1,.001,.00023,.0023,-.00161,.00184,0.0*
1,1,.001,-.00161,.00184*
20,1,.001,-.00161,.00184,-.00276,.00092,0.0*
1,1,.001,-.00276,.00092*
20,1,.001,-.00276,.00092,-.00367,-.00069,0.0*
1,1,.001,-.00367,-.00069*
20,1,.001,-.00367,-.00069,-.00413,-.0023,0.0*
1,1,.001,-.00413,-.0023*
20,1,.001,-.00413,-.0023,-.0039,-.00367,0.0*
1,1,.001,-.0039,-.00367*
20,1,.001,-.0039,-.00367,-.00299,-.00528,0.0*
1,1,.001,-.00299,-.00528*
20,1,.001,-.00299,-.00528,-.00161,-.00643,0.0*
1,1,.001,-.00161,-.00643*
20,1,.001,-.00161,-.00643,.00023,-.00689,0.0*
1,1,.001,.00023,-.00689*
20,1,.001,.00023,-.00689,.00161,-.00666,0.0*
1,1,.001,.00161,-.00666*
20,1,.001,.00161,-.00666,.00322,-.00574,0.0*
1,1,.001,.00322,-.00574*
20,1,.001,.00322,-.00574,.00413,-.00482,0.0*
1,1,.001,.00413,-.00482*
%
%ADD10MACRO10*%
%AMMACRO12*
1,1,.001,.013,.02166*
20,1,.001,.013,.02166,.013,-.02165,0.0*
1,1,.001,.013,-.02165*
1,1,.001,.013,-.01515*
20,1,.001,.013,-.01515,.01011,-.01876,0.0*
1,1,.001,.01011,-.01876*
20,1,.001,.01011,-.01876,.00578,-.02093,0.0*
1,1,.001,.00578,-.02093*
20,1,.001,.00578,-.02093,.00073,-.02165,0.0*
1,1,.001,.00073,-.02165*
20,1,.001,.00073,-.02165,-.00505,-.02021,0.0*
1,1,.001,-.00505,-.02021*
20,1,.001,-.00505,-.02021,-.00938,-.0166,0.0*
1,1,.001,-.00938,-.0166*
20,1,.001,-.00938,-.0166,-.01227,-.01227,0.0*
1,1,.001,-.01227,-.01227*
20,1,.001,-.01227,-.01227,-.01299,-.00721,0.0*
1,1,.001,-.01299,-.00721*
20,1,.001,-.01299,-.00721,-.01227,-.00216,0.0*
1,1,.001,-.01227,-.00216*
20,1,.001,-.01227,-.00216,-.00938,.00217,0.0*
1,1,.001,-.00938,.00217*
20,1,.001,-.00938,.00217,-.00505,.00578,0.0*
1,1,.001,-.00505,.00578*
20,1,.001,-.00505,.00578,.00073,.00722,0.0*
1,1,.001,.00073,.00722*
20,1,.001,.00073,.00722,.00578,.0065,0.0*
1,1,.001,.00578,.0065*
20,1,.001,.00578,.0065,.00939,.00506,0.0*
1,1,.001,.00939,.00506*
20,1,.001,.00939,.00506,.013,.00217,0.0*
1,1,.001,.013,.00217*
%
%ADD12MACRO12*%
%AMMACRO13*
1,1,.001,-.0101,-.03248*
20,1,.001,-.0101,-.03248,-.00505,-.03536,0.0*
1,1,.001,-.00505,-.03536*
20,1,.001,-.00505,-.03536,.00073,-.03609,0.0*
1,1,.001,.00073,-.03609*
20,1,.001,.00073,-.03609,.00578,-.03536,0.0*
1,1,.001,.00578,-.03536*
20,1,.001,.00578,-.03536,.01011,-.03176,0.0*
1,1,.001,.01011,-.03176*
20,1,.001,.01011,-.03176,.013,-.0267,0.0*
1,1,.001,.013,-.0267*
20,1,.001,.013,-.0267,.013,.00722,0.0*
1,1,.001,.013,.00722*
1,1,.001,.013,.00145*
20,1,.001,.013,.00145,.01011,.00434,0.0*
1,1,.001,.01011,.00434*
20,1,.001,.01011,.00434,.00578,.0065,0.0*
1,1,.001,.00578,.0065*
20,1,.001,.00578,.0065,.00073,.00722,0.0*
1,1,.001,.00073,.00722*
20,1,.001,.00073,.00722,-.00505,.00578,0.0*
1,1,.001,-.00505,.00578*
20,1,.001,-.00505,.00578,-.00866,.00289,0.0*
1,1,.001,-.00866,.00289*
20,1,.001,-.00866,.00289,-.01155,-.00216,0.0*
1,1,.001,-.01155,-.00216*
20,1,.001,-.01155,-.00216,-.01299,-.00721,0.0*
1,1,.001,-.01299,-.00721*
20,1,.001,-.01299,-.00721,-.01227,-.01155,0.0*
1,1,.001,-.01227,-.01155*
20,1,.001,-.01227,-.01155,-.00938,-.0166,0.0*
1,1,.001,-.00938,-.0166*
20,1,.001,-.00938,-.0166,-.00505,-.02021,0.0*
1,1,.001,-.00505,-.02021*
20,1,.001,-.00505,-.02021,.00073,-.02165,0.0*
1,1,.001,.00073,-.02165*
20,1,.001,.00073,-.02165,.00506,-.02093,0.0*
1,1,.001,.00506,-.02093*
20,1,.001,.00506,-.02093,.01011,-.01804,0.0*
1,1,.001,.01011,-.01804*
20,1,.001,.01011,-.01804,.013,-.01515,0.0*
1,1,.001,.013,-.01515*
%
%ADD13MACRO13*%
%ADD16C,.001*%
%ADD17C,.006*%
G75*
%LPD*%
G75*
G54D10*
X23104Y-124536D03*
X81998Y27008D03*
X47982D03*
G54D11*
X23104Y-59536D03*
X28935Y34829D03*
X28066Y12005D03*
X24128D03*
X20190D03*
X16252D03*
X13098Y32048D03*
X26675Y69447D03*
Y78709D03*
Y97233D03*
Y87971D03*
X22833Y44574D03*
Y40636D03*
Y36698D03*
X23291Y49396D03*
X14285Y36680D03*
Y40618D03*
Y44574D03*
X12131Y69689D03*
Y97233D03*
Y87971D03*
Y81180D03*
X14285Y48494D03*
X29150Y64217D03*
X29616Y99792D03*
X24403Y60481D03*
X4374Y68265D03*
X9190Y94674D03*
Y85412D03*
X28301Y116011D03*
X23301D03*
X79191Y35532D03*
X47982Y32823D03*
X81998D03*
X86238Y10551D03*
X77758D03*
X52222D03*
X43742D03*
X103172Y22773D03*
X98172D03*
Y27773D03*
X103172D03*
Y32773D03*
X98172D03*
X32004Y12005D03*
X96380Y45033D03*
X83351Y36772D03*
X48674Y57038D03*
X52566Y73757D03*
X38796Y70486D03*
X73916Y70123D03*
X66400Y105841D03*
X78772Y107724D03*
X93243Y96334D03*
X93212Y92383D03*
X93215Y84506D03*
X54093Y111928D03*
X50155D03*
X38370Y40022D03*
X50188Y38477D03*
X62105Y94090D03*
X82022Y62857D03*
X77011Y55021D03*
X67425Y55037D03*
X76694Y90179D03*
X78980Y40468D03*
X35457Y109047D03*
X43225Y56974D03*
X54784Y59920D03*
X38898Y82101D03*
X96732Y74912D03*
Y67034D03*
X78772Y62657D03*
X42218Y70258D03*
X42056Y94219D03*
X56893Y105818D03*
X50155Y102936D03*
X38370Y45022D03*
X52903Y52524D03*
X69718Y40468D03*
X72762Y92581D03*
X56200Y70123D03*
X53627Y45022D03*
X32859Y72006D03*
X33528Y77861D03*
Y102699D03*
X31365Y108376D03*
X37354Y94412D03*
X50481Y98240D03*
X84445Y43921D03*
X73304Y40461D03*
X35438Y147960D03*
X62231Y122087D03*
X78772Y115602D03*
X46217Y122911D03*
X40981Y115518D03*
X36130Y114540D03*
X108172Y22773D03*
Y27773D03*
Y32773D03*
G54D12*
X23104Y-72536D03*
X76407Y24921D03*
X53573D03*
G54D13*
X23104Y-85536D03*
X7633Y32299D03*
Y22299D03*
Y72299D03*
Y62299D03*
Y52299D03*
Y42299D03*
X124551Y32933D03*
Y22933D03*
G54D14*
X23104Y-98536D03*
X116019Y94695D03*
Y76191D03*
Y57687D03*
G54D15*
X23104Y-111536D03*
X81998Y10551D03*
X47982D03*
G54D16*
G01X104Y-131036D02*
Y-2036D01*
X249104D01*
Y-131036D01*
X104D01*
G01Y-53036D02*
X249104D01*
G01X104Y-66036D02*
X249104D01*
G01X104Y-79036D02*
X249104D01*
G01X104Y-92036D02*
X249104D01*
G01X104Y-105036D02*
X249104D01*
G01X104Y-118036D02*
X249104D01*
G01X104Y-27036D02*
X249104D01*
G01X104Y-40036D02*
X249104D01*
G01X46104D02*
Y-131036D01*
G01X144104Y-40036D02*
Y-131036D01*
G01X209604Y-40036D02*
Y-131036D01*
G54D17*
G01X4954Y-49786D02*
Y-43286D01*
X8754D01*
G01X7354Y-46428D02*
X4954D01*
G01X12154Y-43286D02*
X14554D01*
G01X13354D02*
Y-49786D01*
G01X12154D02*
X14554D01*
G01X20454Y-46536D02*
X22454D01*
Y-48486D01*
X21854Y-49136D01*
X21154Y-49569D01*
X20154Y-49786D01*
X19154Y-49569D01*
X18454Y-49136D01*
X17854Y-48486D01*
X17454Y-47728D01*
X17254Y-46861D01*
Y-46103D01*
X17454Y-45453D01*
X17854Y-44694D01*
X18454Y-44044D01*
X19054Y-43611D01*
X19854Y-43286D01*
X20554D01*
X21354Y-43503D01*
X21954Y-43936D01*
G01X24154Y-43286D02*
Y-47944D01*
X24554Y-48920D01*
X25354Y-49569D01*
X26354Y-49786D01*
X27354Y-49569D01*
X28154Y-48920D01*
X28554Y-47944D01*
Y-43286D01*
G01X30854Y-49786D02*
Y-43286D01*
X33354D01*
X34154Y-43611D01*
X34654Y-44044D01*
X34854Y-44911D01*
X34654Y-45778D01*
X34054Y-46319D01*
X33354Y-46644D01*
X30854D01*
G01X33354D02*
X34854Y-49786D01*
G01X41354D02*
X37354D01*
Y-43286D01*
X41354D01*
G01X39754Y-46428D02*
X37354D01*
G01X4000Y0D02*
X126000D01*
G03X130000Y4000I0J4000D01*
G01Y156000D01*
G03X126000Y160000I-4000J0D01*
G01X4000D01*
G03X0Y156000I0J-4000D01*
G01Y4000D01*
G03X4000Y0I4000J0D01*
G01X60704Y-125078D02*
X61404Y-124319D01*
X62004Y-123886D01*
X62804Y-123669D01*
X63504Y-123886D01*
X64004Y-124319D01*
X64404Y-124969D01*
X64504Y-125728D01*
X64404Y-126378D01*
X64004Y-127028D01*
X63404Y-127569D01*
X62704Y-127786D01*
X61904Y-127569D01*
X61204Y-126920D01*
X60804Y-125944D01*
X60704Y-124861D01*
X60904Y-123453D01*
X61204Y-122694D01*
X61704Y-121936D01*
X62404Y-121394D01*
X63104Y-121286D01*
X63804Y-121503D01*
X64304Y-122044D01*
G01X67204Y-125078D02*
X67904Y-124319D01*
X68504Y-123886D01*
X69304Y-123669D01*
X70004Y-123886D01*
X70504Y-124319D01*
X70904Y-124969D01*
X71004Y-125728D01*
X70904Y-126378D01*
X70504Y-127028D01*
X69904Y-127569D01*
X69204Y-127786D01*
X68404Y-127569D01*
X67704Y-126920D01*
X67304Y-125944D01*
X67204Y-124861D01*
X67404Y-123453D01*
X67704Y-122694D01*
X68204Y-121936D01*
X68904Y-121394D01*
X69604Y-121286D01*
X70304Y-121503D01*
X70804Y-122044D01*
G01X75604Y-128003D02*
X75404Y-127894D01*
Y-127678D01*
X75604Y-127569D01*
X75804Y-127678D01*
Y-127894D01*
X75604Y-128003D01*
G01X80404Y-127028D02*
X81104Y-127569D01*
X81904Y-127786D01*
X82704Y-127569D01*
X83404Y-126920D01*
X83904Y-125944D01*
X84104Y-124969D01*
Y-123778D01*
X83904Y-122803D01*
X83404Y-121936D01*
X82804Y-121503D01*
X82104Y-121286D01*
X81304Y-121503D01*
X80704Y-121936D01*
X80304Y-122586D01*
X80104Y-123453D01*
X80304Y-124211D01*
X80804Y-124969D01*
X81404Y-125403D01*
X82104Y-125511D01*
X82904Y-125294D01*
X83504Y-124753D01*
X84104Y-123778D01*
G01X86404Y-126486D02*
X87004Y-127244D01*
X87804Y-127678D01*
X88704Y-127786D01*
X89504Y-127678D01*
X90304Y-127136D01*
X90804Y-126486D01*
X90904Y-125836D01*
X90704Y-125078D01*
X90004Y-124536D01*
X89304Y-124319D01*
X88404D01*
G01X89304D02*
X89904Y-123994D01*
X90404Y-123453D01*
X90604Y-122803D01*
X90404Y-122153D01*
X89904Y-121611D01*
X89004Y-121286D01*
X88104Y-121394D01*
X87204Y-121828D01*
G01X93604Y-123453D02*
X96604Y-127786D01*
G01Y-123453D02*
X93604Y-127786D01*
G01X99704Y-122369D02*
X100304Y-121719D01*
X101004Y-121394D01*
X101804Y-121286D01*
X102804Y-121503D01*
X103504Y-122044D01*
X103704Y-122694D01*
X103604Y-123344D01*
X103204Y-123886D01*
X101204Y-124969D01*
X100304Y-125728D01*
X99704Y-126811D01*
X99504Y-127786D01*
X103704D01*
G01X107904D02*
X108104Y-126378D01*
X108404Y-125186D01*
X108804Y-124103D01*
X109304Y-122911D01*
X110104Y-121286D01*
X106104D01*
G01X114604Y-128003D02*
X114404Y-127894D01*
Y-127678D01*
X114604Y-127569D01*
X114804Y-127678D01*
Y-127894D01*
X114604Y-128003D01*
G01X118904Y-126811D02*
X119504Y-127353D01*
X120204Y-127678D01*
X121104Y-127786D01*
X122004Y-127569D01*
X122704Y-127136D01*
X123204Y-126378D01*
X123304Y-125511D01*
X123104Y-124644D01*
X122604Y-124103D01*
X121904Y-123669D01*
X121204Y-123561D01*
X120504Y-123669D01*
X119604Y-124103D01*
X119904Y-121286D01*
X122604D01*
G01X125704Y-125078D02*
X126404Y-124319D01*
X127004Y-123886D01*
X127804Y-123669D01*
X128504Y-123886D01*
X129004Y-124319D01*
X129404Y-124969D01*
X129504Y-125728D01*
X129404Y-126378D01*
X129004Y-127028D01*
X128404Y-127569D01*
X127704Y-127786D01*
X126904Y-127569D01*
X126204Y-126920D01*
X125804Y-125944D01*
X125704Y-124861D01*
X125904Y-123453D01*
X126204Y-122694D01*
X126704Y-121936D01*
X127404Y-121394D01*
X128104Y-121286D01*
X128804Y-121503D01*
X129304Y-122044D01*
G01X83254Y-48920D02*
X84054Y-49461D01*
X84954Y-49786D01*
X85754D01*
X86554Y-49461D01*
X87154Y-48920D01*
X87454Y-48161D01*
X87254Y-47403D01*
X86754Y-46753D01*
X85854Y-46319D01*
X84654Y-46103D01*
X83954Y-45669D01*
X83654Y-44911D01*
X83854Y-44153D01*
X84354Y-43611D01*
X85054Y-43286D01*
X85754D01*
X86454Y-43503D01*
X87054Y-44044D01*
G01X90654Y-43286D02*
X93054D01*
G01X91854D02*
Y-49786D01*
G01X90654D02*
X93054D01*
G01X96454Y-43286D02*
X100254D01*
X96454Y-49786D01*
X100254D01*
G01X106854D02*
X102854D01*
Y-43286D01*
X106854D01*
G01X105254Y-46428D02*
X102854D01*
G01X85354Y-62786D02*
Y-56286D01*
X84154Y-57586D01*
G01Y-62786D02*
X86554D01*
G01X89954Y-57369D02*
X90554Y-56719D01*
X91254Y-56394D01*
X92054Y-56286D01*
X93054Y-56503D01*
X93754Y-57044D01*
X93954Y-57694D01*
X93854Y-58344D01*
X93454Y-58886D01*
X91454Y-59969D01*
X90554Y-60728D01*
X89954Y-61811D01*
X89754Y-62786D01*
X93954D01*
G01X98354Y-63003D02*
X98154Y-62894D01*
Y-62678D01*
X98354Y-62569D01*
X98554Y-62678D01*
Y-62894D01*
X98354Y-63003D01*
G01X104854Y-56286D02*
X104054Y-56503D01*
X103454Y-57044D01*
X103054Y-57694D01*
X102754Y-58561D01*
X102654Y-59536D01*
X102754Y-60511D01*
X103054Y-61378D01*
X103454Y-62028D01*
X104054Y-62569D01*
X104854Y-62786D01*
X105654Y-62569D01*
X106254Y-62028D01*
X106654Y-61378D01*
X106954Y-60511D01*
X107054Y-59536D01*
X106954Y-58561D01*
X106654Y-57694D01*
X106254Y-57044D01*
X105654Y-56503D01*
X104854Y-56286D01*
G01X80204Y-70369D02*
X80804Y-69719D01*
X81504Y-69394D01*
X82304Y-69286D01*
X83304Y-69503D01*
X84004Y-70044D01*
X84204Y-70694D01*
X84104Y-71344D01*
X83704Y-71886D01*
X81704Y-72969D01*
X80804Y-73728D01*
X80204Y-74811D01*
X80004Y-75786D01*
X84204D01*
G01X88404D02*
X88604Y-74378D01*
X88904Y-73186D01*
X89304Y-72103D01*
X89804Y-70911D01*
X90604Y-69286D01*
X86604D01*
G01X95104Y-76003D02*
X94904Y-75894D01*
Y-75678D01*
X95104Y-75569D01*
X95304Y-75678D01*
Y-75894D01*
X95104Y-76003D01*
G01X99404Y-74811D02*
X100004Y-75353D01*
X100704Y-75678D01*
X101604Y-75786D01*
X102504Y-75569D01*
X103204Y-75136D01*
X103704Y-74378D01*
X103804Y-73511D01*
X103604Y-72644D01*
X103104Y-72103D01*
X102404Y-71669D01*
X101704Y-71561D01*
X101004Y-71669D01*
X100104Y-72103D01*
X100404Y-69286D01*
X103104D01*
G01X106204Y-73078D02*
X106904Y-72319D01*
X107504Y-71886D01*
X108304Y-71669D01*
X109004Y-71886D01*
X109504Y-72319D01*
X109904Y-72969D01*
X110004Y-73728D01*
X109904Y-74378D01*
X109504Y-75028D01*
X108904Y-75569D01*
X108204Y-75786D01*
X107404Y-75569D01*
X106704Y-74920D01*
X106304Y-73944D01*
X106204Y-72861D01*
X106404Y-71453D01*
X106704Y-70694D01*
X107204Y-69936D01*
X107904Y-69394D01*
X108604Y-69286D01*
X109304Y-69503D01*
X109804Y-70044D01*
G01X79904Y-87486D02*
X80504Y-88244D01*
X81304Y-88678D01*
X82204Y-88786D01*
X83004Y-88678D01*
X83804Y-88136D01*
X84304Y-87486D01*
X84404Y-86836D01*
X84204Y-86078D01*
X83504Y-85536D01*
X82804Y-85319D01*
X81904D01*
G01X82804D02*
X83404Y-84994D01*
X83904Y-84453D01*
X84104Y-83803D01*
X83904Y-83153D01*
X83404Y-82611D01*
X82504Y-82286D01*
X81604Y-82394D01*
X80704Y-82828D01*
G01X86904Y-88028D02*
X87604Y-88569D01*
X88404Y-88786D01*
X89204Y-88569D01*
X89904Y-87920D01*
X90404Y-86944D01*
X90604Y-85969D01*
Y-84778D01*
X90404Y-83803D01*
X89904Y-82936D01*
X89304Y-82503D01*
X88604Y-82286D01*
X87804Y-82503D01*
X87204Y-82936D01*
X86804Y-83586D01*
X86604Y-84453D01*
X86804Y-85211D01*
X87304Y-85969D01*
X87904Y-86403D01*
X88604Y-86511D01*
X89404Y-86294D01*
X90004Y-85753D01*
X90604Y-84778D01*
G01X95104Y-89003D02*
X94904Y-88894D01*
Y-88678D01*
X95104Y-88569D01*
X95304Y-88678D01*
Y-88894D01*
X95104Y-89003D01*
G01X99404Y-87486D02*
X100004Y-88244D01*
X100804Y-88678D01*
X101704Y-88786D01*
X102504Y-88678D01*
X103304Y-88136D01*
X103804Y-87486D01*
X103904Y-86836D01*
X103704Y-86078D01*
X103004Y-85536D01*
X102304Y-85319D01*
X101404D01*
G01X102304D02*
X102904Y-84994D01*
X103404Y-84453D01*
X103604Y-83803D01*
X103404Y-83153D01*
X102904Y-82611D01*
X102004Y-82286D01*
X101104Y-82394D01*
X100204Y-82828D01*
G01X107904Y-88786D02*
X108104Y-87378D01*
X108404Y-86186D01*
X108804Y-85103D01*
X109304Y-83911D01*
X110104Y-82286D01*
X106104D01*
G01X81904Y-101786D02*
X82104Y-100378D01*
X82404Y-99186D01*
X82804Y-98103D01*
X83304Y-96911D01*
X84104Y-95286D01*
X80104D01*
G01X88604D02*
X87804Y-95503D01*
X87204Y-96044D01*
X86804Y-96694D01*
X86504Y-97561D01*
X86404Y-98536D01*
X86504Y-99511D01*
X86804Y-100378D01*
X87204Y-101028D01*
X87804Y-101569D01*
X88604Y-101786D01*
X89404Y-101569D01*
X90004Y-101028D01*
X90404Y-100378D01*
X90704Y-99511D01*
X90804Y-98536D01*
X90704Y-97561D01*
X90404Y-96694D01*
X90004Y-96044D01*
X89404Y-95503D01*
X88604Y-95286D01*
G01X95104Y-102003D02*
X94904Y-101894D01*
Y-101678D01*
X95104Y-101569D01*
X95304Y-101678D01*
Y-101894D01*
X95104Y-102003D01*
G01X101604Y-101786D02*
X102304Y-101678D01*
X103104Y-101353D01*
X103604Y-100811D01*
X103804Y-100053D01*
X103604Y-99294D01*
X103004Y-98644D01*
X102104Y-98319D01*
X101104D01*
X100504Y-98103D01*
X100004Y-97561D01*
X99804Y-96803D01*
X100104Y-96044D01*
X100804Y-95503D01*
X101604Y-95286D01*
X102404Y-95503D01*
X103104Y-96044D01*
X103404Y-96803D01*
X103204Y-97561D01*
X102704Y-98103D01*
X102104Y-98319D01*
X101104D01*
X100204Y-98644D01*
X99604Y-99294D01*
X99404Y-100053D01*
X99604Y-100811D01*
X100104Y-101353D01*
X100904Y-101678D01*
X101604Y-101786D01*
G01X107904D02*
X108104Y-100378D01*
X108404Y-99186D01*
X108804Y-98103D01*
X109304Y-96911D01*
X110104Y-95286D01*
X106104D01*
G01X60404Y-113811D02*
X61004Y-114353D01*
X61704Y-114678D01*
X62604Y-114786D01*
X63504Y-114569D01*
X64204Y-114136D01*
X64704Y-113378D01*
X64804Y-112511D01*
X64604Y-111644D01*
X64104Y-111103D01*
X63404Y-110669D01*
X62704Y-110561D01*
X62004Y-110669D01*
X61104Y-111103D01*
X61404Y-108286D01*
X64104D01*
G01X66904Y-113811D02*
X67504Y-114353D01*
X68204Y-114678D01*
X69104Y-114786D01*
X70004Y-114569D01*
X70704Y-114136D01*
X71204Y-113378D01*
X71304Y-112511D01*
X71104Y-111644D01*
X70604Y-111103D01*
X69904Y-110669D01*
X69204Y-110561D01*
X68504Y-110669D01*
X67604Y-111103D01*
X67904Y-108286D01*
X70604D01*
G01X75604Y-115003D02*
X75404Y-114894D01*
Y-114678D01*
X75604Y-114569D01*
X75804Y-114678D01*
Y-114894D01*
X75604Y-115003D01*
G01X82104Y-114786D02*
Y-108286D01*
X80904Y-109586D01*
G01Y-114786D02*
X83304D01*
G01X86704Y-109369D02*
X87304Y-108719D01*
X88004Y-108394D01*
X88804Y-108286D01*
X89804Y-108503D01*
X90504Y-109044D01*
X90704Y-109694D01*
X90604Y-110344D01*
X90204Y-110886D01*
X88204Y-111969D01*
X87304Y-112728D01*
X86704Y-113811D01*
X86504Y-114786D01*
X90704D01*
G01X93604Y-110453D02*
X96604Y-114786D01*
G01Y-110453D02*
X93604Y-114786D01*
G01X99704Y-109369D02*
X100304Y-108719D01*
X101004Y-108394D01*
X101804Y-108286D01*
X102804Y-108503D01*
X103504Y-109044D01*
X103704Y-109694D01*
X103604Y-110344D01*
X103204Y-110886D01*
X101204Y-111969D01*
X100304Y-112728D01*
X99704Y-113811D01*
X99504Y-114786D01*
X103704D01*
G01X107904D02*
X108104Y-113378D01*
X108404Y-112186D01*
X108804Y-111103D01*
X109304Y-109911D01*
X110104Y-108286D01*
X106104D01*
G01X114604Y-115003D02*
X114404Y-114894D01*
Y-114678D01*
X114604Y-114569D01*
X114804Y-114678D01*
Y-114894D01*
X114604Y-115003D01*
G01X118904Y-113811D02*
X119504Y-114353D01*
X120204Y-114678D01*
X121104Y-114786D01*
X122004Y-114569D01*
X122704Y-114136D01*
X123204Y-113378D01*
X123304Y-112511D01*
X123104Y-111644D01*
X122604Y-111103D01*
X121904Y-110669D01*
X121204Y-110561D01*
X120504Y-110669D01*
X119604Y-111103D01*
X119904Y-108286D01*
X122604D01*
G01X125704Y-112078D02*
X126404Y-111319D01*
X127004Y-110886D01*
X127804Y-110669D01*
X128504Y-110886D01*
X129004Y-111319D01*
X129404Y-111969D01*
X129504Y-112728D01*
X129404Y-113378D01*
X129004Y-114028D01*
X128404Y-114569D01*
X127704Y-114786D01*
X126904Y-114569D01*
X126204Y-113920D01*
X125804Y-112944D01*
X125704Y-111861D01*
X125904Y-110453D01*
X126204Y-109694D01*
X126704Y-108936D01*
X127404Y-108394D01*
X128104Y-108286D01*
X128804Y-108503D01*
X129304Y-109044D01*
G01X41154Y-11786D02*
Y-5286D01*
X43154D01*
X43954Y-5611D01*
X44554Y-6044D01*
X45054Y-6694D01*
X45454Y-7453D01*
X45554Y-8536D01*
X45454Y-9619D01*
X45054Y-10378D01*
X44554Y-11028D01*
X43954Y-11461D01*
X43154Y-11786D01*
X41154D01*
G01X47854D02*
Y-5286D01*
X50354D01*
X51154Y-5611D01*
X51654Y-6044D01*
X51854Y-6911D01*
X51654Y-7778D01*
X51054Y-8319D01*
X50354Y-8644D01*
X47854D01*
G01X50354D02*
X51854Y-11786D01*
G01X55154Y-5286D02*
X57554D01*
G01X56354D02*
Y-11786D01*
G01X55154D02*
X57554D01*
G01X60854Y-5286D02*
Y-11786D01*
X64854D01*
G01X67354Y-5286D02*
Y-11786D01*
X71354D01*
G01X84554Y-5828D02*
X83954Y-5503D01*
X83254Y-5286D01*
X82454D01*
X81554Y-5611D01*
X80854Y-6153D01*
X80354Y-6803D01*
X79954Y-7886D01*
X79854Y-8861D01*
X80054Y-9836D01*
X80354Y-10486D01*
X80954Y-11136D01*
X81654Y-11569D01*
X82354Y-11786D01*
X83054D01*
X83754Y-11569D01*
X84354Y-11244D01*
X84854Y-10811D01*
G01X86754Y-11786D02*
Y-5286D01*
G01X90954D02*
Y-11786D01*
G01Y-8536D02*
X86754D01*
G01X92854Y-11786D02*
X95354Y-5286D01*
X97854Y-11786D01*
G01X96954Y-9511D02*
X93754D01*
G01X99854Y-11786D02*
Y-5286D01*
X102354D01*
X103154Y-5611D01*
X103654Y-6044D01*
X103854Y-6911D01*
X103654Y-7778D01*
X103054Y-8319D01*
X102354Y-8644D01*
X99854D01*
G01X102354D02*
X103854Y-11786D01*
G01X108354Y-5286D02*
Y-11786D01*
G01X106054Y-5286D02*
X110654D01*
G01X114854Y-12003D02*
X114654Y-11894D01*
Y-11678D01*
X114854Y-11569D01*
X115054Y-11678D01*
Y-11894D01*
X114854Y-12003D01*
G01Y-9078D02*
X114654Y-8969D01*
Y-8753D01*
X114854Y-8644D01*
X115054Y-8753D01*
Y-8969D01*
X114854Y-9078D01*
G01X127854Y-5286D02*
Y-11786D01*
G01X125554Y-5286D02*
X130154D01*
G01X134354Y-11786D02*
X133554Y-11678D01*
X132854Y-11244D01*
X132254Y-10594D01*
X131854Y-9836D01*
X131654Y-8969D01*
Y-8103D01*
X131854Y-7236D01*
X132254Y-6478D01*
X132854Y-5828D01*
X133554Y-5394D01*
X134354Y-5286D01*
X135154Y-5394D01*
X135854Y-5828D01*
X136454Y-6478D01*
X136854Y-7236D01*
X137054Y-8103D01*
Y-8969D01*
X136854Y-9836D01*
X136454Y-10594D01*
X135854Y-11244D01*
X135154Y-11678D01*
X134354Y-11786D01*
G01X138854D02*
Y-5286D01*
X141254D01*
X142054Y-5611D01*
X142654Y-6369D01*
X142854Y-7236D01*
X142654Y-8103D01*
X142154Y-8753D01*
X141254Y-9078D01*
X138854D01*
G01X153854Y-5286D02*
Y-11786D01*
G01X152454Y-7453D02*
X155254D01*
G01X160354Y-11786D02*
X159754Y-11678D01*
X159154Y-11244D01*
X158754Y-10486D01*
X158554Y-9619D01*
X158754Y-8753D01*
X159154Y-7994D01*
X159754Y-7561D01*
X160354Y-7453D01*
X160954Y-7561D01*
X161554Y-7994D01*
X161954Y-8753D01*
X162054Y-9619D01*
X161954Y-10486D01*
X161554Y-11244D01*
X160954Y-11678D01*
X160354Y-11786D01*
G01X174154Y-8319D02*
X174554Y-7994D01*
X174854Y-7453D01*
X175054Y-6694D01*
X174854Y-6044D01*
X174454Y-5611D01*
X173754Y-5286D01*
X171054D01*
Y-11786D01*
X174354D01*
X175054Y-11353D01*
X175454Y-10703D01*
X175654Y-9944D01*
X175454Y-9186D01*
X174854Y-8536D01*
X174154Y-8319D01*
X171054D01*
G01X179854Y-11786D02*
X179054Y-11678D01*
X178354Y-11244D01*
X177754Y-10594D01*
X177354Y-9836D01*
X177154Y-8969D01*
Y-8103D01*
X177354Y-7236D01*
X177754Y-6478D01*
X178354Y-5828D01*
X179054Y-5394D01*
X179854Y-5286D01*
X180654Y-5394D01*
X181354Y-5828D01*
X181954Y-6478D01*
X182354Y-7236D01*
X182554Y-8103D01*
Y-8969D01*
X182354Y-9836D01*
X181954Y-10594D01*
X181354Y-11244D01*
X180654Y-11678D01*
X179854Y-11786D01*
G01X186354Y-5286D02*
Y-11786D01*
G01X184054Y-5286D02*
X188654D01*
G01X192854D02*
Y-11786D01*
G01X190554Y-5286D02*
X195154D01*
G01X199354Y-11786D02*
X198554Y-11678D01*
X197854Y-11244D01*
X197254Y-10594D01*
X196854Y-9836D01*
X196654Y-8969D01*
Y-8103D01*
X196854Y-7236D01*
X197254Y-6478D01*
X197854Y-5828D01*
X198554Y-5394D01*
X199354Y-5286D01*
X200154Y-5394D01*
X200854Y-5828D01*
X201454Y-6478D01*
X201854Y-7236D01*
X202054Y-8103D01*
Y-8969D01*
X201854Y-9836D01*
X201454Y-10594D01*
X200854Y-11244D01*
X200154Y-11678D01*
X199354Y-11786D01*
G01X203254D02*
Y-5286D01*
X205854Y-10703D01*
X208454Y-5286D01*
Y-11786D01*
G01X57104Y-36786D02*
X59604Y-30286D01*
X62104Y-36786D01*
G01X61204Y-34511D02*
X58004D01*
G01X64104Y-30286D02*
Y-36786D01*
X68104D01*
G01X70604Y-30286D02*
Y-36786D01*
X74604D01*
G01X83404Y-30286D02*
Y-34944D01*
X83804Y-35920D01*
X84604Y-36569D01*
X85604Y-36786D01*
X86604Y-36569D01*
X87404Y-35920D01*
X87804Y-34944D01*
Y-30286D01*
G01X89804Y-36786D02*
Y-30286D01*
X94404Y-36786D01*
Y-30286D01*
G01X97404D02*
X99804D01*
G01X98604D02*
Y-36786D01*
G01X97404D02*
X99804D01*
G01X105104Y-30286D02*
Y-36786D01*
G01X102804Y-30286D02*
X107404D01*
G01X109504Y-35920D02*
X110304Y-36461D01*
X111204Y-36786D01*
X112004D01*
X112804Y-36461D01*
X113404Y-35920D01*
X113704Y-35161D01*
X113504Y-34403D01*
X113004Y-33753D01*
X112104Y-33319D01*
X110904Y-33103D01*
X110204Y-32669D01*
X109904Y-31911D01*
X110104Y-31153D01*
X110604Y-30611D01*
X111304Y-30286D01*
X112004D01*
X112704Y-30503D01*
X113304Y-31044D01*
G01X122104Y-36786D02*
X124604Y-30286D01*
X127104Y-36786D01*
G01X126204Y-34511D02*
X123004D01*
G01X129104Y-36786D02*
Y-30286D01*
X131604D01*
X132404Y-30611D01*
X132904Y-31044D01*
X133104Y-31911D01*
X132904Y-32778D01*
X132304Y-33319D01*
X131604Y-33644D01*
X129104D01*
G01X131604D02*
X133104Y-36786D01*
G01X139604D02*
X135604D01*
Y-30286D01*
X139604D01*
G01X138004Y-33428D02*
X135604D01*
G01X149404Y-30286D02*
X151804D01*
G01X150604D02*
Y-36786D01*
G01X149404D02*
X151804D01*
G01X154804D02*
Y-30286D01*
X159404Y-36786D01*
Y-30286D01*
G01X167504Y-36786D02*
Y-30286D01*
X170104Y-35703D01*
X172704Y-30286D01*
Y-36786D01*
G01X175404Y-30286D02*
X177804D01*
G01X176604D02*
Y-36786D01*
G01X175404D02*
X177804D01*
G01X181104Y-30286D02*
Y-36786D01*
X185104D01*
G01X187504Y-35920D02*
X188304Y-36461D01*
X189204Y-36786D01*
X190004D01*
X190804Y-36461D01*
X191404Y-35920D01*
X191704Y-35161D01*
X191504Y-34403D01*
X191004Y-33753D01*
X190104Y-33319D01*
X188904Y-33103D01*
X188204Y-32669D01*
X187904Y-31911D01*
X188104Y-31153D01*
X188604Y-30611D01*
X189304Y-30286D01*
X190004D01*
X190704Y-30503D01*
X191304Y-31044D01*
G01X158604Y-127786D02*
Y-121286D01*
X161004D01*
X161804Y-121611D01*
X162404Y-122369D01*
X162604Y-123236D01*
X162404Y-124103D01*
X161904Y-124753D01*
X161004Y-125078D01*
X158604D01*
G01X165104Y-121286D02*
Y-127786D01*
X169104D01*
G01X171104D02*
X173604Y-121286D01*
X176104Y-127786D01*
G01X175204Y-125511D02*
X172004D01*
G01X180104Y-121286D02*
Y-127786D01*
G01X177804Y-121286D02*
X182404D01*
G01X188604Y-127786D02*
X184604D01*
Y-121286D01*
X188604D01*
G01X187004Y-124428D02*
X184604D01*
G01X190904Y-127786D02*
Y-121286D01*
X192904D01*
X193704Y-121611D01*
X194304Y-122044D01*
X194804Y-122694D01*
X195204Y-123453D01*
X195304Y-124536D01*
X195204Y-125619D01*
X194804Y-126378D01*
X194304Y-127028D01*
X193704Y-127461D01*
X192904Y-127786D01*
X190904D01*
G01X158604Y-49786D02*
Y-43286D01*
X161004D01*
X161804Y-43611D01*
X162404Y-44369D01*
X162604Y-45236D01*
X162404Y-46103D01*
X161904Y-46753D01*
X161004Y-47078D01*
X158604D01*
G01X165104Y-43286D02*
Y-49786D01*
X169104D01*
G01X171104D02*
X173604Y-43286D01*
X176104Y-49786D01*
G01X175204Y-47511D02*
X172004D01*
G01X180104Y-43286D02*
Y-49786D01*
G01X177804Y-43286D02*
X182404D01*
G01X188604Y-49786D02*
X184604D01*
Y-43286D01*
X188604D01*
G01X187004Y-46428D02*
X184604D01*
G01X190904Y-49786D02*
Y-43286D01*
X192904D01*
X193704Y-43611D01*
X194304Y-44044D01*
X194804Y-44694D01*
X195204Y-45453D01*
X195304Y-46536D01*
X195204Y-47619D01*
X194804Y-48378D01*
X194304Y-49028D01*
X193704Y-49461D01*
X192904Y-49786D01*
X190904D01*
G01X158604Y-62786D02*
Y-56286D01*
X161004D01*
X161804Y-56611D01*
X162404Y-57369D01*
X162604Y-58236D01*
X162404Y-59103D01*
X161904Y-59753D01*
X161004Y-60078D01*
X158604D01*
G01X165104Y-56286D02*
Y-62786D01*
X169104D01*
G01X171104D02*
X173604Y-56286D01*
X176104Y-62786D01*
G01X175204Y-60511D02*
X172004D01*
G01X180104Y-56286D02*
Y-62786D01*
G01X177804Y-56286D02*
X182404D01*
G01X188604Y-62786D02*
X184604D01*
Y-56286D01*
X188604D01*
G01X187004Y-59428D02*
X184604D01*
G01X190904Y-62786D02*
Y-56286D01*
X192904D01*
X193704Y-56611D01*
X194304Y-57044D01*
X194804Y-57694D01*
X195204Y-58453D01*
X195304Y-59536D01*
X195204Y-60619D01*
X194804Y-61378D01*
X194304Y-62028D01*
X193704Y-62461D01*
X192904Y-62786D01*
X190904D01*
G01X158604Y-75786D02*
Y-69286D01*
X161004D01*
X161804Y-69611D01*
X162404Y-70369D01*
X162604Y-71236D01*
X162404Y-72103D01*
X161904Y-72753D01*
X161004Y-73078D01*
X158604D01*
G01X165104Y-69286D02*
Y-75786D01*
X169104D01*
G01X171104D02*
X173604Y-69286D01*
X176104Y-75786D01*
G01X175204Y-73511D02*
X172004D01*
G01X180104Y-69286D02*
Y-75786D01*
G01X177804Y-69286D02*
X182404D01*
G01X188604Y-75786D02*
X184604D01*
Y-69286D01*
X188604D01*
G01X187004Y-72428D02*
X184604D01*
G01X190904Y-75786D02*
Y-69286D01*
X192904D01*
X193704Y-69611D01*
X194304Y-70044D01*
X194804Y-70694D01*
X195204Y-71453D01*
X195304Y-72536D01*
X195204Y-73619D01*
X194804Y-74378D01*
X194304Y-75028D01*
X193704Y-75461D01*
X192904Y-75786D01*
X190904D01*
G01X158604Y-88786D02*
Y-82286D01*
X161004D01*
X161804Y-82611D01*
X162404Y-83369D01*
X162604Y-84236D01*
X162404Y-85103D01*
X161904Y-85753D01*
X161004Y-86078D01*
X158604D01*
G01X165104Y-82286D02*
Y-88786D01*
X169104D01*
G01X171104D02*
X173604Y-82286D01*
X176104Y-88786D01*
G01X175204Y-86511D02*
X172004D01*
G01X180104Y-82286D02*
Y-88786D01*
G01X177804Y-82286D02*
X182404D01*
G01X188604Y-88786D02*
X184604D01*
Y-82286D01*
X188604D01*
G01X187004Y-85428D02*
X184604D01*
G01X190904Y-88786D02*
Y-82286D01*
X192904D01*
X193704Y-82611D01*
X194304Y-83044D01*
X194804Y-83694D01*
X195204Y-84453D01*
X195304Y-85536D01*
X195204Y-86619D01*
X194804Y-87378D01*
X194304Y-88028D01*
X193704Y-88461D01*
X192904Y-88786D01*
X190904D01*
G01X158604Y-101786D02*
Y-95286D01*
X161004D01*
X161804Y-95611D01*
X162404Y-96369D01*
X162604Y-97236D01*
X162404Y-98103D01*
X161904Y-98753D01*
X161004Y-99078D01*
X158604D01*
G01X165104Y-95286D02*
Y-101786D01*
X169104D01*
G01X171104D02*
X173604Y-95286D01*
X176104Y-101786D01*
G01X175204Y-99511D02*
X172004D01*
G01X180104Y-95286D02*
Y-101786D01*
G01X177804Y-95286D02*
X182404D01*
G01X188604Y-101786D02*
X184604D01*
Y-95286D01*
X188604D01*
G01X187004Y-98428D02*
X184604D01*
G01X190904Y-101786D02*
Y-95286D01*
X192904D01*
X193704Y-95611D01*
X194304Y-96044D01*
X194804Y-96694D01*
X195204Y-97453D01*
X195304Y-98536D01*
X195204Y-99619D01*
X194804Y-100378D01*
X194304Y-101028D01*
X193704Y-101461D01*
X192904Y-101786D01*
X190904D01*
G01X158604Y-114786D02*
Y-108286D01*
X161004D01*
X161804Y-108611D01*
X162404Y-109369D01*
X162604Y-110236D01*
X162404Y-111103D01*
X161904Y-111753D01*
X161004Y-112078D01*
X158604D01*
G01X165104Y-108286D02*
Y-114786D01*
X169104D01*
G01X171104D02*
X173604Y-108286D01*
X176104Y-114786D01*
G01X175204Y-112511D02*
X172004D01*
G01X180104Y-108286D02*
Y-114786D01*
G01X177804Y-108286D02*
X182404D01*
G01X188604Y-114786D02*
X184604D01*
Y-108286D01*
X188604D01*
G01X187004Y-111428D02*
X184604D01*
G01X190904Y-114786D02*
Y-108286D01*
X192904D01*
X193704Y-108611D01*
X194304Y-109044D01*
X194804Y-109694D01*
X195204Y-110453D01*
X195304Y-111536D01*
X195204Y-112619D01*
X194804Y-113378D01*
X194304Y-114028D01*
X193704Y-114461D01*
X192904Y-114786D01*
X190904D01*
G01X227454Y-122369D02*
X228054Y-121719D01*
X228754Y-121394D01*
X229554Y-121286D01*
X230554Y-121503D01*
X231254Y-122044D01*
X231454Y-122694D01*
X231354Y-123344D01*
X230954Y-123886D01*
X228954Y-124969D01*
X228054Y-125728D01*
X227454Y-126811D01*
X227254Y-127786D01*
X231454D01*
G01X222854Y-49786D02*
X222054Y-49678D01*
X221354Y-49244D01*
X220754Y-48594D01*
X220354Y-47836D01*
X220154Y-46969D01*
Y-46103D01*
X220354Y-45236D01*
X220754Y-44478D01*
X221354Y-43828D01*
X222054Y-43394D01*
X222854Y-43286D01*
X223654Y-43394D01*
X224354Y-43828D01*
X224954Y-44478D01*
X225354Y-45236D01*
X225554Y-46103D01*
Y-46969D01*
X225354Y-47836D01*
X224954Y-48594D01*
X224354Y-49244D01*
X223654Y-49678D01*
X222854Y-49786D01*
G01X223654Y-48053D02*
X224854Y-49786D01*
G01X229354Y-43286D02*
Y-49786D01*
G01X227054Y-43286D02*
X231654D01*
G01X235854Y-49786D02*
Y-46861D01*
X233854Y-43286D01*
G01X237854D02*
X235854Y-46861D01*
G01X224404Y-62028D02*
X225104Y-62569D01*
X225904Y-62786D01*
X226704Y-62569D01*
X227404Y-61920D01*
X227904Y-60944D01*
X228104Y-59969D01*
Y-58778D01*
X227904Y-57803D01*
X227404Y-56936D01*
X226804Y-56503D01*
X226104Y-56286D01*
X225304Y-56503D01*
X224704Y-56936D01*
X224304Y-57586D01*
X224104Y-58453D01*
X224304Y-59211D01*
X224804Y-59969D01*
X225404Y-60403D01*
X226104Y-60511D01*
X226904Y-60294D01*
X227504Y-59753D01*
X228104Y-58778D01*
G01X230904Y-62028D02*
X231604Y-62569D01*
X232404Y-62786D01*
X233204Y-62569D01*
X233904Y-61920D01*
X234404Y-60944D01*
X234604Y-59969D01*
Y-58778D01*
X234404Y-57803D01*
X233904Y-56936D01*
X233304Y-56503D01*
X232604Y-56286D01*
X231804Y-56503D01*
X231204Y-56936D01*
X230804Y-57586D01*
X230604Y-58453D01*
X230804Y-59211D01*
X231304Y-59969D01*
X231904Y-60403D01*
X232604Y-60511D01*
X233404Y-60294D01*
X234004Y-59753D01*
X234604Y-58778D01*
G01X227454Y-70369D02*
X228054Y-69719D01*
X228754Y-69394D01*
X229554Y-69286D01*
X230554Y-69503D01*
X231254Y-70044D01*
X231454Y-70694D01*
X231354Y-71344D01*
X230954Y-71886D01*
X228954Y-72969D01*
X228054Y-73728D01*
X227454Y-74811D01*
X227254Y-75786D01*
X231454D01*
G01X229354Y-88786D02*
X230054Y-88678D01*
X230854Y-88353D01*
X231354Y-87811D01*
X231554Y-87053D01*
X231354Y-86294D01*
X230754Y-85644D01*
X229854Y-85319D01*
X228854D01*
X228254Y-85103D01*
X227754Y-84561D01*
X227554Y-83803D01*
X227854Y-83044D01*
X228554Y-82503D01*
X229354Y-82286D01*
X230154Y-82503D01*
X230854Y-83044D01*
X231154Y-83803D01*
X230954Y-84561D01*
X230454Y-85103D01*
X229854Y-85319D01*
X228854D01*
X227954Y-85644D01*
X227354Y-86294D01*
X227154Y-87053D01*
X227354Y-87811D01*
X227854Y-88353D01*
X228654Y-88678D01*
X229354Y-88786D01*
G01X227154Y-100486D02*
X227754Y-101244D01*
X228554Y-101678D01*
X229454Y-101786D01*
X230254Y-101678D01*
X231054Y-101136D01*
X231554Y-100486D01*
X231654Y-99836D01*
X231454Y-99078D01*
X230754Y-98536D01*
X230054Y-98319D01*
X229154D01*
G01X230054D02*
X230654Y-97994D01*
X231154Y-97453D01*
X231354Y-96803D01*
X231154Y-96153D01*
X230654Y-95611D01*
X229754Y-95286D01*
X228854Y-95394D01*
X227954Y-95828D01*
G01X227454Y-109369D02*
X228054Y-108719D01*
X228754Y-108394D01*
X229554Y-108286D01*
X230554Y-108503D01*
X231254Y-109044D01*
X231454Y-109694D01*
X231354Y-110344D01*
X230954Y-110886D01*
X228954Y-111969D01*
X228054Y-112728D01*
X227454Y-113811D01*
X227254Y-114786D01*
X231454D01*
M02*
