M48
INCH,LZ
T01C.012
T02C.02756
T03C.03937
T04C.07087
;LEADER: 12 
;HEADER: 
;CODE  : ASCII 
;FILE  : hfplink-1-2.drl for board #Taaaadp11916.tmp ... layers TOP and BOTTOM
;T01 Holesize 1. = 12.000000 Tolerance = +0.000000/-0.000000 PLATED MILS Quantity = 99
;T02 Holesize 2. = 27.560000 Tolerance = +0.000000/-0.000000 PLATED MILS Quantity = 2
;T03 Holesize 3. = 39.370000 Tolerance = +0.000000/-0.000000 PLATED MILS Quantity = 8
;T04 Holesize 4. = 70.870000 Tolerance = +0.000000/-0.000000 PLATED MILS Quantity = 3
%
G90
T01
X001625Y0012
X002019Y0012
X002413Y0012
X002807Y0012
X0032Y0012
X004374Y001055
X005222Y001055
X007776Y001055
X008624Y001055
X010817Y003277
X010817Y002777
X010817Y002277
X010317Y003277
X010317Y002777
X010317Y002277
X009817Y003277
X009817Y002777
X009817Y002277
X008335Y003677
X0082Y003282
X007919Y003553
X005019Y003848
X004798Y003282
X002894Y003483
X002283Y00367
X001428Y003668
X00131Y003205
X001428Y004062
X001428Y004457
X001428Y004849
X002283Y004064
X002283Y004457
X002329Y00494
X003837Y004002
X003837Y004502
X004322Y005697
X004867Y005704
X00529Y005252
X005363Y004502
X005478Y005992
X006742Y005504
X006972Y004047
X00733Y004046
X007701Y005502
X007898Y004047
X008444Y004392
X009638Y004503
X009673Y007491
X009673Y006703
X008202Y006286
X007877Y006266
X007392Y007012
X00562Y007012
X005257Y007376
X004222Y007026
X00388Y007049
X003353Y007786
X003286Y007201
X002915Y006422
X002668Y007871
X002668Y006945
X00244Y006048
X001213Y006969
X000437Y006826
X000919Y008541
X000919Y009467
X001213Y008118
X001213Y008797
X001213Y009723
X002668Y008797
X002668Y009723
X002962Y009979
X003735Y009441
X00389Y00821
X004206Y009422
X005048Y009824
X00621Y009409
X007276Y009258
X007669Y009018
X009322Y008451
X009321Y009238
X009324Y009633
X007877Y01156
X007877Y010772
X00664Y010584
X005689Y010582
X005409Y011193
X005016Y011193
X005016Y010294
X004098Y011552
X003613Y011454
X003546Y010905
X003353Y01027
X003136Y010838
X00283Y011601
X00233Y011601
X004622Y012291
X006223Y012209
X003544Y014796
T02
X005357Y002492
X007641Y002492
T03
X000763Y00223
X000763Y00323
X000763Y00423
X000763Y00523
X000763Y00623
X000763Y00723
X012455Y003293
X012455Y002293
T04
X011602Y005769
X011602Y007619
X011602Y00947
M30
