G04 ================== begin FILE IDENTIFICATION RECORD ==================*
G04 Layout Name:  G:/project_development/GitHub/HFPLink/PCB/V1.1/hfplink.brd*
G04 Film Name:    TOP*
G04 File Format:  Gerber RS274X*
G04 File Origin:  Cadence Allegro 16.6-2015-S066*
G04 Origin Date:  Sun Jan 29 10:22:10 2023*
G04 *
G04 Layer:  VIA CLASS/TOP*
G04 Layer:  PIN/TOP*
G04 Layer:  ETCH/TOP*
G04 Layer:  BOARD GEOMETRY/OUTLINE*
G04 *
G04 Offset:    (0.00 0.00)*
G04 Mirror:    No*
G04 Mode:      Positive*
G04 Rotation:  0*
G04 FullContactRelief:  No*
G04 UndefLineWidth:     1.00*
G04 ================== end FILE IDENTIFICATION RECORD ====================*
%FSLAX55Y55*MOIN*%
%IR0*IPPOS*OFA0.00000B0.00000*MIA0B0*SFA1.00000B1.00000*%
%ADD18R,.0315X.0315*%
%ADD13R,.02008X.02008*%
%ADD14C,.02756*%
%ADD24C,.02795*%
%ADD34C,.09449*%
%ADD10C,.06299*%
%ADD20R,.00984X.03543*%
%ADD21R,.03543X.00984*%
%ADD11R,.06299X.06299*%
%ADD28R,.01181X.05118*%
%ADD31R,.01575X.0315*%
%ADD30R,.01181X.04724*%
%ADD27R,.02362X.05118*%
%ADD16R,.0315X.01575*%
%ADD29R,.04724X.01181*%
%ADD23R,.03543X.0374*%
%ADD22R,.04488X.05*%
%ADD32R,.05512X.04724*%
%ADD12R,.0315X.03937*%
%ADD25O,.04724X.07087*%
%ADD33R,.02559X.04724*%
%ADD26O,.04724X.07874*%
%ADD19R,.12795X.12795*%
%ADD15R,.08858X.0248*%
%ADD17R,.01969X.05906*%
%ADD35C,.01*%
%ADD36C,.011*%
%ADD37C,.02*%
%ADD38C,.012*%
%ADD39C,.014*%
%ADD40C,.015*%
%ADD41C,.025*%
%ADD42C,.006*%
%ADD43C,.008*%
%ADD48R,.138X.04546*%
%ADD45C,.10452*%
%ADD46R,.07302X.07302*%
%ADD44R,.03957X.04546*%
%ADD47O,.05728X.08878*%
G75*
%LPD*%
G75*
G36*
G01X4000Y2004D02*
G02X2004Y4000I0J1996D01*
G01Y156000D01*
G02X4000Y157996I1996J0D01*
G01X126000D01*
G02X127996Y156000I0J-1996D01*
G01Y35604D01*
G02X127295Y35341I-400J1D01*
G03X122904Y36191I-2744J-2408D01*
G01X122774Y36126D01*
X121963Y36938D01*
X118566D01*
Y37442D01*
X115554D01*
Y31202D01*
X115659D01*
G02X115801Y30861I0J-200D01*
G01X115666Y30726D01*
X114921D01*
Y34656D01*
X110375D01*
Y20856D01*
X114921D01*
Y26754D01*
X115485D01*
X116058Y26181D01*
Y24542D01*
X115554D01*
Y18302D01*
X118566D01*
Y18806D01*
X121841D01*
X122316Y19282D01*
X127996D01*
Y4000D01*
G02X126000Y2004I-1996J0D01*
G01X4000D01*
G37*
%LPC*%
G75*
G36*
G01X41982Y142486D02*
Y117109D01*
G02X39128Y115835I-1001J-1591D01*
G01X39145Y115937D01*
X17300Y137783D01*
Y139222D01*
X16815D01*
Y146130D01*
X19787D01*
Y139222D01*
X19302D01*
Y138613D01*
X39297Y118619D01*
G03X39980Y118901I283J283D01*
G01Y141656D01*
X38409Y143226D01*
X36814D01*
Y146238D01*
X39826D01*
Y144643D01*
X41982Y142486D01*
G37*
G36*
G01X51660Y104062D02*
G02X48650I-1505J-1126D01*
G01Y107324D01*
X51660D01*
Y104062D01*
G37*
G36*
G01X44428Y74420D02*
X45897Y72950D01*
X45967Y72880D01*
X51190D01*
Y70696D01*
X45462D01*
Y70736D01*
X45136D01*
X43929Y71944D01*
X43871Y72002D01*
G03X43530Y71860I-141J-142D01*
G01Y71607D01*
X43585Y71549D01*
G02X40505Y71032I-1367J-1291D01*
G01X40522Y71071D01*
Y71862D01*
X40518D01*
Y74874D01*
X43530D01*
Y74420D01*
X44428D01*
G37*
G36*
G01X98513Y65658D02*
Y59930D01*
X94951D01*
Y65658D01*
X94980D01*
Y66351D01*
X94968Y66385D01*
G02X98496I1764J649D01*
G01X98484Y66351D01*
Y65658D01*
X98513D01*
G37*
G36*
G01X84862Y9369D02*
G02X79134I-2864J1D01*
G01Y11733D01*
G02X84862I2864J-1D01*
G01Y9369D01*
G37*
G36*
G01X50846D02*
G02X45118I-2864J1D01*
G01Y11733D01*
G02X50846I2864J-1D01*
G01Y9369D01*
G37*
G36*
G01X98484Y76288D02*
Y75596D01*
X98496Y75563D01*
G02X94968I-1764J-651D01*
G01X94980Y75596D01*
Y76288D01*
X94951D01*
Y82016D01*
X98513D01*
Y76288D01*
X98484D01*
G37*
G36*
G01X32063Y46774D02*
X37685D01*
X37719Y46786D01*
G02Y43258I651J-1764D01*
G01X37685Y43270D01*
X32063D01*
G02X31890Y43279I4J1752D01*
G01X31881Y43280D01*
X27132D01*
Y46764D01*
X31881D01*
X31890Y46765D01*
G02X32063Y46774I177J-1743D01*
G37*
G36*
G01X34990Y16600D02*
X14647D01*
X13846Y17401D01*
Y25863D01*
X14685Y26702D01*
X34445D01*
G03X34728Y27384I0J400D01*
G01X33946Y28166D01*
X32315D01*
Y27546D01*
X27769D01*
Y32290D01*
X32315D01*
Y31670D01*
X35396D01*
X39488Y27578D01*
G03X40171Y27860I283J283D01*
G01Y32290D01*
X41242D01*
Y33758D01*
X44535Y37050D01*
X52116D01*
X56024Y33142D01*
Y33137D01*
X56534Y32628D01*
X59068D01*
Y33486D01*
X57926D01*
Y36498D01*
X60936D01*
Y34903D01*
X61070Y34769D01*
Y34068D01*
G03X61753Y33785I400J0D01*
G01X62465Y34496D01*
X65550D01*
Y35624D01*
X66960Y37034D01*
Y37420D01*
X66258Y38123D01*
Y41844D01*
X65870D01*
Y45998D01*
X73566D01*
Y42329D01*
X73722Y42294D01*
G02X74481Y41927I-418J-1833D01*
G03X75132Y42238I251J312D01*
G01Y45998D01*
X82828D01*
Y45849D01*
G03X83442Y45511I400J0D01*
G02Y42331I1003J-1590D01*
G03X82828Y41993I-214J-338D01*
G01Y41844D01*
X81040D01*
G03X80679Y41273I1J-400D01*
G02X77569Y39226I-1699J-805D01*
G03X76986Y39244I-300J-265D01*
G01X74391Y36650D01*
X74020D01*
Y33486D01*
X72882D01*
Y32628D01*
X76122D01*
Y27217D01*
G03X76502Y26818I400J0D01*
G02X77666Y23499I-95J-1897D01*
G03X77931Y22800I265J-299D01*
G01X79619D01*
G03X79910Y23473I-1J400D01*
G02X79134Y25433I2087J1960D01*
G01Y28583D01*
G02X84265Y30333I2864J0D01*
G03X84982Y30577I317J244D01*
G01Y31328D01*
X84727D01*
Y34340D01*
X85833D01*
X87956Y36462D01*
Y38278D01*
X87960D01*
Y39204D01*
X87956D01*
Y42216D01*
X90966D01*
Y41712D01*
X96975D01*
X97074Y41613D01*
G03X97756Y41895I282J283D01*
G01Y43310D01*
X100714D01*
Y46355D01*
X100442Y46626D01*
X68850D01*
X66258Y49219D01*
Y49482D01*
X65870D01*
Y53636D01*
X68448D01*
Y49578D01*
X69596Y48430D01*
X75621D01*
G03X75763Y48771I0J200D01*
G01X75520Y49015D01*
Y49482D01*
X75132D01*
Y53636D01*
X77710D01*
Y49630D01*
X80250D01*
Y53833D01*
X77677Y56398D01*
X73207D01*
G03X72924Y55715I0J-400D01*
G01X73178Y55460D01*
Y53636D01*
X73566D01*
Y49482D01*
X70988D01*
Y53636D01*
X71376D01*
Y54714D01*
X67110Y58980D01*
Y63019D01*
X61138D01*
Y59661D01*
X58924Y57446D01*
G03X59206Y56764I283J-282D01*
G01X64790D01*
Y53280D01*
X55155D01*
G03X54760Y52818I0J-400D01*
G02X54759Y52227I-1857J-292D01*
G03X55154Y51764I395J-63D01*
G01X64790D01*
Y48280D01*
X54928D01*
Y48520D01*
X53281D01*
X51402Y50400D01*
Y51393D01*
G02X51082Y52057I1501J1132D01*
G01X51043Y52208D01*
X50688D01*
Y45181D01*
X51065Y44803D01*
G03X51748Y45075I283J283D01*
G02X54301Y46777I1879J-53D01*
G01X54336Y46764D01*
X64790D01*
Y43280D01*
X54336D01*
X54301Y43267D01*
G02X53680Y43143I-673J1755D01*
G03X53408Y42460I11J-400D01*
G01X54246Y41623D01*
G03X54902Y41764I282J283D01*
G01X64790D01*
Y38280D01*
X54928D01*
Y39020D01*
X54015D01*
X48684Y44351D01*
Y54438D01*
X51978Y57732D01*
G03X51696Y58414I-283J282D01*
G01X50396D01*
Y61346D01*
X47787D01*
X46950Y60510D01*
Y54810D01*
X41161Y49020D01*
X36994D01*
Y48280D01*
X27132D01*
Y51764D01*
X36994D01*
Y51024D01*
X40331D01*
X43730Y54422D01*
G03X43408Y55103I-283J283D01*
G02X41380Y56613I-183J1871D01*
G03X40705Y56818I-392J-78D01*
G01X37907Y54020D01*
X36994D01*
Y53280D01*
X27132D01*
Y55742D01*
G03X26791Y55884I-200J0D01*
G01X26607Y55700D01*
X16349D01*
X16258Y55608D01*
G03X16540Y54926I283J-282D01*
G01X19461D01*
Y52189D01*
X20952Y50698D01*
Y50018D01*
X21457D01*
Y47006D01*
X18560D01*
Y29710D01*
X17659Y28808D01*
X11562D01*
X10784Y29586D01*
Y30025D01*
X10491D01*
X10431Y29953D01*
G02X9280Y35557I-2798J2346D01*
G01X9410Y35492D01*
X10782Y36864D01*
Y39324D01*
G03X10110Y39617I-400J-1D01*
G02X4375Y43946I-2477J2682D01*
G01X4440Y44076D01*
X2436Y46079D01*
Y64388D01*
X3885Y65837D01*
G03X3738Y66496I-283J283D01*
G02X4063Y70119I636J1769D01*
G03X4356Y70690I-66J395D01*
G02X8137Y75915I3277J1609D01*
G03X8475Y76594I55J396D01*
G01X3768Y81300D01*
Y146670D01*
X8151Y151052D01*
X26116D01*
X29302Y147866D01*
Y146130D01*
X29787D01*
Y139222D01*
X26815D01*
Y146130D01*
X27300D01*
Y147036D01*
X25286Y149050D01*
X23262D01*
G03X22980Y148367I1J-400D01*
G01X24302Y147044D01*
Y146130D01*
X24787D01*
Y139222D01*
X21815D01*
Y146130D01*
X21901D01*
G03X22042Y146472I0J200D01*
G01X21423Y147090D01*
X10313D01*
X7776Y144554D01*
Y96716D01*
G03X8354Y96358I400J0D01*
G02X9762Y96465I836J-1684D01*
G03X10278Y96914I122J381D01*
G02X12936Y98932I1853J319D01*
G03X13508Y99293I172J361D01*
G01Y99665D01*
X12300Y100873D01*
Y107726D01*
X11815D01*
Y114634D01*
X12300D01*
Y115548D01*
X14080Y117328D01*
X19481D01*
X20761Y116049D01*
G03X21440Y116275I283J283D01*
G02X24802Y114880I1861J-263D01*
G01Y111180D01*
G02X24789Y110978I-1501J-5D01*
G01X24787Y110964D01*
Y107726D01*
X23318D01*
G03X23036Y107043I1J-400D01*
G01X23258Y106820D01*
X29400D01*
G03X29744Y107423I-1J400D01*
G02X31682Y110229I1621J953D01*
G01X31784Y110212D01*
X34502Y112930D01*
X34800D01*
Y113208D01*
X34748Y113266D01*
G02X34277Y114857I1382J1274D01*
G01X34294Y114959D01*
X12300Y136954D01*
Y139222D01*
X11815D01*
Y146130D01*
X14787D01*
Y139222D01*
X14302D01*
Y137784D01*
X35711Y116376D01*
X35813Y116393D01*
G02X37723Y113542I317J-1853D01*
G03X38062Y112930I339J-212D01*
G01X41816D01*
X43280Y111465D01*
Y110552D01*
X43784D01*
Y104312D01*
X43280D01*
Y103399D01*
X41887Y102005D01*
G03X42169Y101322I283J-283D01*
G01X43837D01*
Y95596D01*
X43808D01*
Y94903D01*
X43820Y94869D01*
G02X43574Y93110I-1764J-650D01*
G03X43897Y92474I323J-236D01*
G01X45462D01*
Y94534D01*
X47767D01*
G03X48050Y95217I0J400D01*
G01X45216Y98051D01*
Y104312D01*
X44712D01*
Y110552D01*
X45216D01*
Y111476D01*
X44140D01*
Y115628D01*
X48294D01*
Y111476D01*
X47218D01*
Y110552D01*
X47722D01*
Y104312D01*
X47218D01*
Y98881D01*
X47928Y98171D01*
G03X48609Y98416I283J283D01*
G02X50798Y100093I1872J-176D01*
G01X50900Y100076D01*
X51173Y100348D01*
X53138D01*
Y102211D01*
X58048D01*
G03X58330Y102894I-1J400D01*
G01X57254Y103970D01*
X57155Y103956D01*
G02X55767Y104312I-262J1862D01*
G01X52588D01*
Y107324D01*
X55767D01*
G02X58402Y106940I1126J-1506D01*
G03X59122Y107179I320J239D01*
G01Y107346D01*
X59626D01*
Y108292D01*
X58974D01*
Y114018D01*
X65488D01*
Y108292D01*
X61630D01*
Y107346D01*
X62134D01*
Y104700D01*
X64980D01*
X66993Y102687D01*
X68596Y104290D01*
X71004D01*
Y107332D01*
X72599D01*
X74016Y108748D01*
Y113702D01*
X72734Y114984D01*
X67636D01*
Y120710D01*
X74150D01*
Y116400D01*
X76018Y114532D01*
Y107918D01*
X74016Y105915D01*
Y104320D01*
X73512D01*
Y103875D01*
X72530Y102894D01*
G03X72813Y102211I283J-283D01*
G01X76978D01*
Y96482D01*
X83860D01*
X84714Y97336D01*
X85628D01*
Y97840D01*
X86132D01*
Y98753D01*
X86298Y98920D01*
Y100620D01*
X85519D01*
Y106348D01*
X86298D01*
Y116978D01*
X85519D01*
Y122706D01*
X89081D01*
Y116978D01*
X88302D01*
Y106348D01*
X89081D01*
Y100620D01*
X88302D01*
Y97840D01*
X88638D01*
Y94828D01*
X87109D01*
G03X86826Y94146I0J-400D01*
G01X87084Y93888D01*
X88608D01*
Y90878D01*
X88604D01*
Y89951D01*
X91836D01*
Y89446D01*
X109354D01*
X111684Y91776D01*
G02X113100Y90360I4335J2919D01*
G01X110184Y87444D01*
X91836D01*
Y86939D01*
X87054D01*
G03X86771Y86256I0J-400D01*
G01X87016Y86012D01*
X88610D01*
Y84417D01*
X89206Y83822D01*
Y82016D01*
X89985D01*
Y76288D01*
X89206D01*
Y65658D01*
X89985D01*
Y59930D01*
X86423D01*
Y65658D01*
X87202D01*
Y76288D01*
X86423D01*
Y82016D01*
X87202D01*
Y82992D01*
X87194Y83000D01*
X85600D01*
Y84566D01*
X84654D01*
Y70696D01*
X78926D01*
Y90597D01*
X84654D01*
Y86570D01*
X85596D01*
Y89951D01*
X85600D01*
Y90878D01*
X85596D01*
Y92390D01*
X84654D01*
Y92350D01*
X78926D01*
Y92390D01*
X76437D01*
X75576Y91530D01*
X74320D01*
G02X71344Y93816I-1559J1051D01*
G03X71043Y94478I-302J262D01*
G01X65126D01*
X63450Y96155D01*
Y96165D01*
X63132Y96483D01*
X62982D01*
Y102211D01*
X64153D01*
G03X64295Y102552I0J200D01*
G01X64150Y102698D01*
X61188D01*
Y102211D01*
X61230D01*
Y96483D01*
X57202D01*
Y95570D01*
X55805Y94174D01*
X51190D01*
Y74633D01*
X45462D01*
Y77171D01*
G03X44780Y77453I-400J-1D01*
G01X43530Y76203D01*
Y75800D01*
X40518D01*
Y78812D01*
X43305D01*
X43390Y78896D01*
G03X43248Y79238I-141J142D01*
G01X40275D01*
Y80041D01*
G03X39704Y80402I-400J0D01*
G02X38071Y80412I-806J1699D01*
G03X37496Y80053I-175J-359D01*
G01Y71026D01*
X32356Y65886D01*
X31044D01*
G03X30712Y65264I0J-400D01*
G02X30152Y62626I-1562J-1047D01*
G01Y59244D01*
X28354Y57446D01*
G03X28636Y56764I283J-282D01*
G01X37020D01*
G03X37676Y56623I374J142D01*
G01X38996Y57942D01*
Y58414D01*
X38491D01*
Y61426D01*
X38996D01*
Y64504D01*
X41376Y66884D01*
X53138D01*
Y68747D01*
X54140D01*
G03X54501Y69318I-1J400D01*
G02X57899I1699J805D01*
G03X58260Y68747I362J-171D01*
G01X73040D01*
Y63019D01*
X70880D01*
Y62026D01*
X71451Y61456D01*
X74834D01*
Y63020D01*
X74793D01*
Y68746D01*
X76977D01*
Y64460D01*
G03X77622Y64144I400J0D01*
G02X80278Y61531I1150J-1487D01*
G01Y58468D01*
X79390D01*
X79371Y58448D01*
X79141D01*
G03X78859Y57765I0J-400D01*
G01X82440Y54195D01*
Y53636D01*
X82828D01*
Y49630D01*
X101686D01*
X103716Y47599D01*
Y40816D01*
X104100Y40432D01*
Y39478D01*
X104193D01*
Y34932D01*
X96299D01*
Y37082D01*
X96298Y37093D01*
Y37095D01*
G02X96292Y37205I995J109D01*
G01Y39562D01*
X96145Y39708D01*
X90966D01*
Y39204D01*
X90962D01*
Y38278D01*
X90966D01*
Y37774D01*
X92547D01*
X94752Y35569D01*
Y34656D01*
X96023D01*
Y20856D01*
X91477D01*
Y30692D01*
X90187D01*
X89551Y31328D01*
X87484D01*
Y22030D01*
X85751Y20296D01*
X74921D01*
X72533Y22684D01*
X57941D01*
X56063Y24562D01*
G03X55396Y24391I-283J-283D01*
G02X53478Y26818I-1823J530D01*
G03X53858Y27217I-20J399D01*
G01Y31904D01*
X53622Y32141D01*
Y32146D01*
X51120Y34648D01*
X45531D01*
X43646Y32762D01*
Y32290D01*
X44717D01*
Y27546D01*
X40485D01*
G03X40202Y26864I0J-400D01*
G01X40866Y26200D01*
X42428D01*
Y20196D01*
X36938D01*
Y25175D01*
X36500Y25612D01*
G03X35818Y25329I-282J-283D01*
G01Y17428D01*
X34990Y16600D01*
G37*
G54D48*
X103199Y18307D03*
G54D45*
X116019Y57687D03*
Y76191D03*
G54D46*
X7633Y22299D03*
G54D44*
X108120Y37205D03*
G54D47*
X47982Y27008D03*
%LPD*%
G75*
G36*
G01X14855Y17102D02*
X14348Y17609D01*
Y25655D01*
X14893Y26200D01*
X34824D01*
X35316Y25708D01*
Y17636D01*
X34782Y17102D01*
X14855D01*
G37*
G36*
G01X17494Y50230D02*
X18059Y49665D01*
Y29918D01*
X17451Y29310D01*
X11770D01*
X11286Y29794D01*
Y32684D01*
X12902Y34300D01*
Y49621D01*
X13511Y50230D01*
X17494D01*
G37*
G36*
G01X25298Y67890D02*
Y68177D01*
X21260D01*
Y70717D01*
X25298D01*
Y71004D01*
X31268D01*
G03X32809Y70127I1590J1002D01*
G02X33081Y69444I-11J-400D01*
G01X31526Y67890D01*
X25298D01*
G37*
G36*
G01Y77152D02*
Y77439D01*
X21260D01*
Y79853D01*
X21386Y79979D01*
X25298D01*
Y82557D01*
X21108D01*
Y84123D01*
X25298D01*
Y84410D01*
X28532D01*
X29069Y84947D01*
G02X29752Y84665I283J-283D01*
G01Y77821D01*
X29082Y77152D01*
X25298D01*
G37*
G36*
G01Y86414D02*
Y86701D01*
X21108D01*
Y88777D01*
X21571Y89241D01*
X25298D01*
Y91819D01*
X21146D01*
Y91648D01*
X19985Y90488D01*
G02X19302Y90770I-283J283D01*
G01Y107726D01*
X19792D01*
Y107454D01*
X22428Y104818D01*
X32030D01*
G02X32293Y104116I0J-400D01*
G03X31978Y101636I1235J-1417D01*
G02X31813Y101322I-165J-114D01*
G01X31747D01*
Y101276D01*
G02X31043Y101016I-400J0D01*
G03X28025Y100794I-1427J-1224D01*
G01X25298D01*
Y101081D01*
X21146D01*
Y98503D01*
X25298D01*
Y98790D01*
X28025D01*
G03X31043Y98568I1591J1002D01*
G02X31747Y98308I304J-260D01*
G01Y95596D01*
X35309D01*
Y101322D01*
X35243D01*
G02X35078Y101636I0J200D01*
G03X34763Y104116I-1550J1063D01*
G02X35026Y104818I263J302D01*
G01X36834D01*
Y104314D01*
X39844D01*
Y110926D01*
X40774D01*
Y104312D01*
X40878D01*
G02X41020Y103971I0J-200D01*
G01X36352Y99304D01*
Y96003D01*
G03X35966Y93144I1002J-1591D01*
G02X35670Y92474I-295J-270D01*
G01X33227D01*
X30026Y95676D01*
X25298D01*
Y95963D01*
X21146D01*
Y93385D01*
X25298D01*
Y93672D01*
X29196D01*
X32021Y90848D01*
G02X31879Y90506I-141J-142D01*
G01X31795D01*
X27702Y86414D01*
X25298D01*
G37*
G54D10*
X7633Y32299D03*
Y72299D03*
Y62299D03*
Y52299D03*
Y42299D03*
X124551Y32933D03*
G54D11*
X7633Y22299D03*
X124551Y22933D03*
G54D20*
X105168Y18307D03*
X103199D03*
X101230D03*
X99262D03*
X97293D03*
Y37205D03*
X99262D03*
X101230D03*
X103199D03*
X105168D03*
X109105Y18307D03*
X107136D03*
Y37205D03*
X109105D03*
G54D12*
X19844Y22605D03*
X16104Y32053D03*
X23584D03*
G54D30*
X75885Y65883D03*
X73916D03*
X71948D03*
X69979D03*
X68011D03*
X66042D03*
X64074D03*
X62105D03*
X60137D03*
X58168D03*
X56200D03*
X54231D03*
Y99347D03*
X56200D03*
X58168D03*
X60137D03*
X62105D03*
X64074D03*
X66042D03*
X68011D03*
X69979D03*
X71948D03*
X73916D03*
X75885D03*
G54D21*
X93750Y21850D03*
Y23819D03*
Y25787D03*
Y27756D03*
Y29725D03*
Y31693D03*
Y33662D03*
X112648D03*
Y31693D03*
Y29725D03*
Y27756D03*
Y25787D03*
Y23819D03*
Y21850D03*
G54D40*
G01X23222Y69447D02*
X26675D01*
G01X23222Y78709D02*
X26675D01*
G01X23222Y97233D02*
X26675D01*
G01X23222Y87971D02*
X26675D01*
G01X15584Y97233D02*
X12131D01*
G01X15584Y87971D02*
X12131D01*
G01X15584Y78709D02*
X13802D01*
X12131Y80380D01*
Y81180D01*
G01X15584Y69447D02*
X12373D01*
X12131Y69689D01*
G01X86233Y32834D02*
Y22548D01*
X85233Y21548D01*
X75439D01*
X73051Y23936D01*
G01D02*
X58459D01*
X55541Y26854D01*
Y29567D01*
G01X73051Y23936D02*
Y25522D01*
X74439Y26910D01*
Y29567D01*
G01X78980Y53052D02*
Y51559D01*
G01X69718D02*
Y53412D01*
G01X77011Y55021D02*
X77479D01*
G01X82000Y62835D02*
X82022Y62857D01*
G01X78980Y53520D02*
Y53052D01*
G01X77479Y55021D02*
X78980Y53520D01*
G01X69718Y53412D02*
X68093Y55037D01*
G01X78980Y43921D02*
Y40468D01*
G01X69718Y43921D02*
Y40468D01*
G54D22*
X33069Y23198D03*
X39683D03*
G54D31*
X81539Y43921D03*
X78980D03*
X76421D03*
Y51559D03*
X78980D03*
X81539D03*
X72277Y43921D03*
X69718D03*
X67159D03*
Y51559D03*
X69718D03*
X72277D03*
G54D13*
X28066Y14887D03*
Y18115D03*
X16252Y14887D03*
Y18115D03*
X24128Y14887D03*
Y18115D03*
X20190Y14887D03*
Y18115D03*
X19951Y40636D03*
X16723D03*
X19951Y36698D03*
X16723D03*
X19951Y44574D03*
X16723D03*
X19951Y48512D03*
X16723D03*
X32004Y14887D03*
Y18115D03*
X59431Y34992D03*
X56203D03*
X89461Y32834D03*
X86233D03*
X75742Y34992D03*
X72514D03*
X63856Y105841D03*
X60628D03*
X69282Y105826D03*
X72510D03*
X54093Y105818D03*
Y109046D03*
X86233Y36772D03*
X89461D03*
X86233Y40710D03*
X89461D03*
X78772Y59973D03*
X82000D03*
X90361Y96334D03*
X87133D03*
X48674Y59920D03*
X51902D03*
X42024Y73368D03*
X38796D03*
X99262Y45033D03*
Y41805D03*
X50155Y109046D03*
Y105818D03*
X87102Y92383D03*
X90330D03*
X39997Y59920D03*
X43225D03*
X90333Y84506D03*
X87105D03*
X38796Y77306D03*
X42024D03*
X46217Y105818D03*
Y109046D03*
X42279D03*
Y105818D03*
X74910Y59950D03*
X71682D03*
X90330Y88445D03*
X87102D03*
X38339Y105819D03*
Y109047D03*
X38320Y147960D03*
Y144732D03*
X117060Y19808D03*
Y23036D03*
Y32708D03*
Y35936D03*
G54D41*
G01X23291Y52849D02*
Y49396D01*
G01X30042Y29918D02*
X34671D01*
X39683Y24906D01*
Y23198D01*
G01X78772Y103484D02*
Y107724D01*
G01X32063Y40022D02*
X38370D01*
G01X66415Y105826D02*
X66400Y105841D01*
G01X96732Y79152D02*
Y74912D01*
G01Y62794D02*
Y67034D01*
G01X42056Y98459D02*
Y94219D01*
G01X32063Y45022D02*
X38370D01*
G01X62231Y117847D02*
Y122087D01*
G01X46217Y119458D02*
Y122911D01*
G01X78772Y119842D02*
Y115602D01*
G54D32*
X70893Y111155D03*
X62231D03*
Y117847D03*
X70893D03*
G54D23*
X30042Y29918D03*
X42444D03*
G54D14*
X28935Y34829D03*
X28066Y12005D03*
X24128D03*
X20190D03*
X16252D03*
X13098Y32048D03*
X26675Y69447D03*
Y78709D03*
Y97233D03*
Y87971D03*
X22833Y44574D03*
Y40636D03*
Y36698D03*
X23291Y49396D03*
X14285Y36680D03*
Y40618D03*
Y44574D03*
X12131Y69689D03*
Y97233D03*
Y87971D03*
Y81180D03*
X14285Y48494D03*
X29150Y64217D03*
X29616Y99792D03*
X24403Y60481D03*
X4374Y68265D03*
X9190Y94674D03*
Y85412D03*
X28301Y116011D03*
X23301D03*
X79191Y35532D03*
X47982Y32823D03*
X81998D03*
X86238Y10551D03*
X77758D03*
X52222D03*
X43742D03*
X103172Y22773D03*
X98172D03*
Y27773D03*
X103172D03*
Y32773D03*
X98172D03*
X32004Y12005D03*
X96380Y45033D03*
X83351Y36772D03*
X48674Y57038D03*
X52566Y73757D03*
X38796Y70486D03*
X73916Y70123D03*
X66400Y105841D03*
X78772Y107724D03*
X93243Y96334D03*
X93212Y92383D03*
X93215Y84506D03*
X54093Y111928D03*
X50155D03*
X38370Y40022D03*
X50188Y38477D03*
X62105Y94090D03*
X82022Y62857D03*
X77011Y55021D03*
X67425Y55037D03*
X76694Y90179D03*
X78980Y40468D03*
X35457Y109047D03*
X43225Y56974D03*
X54784Y59920D03*
X38898Y82101D03*
X96732Y74912D03*
Y67034D03*
X78772Y62657D03*
X42218Y70258D03*
X42056Y94219D03*
X56893Y105818D03*
X50155Y102936D03*
X38370Y45022D03*
X52903Y52524D03*
X69718Y40468D03*
X72762Y92581D03*
X56200Y70123D03*
X53627Y45022D03*
X32859Y72006D03*
X33528Y77861D03*
Y102699D03*
X31365Y108376D03*
X37354Y94412D03*
X50481Y98240D03*
X84445Y43921D03*
X73304Y40461D03*
X35438Y147960D03*
X62231Y122087D03*
X78772Y115602D03*
X46217Y122911D03*
X40981Y115518D03*
X36130Y114540D03*
X108172Y22773D03*
Y27773D03*
Y32773D03*
G54D42*
G01X4000Y0D02*
X126000D01*
G03X130000Y4000I0J4000D01*
G01Y156000D01*
G03X126000Y160000I-4000J0D01*
G01X4000D01*
G03X0Y156000I0J-4000D01*
G01Y4000D01*
G03X4000Y0I4000J0D01*
G54D15*
X32063Y40022D03*
Y45022D03*
Y50022D03*
Y55022D03*
X59859D03*
Y50022D03*
Y45022D03*
Y40022D03*
G54D33*
X42056Y98459D03*
Y82101D03*
X33528Y98459D03*
Y82101D03*
X78772Y103484D03*
X87300D03*
X96732Y79152D03*
Y62794D03*
X88204Y79152D03*
Y62794D03*
X78772Y119842D03*
X87300D03*
G54D24*
X76407Y24921D03*
X53573D03*
G54D43*
G01X64006Y29567D02*
Y27112D01*
X65010Y26108D01*
X66938D01*
X67943Y27113D01*
Y29567D01*
G01X76421Y43921D02*
Y39954D01*
X74018Y37551D01*
X70450D01*
X67652Y34753D01*
Y33498D01*
X67943Y33207D01*
Y29567D01*
G01X67159Y43921D02*
Y38496D01*
X67862Y37793D01*
Y36661D01*
X66452Y35251D01*
Y33686D01*
X65974Y33208D01*
G01D02*
Y29567D01*
G01X62037D02*
Y32794D01*
X62838Y33595D01*
X65587D01*
X65974Y33208D01*
G01X76421Y51559D02*
Y49388D01*
X77081Y48728D01*
X101313D01*
X102815Y47226D01*
Y40443D01*
X103199Y40059D01*
Y37205D01*
G01X67159Y51559D02*
Y49592D01*
X69223Y47528D01*
X100815D01*
X101615Y46728D01*
Y40443D01*
X101230Y40058D01*
Y37205D01*
G01X81539Y51559D02*
Y53821D01*
X78050Y57299D01*
X71763D01*
X70963Y58099D01*
Y59231D01*
X71682Y59950D01*
G01X69979Y65883D02*
Y61653D01*
X71682Y59950D01*
G01X72277Y51559D02*
Y55087D01*
X68011Y59353D01*
Y65883D01*
G54D25*
X81998Y10551D03*
X47982D03*
G54D16*
X15584Y66888D03*
Y69447D03*
Y72006D03*
X23222D03*
Y69447D03*
Y66888D03*
X15584Y85412D03*
Y87971D03*
Y90530D03*
X23222D03*
Y87971D03*
Y85412D03*
X15584Y76150D03*
Y78709D03*
Y81268D03*
X23222D03*
Y78709D03*
Y76150D03*
X15584Y94674D03*
Y97233D03*
Y99792D03*
X23222D03*
Y97233D03*
Y94674D03*
G54D34*
X116019Y94695D03*
Y76191D03*
Y57687D03*
G54D35*
G01X7633Y32299D02*
X11783Y36449D01*
Y52550D01*
X15934Y56701D01*
X26192D01*
X29150Y59659D01*
Y64217D01*
G01X7633Y72299D02*
Y76151D01*
G01X3781Y72299D02*
X7633D01*
G01X23222Y94674D02*
X29611D01*
X32812Y91473D01*
X48326D01*
G01X23222Y76150D02*
X29497D01*
X30753Y77406D01*
Y85212D01*
X33077Y87536D01*
X48326D01*
G01X23222Y66888D02*
X31941D01*
X36494Y71441D01*
Y84304D01*
X37758Y85568D01*
X48326D01*
G01Y89505D02*
X32210D01*
X28117Y85412D01*
X23222D01*
G01X23301Y142676D02*
Y146629D01*
X21838Y148092D01*
X9898D01*
X6775Y144969D01*
Y93375D01*
X9620Y90530D01*
X15584D01*
G01X28301Y142676D02*
Y147451D01*
X25701Y150051D01*
X8566D01*
X4770Y146255D01*
Y81715D01*
X12299Y74186D01*
Y72716D01*
X13009Y72006D01*
X15584D01*
G01X23222Y99792D02*
X29616D01*
G01X7633Y42299D02*
X3438Y46494D01*
Y63973D01*
X5352Y65887D01*
X5360D01*
X5963Y66490D01*
X9677D01*
X11683Y64484D01*
X17353D01*
X18413Y65544D01*
Y81100D01*
X20106Y82793D01*
Y89192D01*
X21444Y90530D01*
X23222D01*
G01Y72006D02*
X32859D01*
G01X24403Y60481D02*
X15815D01*
X7633Y52299D01*
G01Y62299D02*
X17537D01*
X20259Y65021D01*
Y80268D01*
X21259Y81268D01*
X23222D01*
G01X4374Y68265D02*
X4490Y68149D01*
X10140D01*
X11401Y66888D01*
X15584D01*
G01Y94674D02*
X9190D01*
G01X15584Y85412D02*
X9190D01*
G01D02*
Y79969D01*
X13009Y76150D01*
X15584D01*
G01X19951Y48512D02*
Y50283D01*
X17385Y52849D01*
G01X13301Y111180D02*
Y115133D01*
X14495Y116327D01*
X19066D01*
X20793Y114600D01*
Y107869D01*
X22843Y105819D01*
X38339D01*
G01X13301Y111180D02*
Y101288D01*
X14797Y99792D01*
X15584D01*
G01X18301Y111180D02*
Y83198D01*
X16371Y81268D01*
X15584D01*
G01X40981Y115518D02*
X18301Y138198D01*
Y142676D01*
G01X36130Y114540D02*
X13301Y137369D01*
Y142676D01*
G01X105168Y37205D02*
Y34769D01*
X103172Y32773D01*
G01X47982Y22369D02*
Y27008D01*
G01X44918D02*
X47982D01*
G01D02*
X51046D01*
G01X47982Y6305D02*
Y10551D01*
G01D02*
Y14797D01*
G01X81998Y6305D02*
Y10551D01*
G01D02*
Y14797D01*
G01X89461Y36772D02*
X92132D01*
X93750Y35154D01*
Y33662D01*
G01Y31693D02*
X90602D01*
X89461Y32834D01*
G01X59431Y34992D02*
X60069Y34354D01*
Y29567D01*
G01X71880D02*
Y34358D01*
X72514Y34992D01*
G01X67823Y114225D02*
X70893Y111155D01*
G01X46217Y113552D02*
Y109046D01*
G01X54231Y65883D02*
X41791D01*
X39997Y64089D01*
Y59920D01*
G01X32063Y55022D02*
X37492D01*
X39997Y57527D01*
Y59920D01*
G01X56200Y65883D02*
Y70123D01*
G01X59859Y45022D02*
X53627D01*
G01X58168Y65883D02*
Y63397D01*
X57119Y62348D01*
X47372D01*
X45949Y60925D01*
Y55225D01*
X40746Y50022D01*
X32063D01*
G01X59859Y40022D02*
X54430D01*
X49686Y44766D01*
Y54023D01*
X53061Y57398D01*
X57459D01*
X60137Y60076D01*
Y65883D01*
G01X60628Y105841D02*
Y104674D01*
X61603Y103699D01*
X64565D01*
X66042Y102222D01*
Y99347D01*
G01X60628Y105841D02*
Y109552D01*
X62231Y111155D01*
G01X72510Y105826D02*
X75017Y108333D01*
Y114117D01*
X71287Y117847D01*
X70893D01*
G01X72510Y105826D02*
Y104290D01*
X71509Y103289D01*
X69011D01*
X68011Y102289D01*
Y99347D01*
G01X90330Y88445D02*
X109769D01*
X116019Y94695D01*
G01X89461Y40710D02*
X96560D01*
X97293Y39977D01*
Y37205D01*
G01X64074Y99347D02*
Y96957D01*
X64451Y96580D01*
Y96570D01*
X65541Y95480D01*
X84275D01*
X85129Y96334D01*
X87133D01*
G01X87300Y103484D02*
Y119842D01*
G01X87133Y96334D02*
Y98338D01*
X87300Y98505D01*
Y103484D01*
G01X48326Y79662D02*
X45572D01*
X43216Y77306D01*
X42024D01*
G01X88204Y79152D02*
Y83407D01*
X87105Y84506D01*
G01X88204Y62794D02*
Y79152D01*
G01X81790Y85568D02*
X86043D01*
X87105Y84506D01*
G01X33528Y82601D02*
Y82101D01*
G01Y98459D02*
Y102699D01*
G01Y82101D02*
Y77861D01*
G01X31365Y108376D02*
X34917Y111928D01*
X41401D01*
X42279Y111050D01*
Y109046D01*
G01X46217Y105818D02*
Y98466D01*
X49508Y95175D01*
X55390D01*
X56200Y95985D01*
Y99347D01*
G01X37354Y94412D02*
Y98889D01*
X42279Y103814D01*
Y105818D01*
G01X54231Y99347D02*
X51588D01*
X50481Y98240D01*
G01X99262Y37205D02*
Y41805D01*
G01X84445Y43921D02*
X81539D01*
G01X73304Y40461D02*
X72277Y41488D01*
Y43921D01*
G01X66247Y114225D02*
X67823D01*
G01X66247D02*
X62625Y117847D01*
G01X38320Y144732D02*
X40981Y142071D01*
Y115518D01*
G01X117060Y23036D02*
Y26596D01*
X115900Y27756D01*
X112648D01*
G01Y29725D02*
X116081D01*
X117060Y30704D01*
Y32708D01*
G01Y19808D02*
X121426D01*
X124551Y22933D01*
G01Y32933D02*
X121548Y35936D01*
X117060D01*
G01X116019Y52260D02*
Y57687D01*
G01D02*
Y63114D01*
G01X110592Y57687D02*
X116019D01*
G01D02*
X121446D01*
G54D17*
X28301Y111180D03*
X23301D03*
X18301D03*
X13301D03*
Y142676D03*
X18301D03*
X23301D03*
X28301D03*
G54D26*
X81998Y27008D03*
X47982D03*
G54D36*
G01X48326Y73757D02*
X52566D01*
G01X73916Y65883D02*
Y70123D01*
G01X62105Y99347D02*
Y94090D01*
G01X77988Y91473D02*
X76694Y90179D01*
G01X81790Y91473D02*
X77988D01*
G01X74910Y59950D02*
X75885Y60925D01*
Y65883D01*
G01X42024Y73368D02*
X43992D01*
X45572Y71788D01*
X48326D01*
G01X56893Y105818D02*
X60137Y102574D01*
Y99347D01*
G01X81790Y93442D02*
X86043D01*
X87102Y92383D01*
G01X81790Y93442D02*
X76001D01*
X75140Y92581D01*
X72762D01*
G54D27*
X77588Y29567D03*
X74439D03*
X55541D03*
X52392D03*
G54D18*
X23291Y52849D03*
X17385D03*
X46217Y119458D03*
Y113552D03*
G54D37*
G01X28066Y14887D02*
Y12005D01*
G01X24128Y14887D02*
Y12005D01*
G01X20190Y14887D02*
Y12005D01*
G01X16252Y14887D02*
Y12005D01*
G01X26159Y32053D02*
X23584D01*
G01X28935Y34829D02*
X26159Y32053D01*
G01X19951Y44574D02*
X22833D01*
G01X19951Y40636D02*
X22833D01*
G01X19951Y36698D02*
X22833D01*
G01X28301Y111180D02*
Y116011D01*
G01X23301Y111180D02*
Y116011D01*
G01X47982Y27008D02*
Y32823D01*
G01X81998Y27008D02*
Y32823D01*
G01Y10551D02*
X77758D01*
G01X81998D02*
X86238D01*
G01X47982D02*
X52222D01*
G01X47982D02*
X43742D01*
G01X32004Y14887D02*
Y12005D01*
G01X51392Y32823D02*
X47982D01*
G01X52392Y29567D02*
Y31823D01*
G01X78974Y32823D02*
X81998D01*
G01X77588Y29567D02*
Y31437D01*
G01X78651Y34992D02*
X79191Y35532D01*
G01X77588Y31437D02*
X78974Y32823D01*
G01X52392Y31823D02*
X51392Y32823D01*
G01X99262Y45033D02*
X96380D01*
G01X86233Y36772D02*
X83351D01*
G01X86233Y40710D02*
Y36772D01*
G01X48674Y59920D02*
Y57038D01*
G01X38796Y73368D02*
Y70486D01*
G01Y77306D02*
Y73368D01*
G01X63856Y105841D02*
X66400D01*
G01X90361Y96334D02*
X93243D01*
G01X90330Y92383D02*
X93212D01*
G01X90333Y84506D02*
X93215D01*
G01X54093Y109046D02*
Y111928D01*
G01X50155Y109046D02*
Y111928D01*
G01X68093Y55037D02*
X67425D01*
G01X82000Y59973D02*
Y62835D01*
G01X69282Y105826D02*
X66415D01*
G01X75742Y34992D02*
X78651D01*
G01X38339Y109047D02*
X35457D01*
G01X51902Y59920D02*
X54784D01*
G01X42056Y82101D02*
X38898D01*
G01X78772Y59973D02*
Y62657D01*
G01X74910Y59950D02*
X78749D01*
X78772Y59973D01*
G01X42024Y73368D02*
Y70452D01*
X42218Y70258D01*
G01X54093Y105818D02*
X56893D01*
G01X50155D02*
Y102936D01*
G01X52903Y52524D02*
Y51022D01*
X53903Y50022D01*
X59859D01*
G01Y55022D02*
X53903D01*
X52903Y54022D01*
Y52524D01*
G01X87102Y92383D02*
Y88445D01*
G01X43225Y59920D02*
Y56974D01*
G01X89461Y40710D02*
Y36772D01*
G01X38320Y147960D02*
X35438D01*
G01X62625Y117847D02*
X62231D01*
G54D19*
X103199Y27756D03*
G54D28*
X71880Y29567D03*
X69911D03*
X67943D03*
X65974D03*
X64006D03*
X62037D03*
X60069D03*
X58100D03*
G54D38*
G01X89461Y36772D02*
Y36410D01*
X86233Y33182D01*
Y32834D01*
G54D29*
X81790Y93442D03*
Y91473D03*
Y89505D03*
Y87536D03*
Y85568D03*
Y83599D03*
Y81631D03*
Y79662D03*
Y77694D03*
Y75725D03*
Y73757D03*
Y71788D03*
X48326D03*
Y73757D03*
Y75725D03*
Y77694D03*
Y79662D03*
Y81631D03*
Y83599D03*
Y85568D03*
Y87536D03*
Y89505D03*
Y91473D03*
Y93442D03*
G54D39*
G01X55541Y29567D02*
Y31921D01*
X54823Y32639D01*
Y32644D01*
X51618Y35849D01*
X45033D01*
X42444Y33260D01*
Y29918D01*
G01X52718Y38477D02*
X56203Y34992D01*
G01X50188Y38477D02*
X52718D01*
M02*
