G04 ================== begin FILE IDENTIFICATION RECORD ==================*
G04 Layout Name:  G:/project_development/GitHub/HFPLink/PCB/V1.2/hfplink.brd*
G04 Film Name:    BOTTOM*
G04 File Format:  Gerber RS274X*
G04 File Origin:  Cadence Allegro 16.6-2015-S066*
G04 Origin Date:  Sat Feb 18 18:36:33 2023*
G04 *
G04 Layer:  VIA CLASS/BOTTOM*
G04 Layer:  PIN/BOTTOM*
G04 Layer:  ETCH/BOTTOM*
G04 Layer:  BOARD GEOMETRY/OUTLINE*
G04 *
G04 Offset:    (0.00 0.00)*
G04 Mirror:    No*
G04 Mode:      Positive*
G04 Rotation:  0*
G04 FullContactRelief:  No*
G04 UndefLineWidth:     0.01*
G04 ================== end FILE IDENTIFICATION RECORD ====================*
%FSLAX55Y55*MOIN*%
%IR0*IPPOS*OFA0.00000B0.00000*MIA0B0*SFA1.00000B1.00000*%
%ADD10C,.02756*%
%ADD11C,.02795*%
%ADD14C,.06299*%
%ADD15R,.06299X.06299*%
%ADD12O,.04724X.07087*%
%ADD13O,.04724X.07874*%
%ADD16C,.01*%
%ADD17C,.006*%
%ADD20C,.07302*%
%ADD19C,.0376*%
%ADD22C,.03798*%
%ADD21R,.07302X.07302*%
%ADD18O,.05726X.08876*%
G75*
%LPD*%
G75*
G36*
G01X100366Y2004D02*
G02X100084Y2687I1J400D01*
G01X100756Y3359D01*
Y52111D01*
X97161Y55706D01*
X84474D01*
X76972Y63209D01*
Y103922D01*
X75417Y105477D01*
X69193Y111702D01*
X33473D01*
X33235Y111939D01*
X16034Y94739D01*
Y5811D01*
X19159Y2687D01*
G02X18877Y2004I-283J-283D01*
G01X4000D01*
G02X2004Y4000I0J1996D01*
G01Y131000D01*
G02X4000Y132996I1996J0D01*
G01X116000D01*
G02X117996Y131000I0J-1996D01*
G01Y4000D01*
G02X116000Y2004I-1996J0D01*
G01X100366D01*
G37*
G36*
G01X20406Y2149D02*
X16536Y6019D01*
Y94531D01*
X33205Y111200D01*
X68985D01*
X75062Y105122D01*
X76470Y103714D01*
Y63001D01*
X84266Y55205D01*
X96953D01*
X100255Y51903D01*
Y3567D01*
X98837Y2149D01*
X20406D01*
G37*
%LPC*%
G75*
G36*
G01X46244Y9310D02*
G02X40518I-2863J0D01*
G01Y11674D01*
G02X46244I2863J0D01*
G01Y9310D01*
G37*
G36*
G01X80260D02*
G02X74534I-2863J0D01*
G01Y11674D01*
G02X80260I2863J0D01*
G01Y9310D01*
G37*
G36*
G01X36355Y106832D02*
X36253Y106849D01*
X34706Y105303D01*
Y85681D01*
X47478Y72910D01*
X47580Y72927D01*
G02X46044Y71391I317J-1853D01*
G01X46061Y71493D01*
X32704Y84851D01*
Y106133D01*
X34836Y108266D01*
X34819Y108368D01*
G02X36355Y106832I1853J317D01*
G37*
G36*
G01X33467Y64510D02*
X32619Y65358D01*
X32517Y65341D01*
G02X34053Y66877I-317J1853D01*
G01X34036Y66775D01*
X34297Y66514D01*
X36171D01*
X46442Y56243D01*
Y55379D01*
G03X47027Y55024I400J0D01*
G02Y51692I870J-1666D01*
G03X46442Y51337I-185J-355D01*
G01Y42974D01*
G02X44438I-1002J-1591D01*
G01Y55413D01*
X35341Y64510D01*
X33467D01*
G37*
G36*
G01X75465Y34362D02*
G03X75706Y34900I-126J380D01*
G02X78026Y33857I1728J741D01*
G03X77785Y33319I126J-380D01*
G02X77791Y31852I-1728J-741D01*
G03X78066Y31308I369J-155D01*
G02X80260Y28524I-669J-2784D01*
G01Y25374D01*
G02X74534I-2863J0D01*
G01Y28524D01*
G02X75200Y30361I2863J1D01*
G03X75097Y30961I-307J256D01*
G02X75465Y34362I960J1617D01*
G37*
G36*
G01X50228Y90791D02*
G02Y92687I-1624J948D01*
G03X50918I345J201D01*
G02Y90791I1624J-948D01*
G03X50228I-345J-201D01*
G37*
G36*
G01X32460Y58237D02*
G02X30564I-948J-1624D01*
G03Y58927I-201J345D01*
G02X32460I948J1624D01*
G03Y58237I201J-345D01*
G37*
G36*
G01X29069Y20284D02*
G02X27173I-948J-1624D01*
G03Y20974I-201J345D01*
G02Y24222I948J1624D01*
G03Y24912I-201J345D01*
G02X29069I948J1624D01*
G03Y24222I201J-345D01*
G02Y20974I-948J-1624D01*
G03Y20284I201J-345D01*
G37*
G54D20*
X94817Y36579D03*
Y26579D03*
Y16579D03*
G54D19*
X47791Y33945D03*
X30428Y8345D03*
X32450Y13853D03*
X32000Y34805D03*
X72885Y67851D03*
X40335Y95618D03*
X45664Y104747D03*
X62850Y87570D03*
X69975Y50583D03*
X57436Y74188D03*
X53866Y97676D03*
G54D22*
X71806Y24862D03*
X48972D03*
G54D21*
X94817Y6579D03*
G54D18*
X43381Y26949D03*
%LPD*%
G75*
G54D10*
X4684Y24005D03*
Y14005D03*
Y4005D03*
X18064Y13853D03*
X4684Y104005D03*
Y94005D03*
Y84005D03*
Y74005D03*
Y64005D03*
Y54005D03*
Y44005D03*
Y34005D03*
X13512Y66180D03*
X18512D03*
X11459Y117603D03*
X30428Y8345D03*
X32450Y13853D03*
X28121Y22598D03*
Y18660D03*
X19129Y22598D03*
Y18660D03*
X91105Y74920D03*
Y70982D03*
Y67044D03*
X87397Y88452D03*
X95275D03*
X53866Y97676D03*
X57436Y74188D03*
X52542Y91739D03*
X48604D03*
X69975Y50583D03*
X31512Y60551D03*
Y56613D03*
X47897Y53358D03*
X62850Y87570D03*
X40335Y95618D03*
X72885Y67851D03*
X77434Y35641D03*
X47791Y33945D03*
X76057Y32578D03*
X32000Y34805D03*
X28121Y26536D03*
X87393Y53512D03*
X95271D03*
X77339Y39475D03*
X37622Y49793D03*
X36508Y67769D03*
X53499Y74188D03*
X33427Y42016D03*
X21459Y86107D03*
X26459D03*
X19129Y30474D03*
Y26536D03*
X71738Y72542D03*
X47897Y71074D03*
X32200Y67194D03*
X45440Y41383D03*
X45664Y104747D03*
X58952Y104606D03*
X66830D03*
X36672Y104747D03*
X45664Y108685D03*
X36672D03*
X105684Y24005D03*
Y14005D03*
Y4005D03*
X115684Y24005D03*
Y14005D03*
Y4005D03*
X105684Y104005D03*
Y94005D03*
Y74005D03*
Y64005D03*
Y54005D03*
Y44005D03*
Y34005D03*
X115684Y104005D03*
Y94005D03*
Y84005D03*
Y74005D03*
Y64005D03*
Y54005D03*
Y44005D03*
Y34005D03*
G54D11*
X71806Y24862D03*
X48972D03*
G54D12*
X77397Y10492D03*
X43381D03*
G54D13*
X77397Y26949D03*
X43381D03*
G54D14*
X94817Y16579D03*
Y36579D03*
Y26579D03*
G54D15*
Y6579D03*
G54D16*
G01Y2727D02*
Y6579D01*
G01D02*
Y10431D01*
G01X90965Y6579D02*
X94817D01*
G01D02*
X98669D01*
G01X36672Y108685D02*
X33705Y105718D01*
Y85266D01*
X47897Y71074D01*
G01X32200Y67194D02*
X33882Y65512D01*
X35756D01*
X45440Y55828D01*
Y41383D01*
G54D17*
G01X4000Y0D02*
X116000D01*
G03X120000Y4000I0J4000D01*
G01Y131000D01*
G03X116000Y135000I-4000J0D01*
G01X4000D01*
G03X0Y131000I0J-4000D01*
G01Y4000D01*
G03X4000Y0I4000J0D01*
M02*
