M48
INCH,LZ
T01C.012
T02C.02756
T03C.03937
;LEADER: 12 
;HEADER: 
;CODE  : ASCII 
;FILE  : hfplink-1-2.drl for board #Taaaaar12924.tmp ... layers TOP and BOTTOM
;T01 Holesize 1. = 12.000000 Tolerance = +0.000000/-0.000000 PLATED MILS Quantity = 84
;T02 Holesize 2. = 27.560000 Tolerance = +0.000000/-0.000000 PLATED MILS Quantity = 2
;T03 Holesize 3. = 39.370000 Tolerance = +0.000000/-0.000000 PLATED MILS Quantity = 4
%
G90
T01
X000468Y0004
X001806Y001385
X000468Y0014
X001913Y001866
X001913Y00226
X000468Y0024
X001913Y002654
X001913Y003047
X000468Y0034
X000468Y0044
X000468Y0054
X000468Y0064
X001351Y006618
X001851Y006618
X000468Y0074
X000468Y0084
X000468Y0094
X000468Y0104
X001146Y01176
X003667Y010868
X003667Y010475
X002646Y008611
X002146Y008611
X003651Y006777
X00322Y006719
X003151Y006055
X003151Y005661
X003762Y004979
X003343Y004202
X0032Y00348
X002812Y002654
X002812Y00226
X002812Y001866
X003245Y001385
X003043Y000834
X004779Y003394
X004544Y004138
X00479Y005336
X00479Y007107
X00535Y007419
X005744Y007419
X00486Y009174
X005254Y009174
X004034Y009562
X005387Y009768
X005895Y010461
X004566Y010475
X004566Y010868
X006683Y010461
X006285Y008757
X007174Y007254
X007288Y006785
X006998Y005058
X007734Y003947
X007743Y003564
X007606Y003258
X008739Y005351
X009527Y005351
X00911Y006704
X00911Y007098
X00911Y007492
X00874Y008845
X009528Y008845
X011568Y0104
X010568Y0104
X011568Y0094
X010568Y0094
X011568Y0084
X011568Y0074
X010568Y0074
X011568Y0064
X010568Y0064
X011568Y0054
X010568Y0054
X011568Y0044
X010568Y0044
X011568Y0034
X010568Y0034
X011568Y0024
X010568Y0024
X011568Y0014
X010568Y0014
X011568Y0004
X010568Y0004
T02
X004897Y002486
X007181Y002486
T03
X009482Y000658
X009482Y001658
X009482Y002658
X009482Y003658
M30
