G04 ================== begin FILE IDENTIFICATION RECORD ==================*
G04 Layout Name:  G:/project_development/GitHub/HFPLink/PCB/V1.2/hfplink.brd*
G04 Film Name:    SOLDTOP*
G04 File Format:  Gerber RS274X*
G04 File Origin:  Cadence Allegro 16.6-2015-S066*
G04 Origin Date:  Sat Feb 18 18:36:33 2023*
G04 *
G04 Layer:  VIA CLASS/SOLDERMASK_TOP*
G04 Layer:  PIN/SOLDERMASK_TOP*
G04 Layer:  PACKAGE GEOMETRY/SOLDERMASK_TOP*
G04 Layer:  BOARD GEOMETRY/SOLDERMASK_TOP*
G04 Layer:  BOARD GEOMETRY/OUTLINE*
G04 *
G04 Offset:    (0.00 0.00)*
G04 Mirror:    No*
G04 Mode:      Positive*
G04 Rotation:  0*
G04 FullContactRelief:  No*
G04 UndefLineWidth:     0.01*
G04 ================== end FILE IDENTIFICATION RECORD ====================*
%FSLAX55Y55*MOIN*%
%IR0*IPPOS*OFA0.00000B0.00000*MIA0B0*SFA1.00000B1.00000*%
%ADD18R,.02402X.02402*%
%ADD25R,.03543X.03543*%
%ADD12C,.02795*%
%ADD15C,.06693*%
%ADD16R,.06693X.06693*%
%ADD17R,.03543X.04331*%
%ADD22R,.01575X.05512*%
%ADD21R,.02756X.05512*%
%ADD20R,.01575X.05118*%
%ADD19R,.05118X.01575*%
%ADD23R,.05118X.02953*%
%ADD24R,.05906X.05118*%
%ADD13O,.04724X.07087*%
%ADD11R,.02362X.06299*%
%ADD10R,.02874X.09252*%
%ADD14O,.04724X.07874*%
%ADD26C,.006*%
G75*
%LPD*%
G75*
G54D10*
X13512Y44691D03*
Y72487D03*
X28512Y44691D03*
X23512D03*
X18512D03*
Y72487D03*
X23512D03*
X28512D03*
G54D11*
X16459Y90938D03*
X11459D03*
Y122434D03*
X16459D03*
X26459Y90938D03*
X21459D03*
Y122434D03*
X26459D03*
G54D20*
X71216Y45484D03*
X69247D03*
X67279D03*
X65310D03*
X63342D03*
X61373D03*
X59405D03*
X57436D03*
X55468D03*
X53499D03*
X51531D03*
X49562D03*
Y78948D03*
X51531D03*
X53499D03*
X55468D03*
X57436D03*
X59405D03*
X61373D03*
X63342D03*
X65310D03*
X67279D03*
X69247D03*
X71216D03*
G54D21*
X72987Y29508D03*
X69838D03*
X50940D03*
X47791D03*
G54D12*
X71806Y24862D03*
X48972D03*
G54D13*
X77397Y10492D03*
X43381D03*
G54D22*
X67279Y29508D03*
X65310D03*
X63342D03*
X61373D03*
X59405D03*
X57436D03*
X55468D03*
X53499D03*
G54D14*
X77397Y26949D03*
X43381D03*
G54D23*
X83157Y88452D03*
Y79924D03*
X83153Y53512D03*
Y62040D03*
X71070Y104606D03*
X54712D03*
X71070Y113134D03*
X54712D03*
X99515Y88452D03*
Y79924D03*
X99511Y53512D03*
Y62040D03*
G54D24*
X67162Y90984D03*
X58500D03*
Y97676D03*
X67162D03*
G54D15*
X94817Y16579D03*
Y36579D03*
Y26579D03*
G54D16*
Y6579D03*
G54D25*
X28547Y34805D03*
X22641D03*
X40335Y92165D03*
Y86259D03*
G54D26*
G01X4000Y0D02*
X116000D01*
G03X120000Y4000I0J4000D01*
G01Y131000D01*
G03X116000Y135000I-4000J0D01*
G01X4000D01*
G03X0Y131000I0J-4000D01*
G01Y4000D01*
G03X4000Y0I4000J0D01*
G54D17*
X25257Y4405D03*
X21517Y13853D03*
X28997D03*
G54D18*
X33310Y8345D03*
Y5117D03*
X25239Y18660D03*
X22011D03*
X25239Y22598D03*
X22011D03*
X48604Y88857D03*
Y85629D03*
X84995Y70982D03*
X88223D03*
Y74920D03*
X84995D03*
X37622Y52675D03*
X34394D03*
Y60551D03*
X37622D03*
X74457Y39475D03*
Y36247D03*
X25239Y26536D03*
X22011D03*
X65537Y85654D03*
X68765D03*
X60118Y85668D03*
X56890D03*
X52542Y85629D03*
Y88857D03*
X70507Y35496D03*
X67279D03*
X34394Y56613D03*
X37622D03*
X34394Y64489D03*
X37622D03*
X88223Y67044D03*
X84995D03*
X44666Y85629D03*
Y88857D03*
X25239Y30474D03*
X22011D03*
X36004Y88857D03*
Y85629D03*
X70507Y39434D03*
X67279D03*
X55468Y35496D03*
X52240D03*
X42782Y104747D03*
X39554D03*
Y108685D03*
X42782D03*
G54D19*
X77121Y73043D03*
Y71074D03*
Y69106D03*
Y67137D03*
Y65169D03*
Y63200D03*
Y61232D03*
Y59263D03*
Y57295D03*
Y55326D03*
Y53358D03*
Y51389D03*
X43657D03*
Y53358D03*
Y55326D03*
Y57295D03*
Y59263D03*
Y61232D03*
Y63200D03*
Y65169D03*
Y67137D03*
Y69106D03*
Y71074D03*
Y73043D03*
M02*
