G04 ================== begin FILE IDENTIFICATION RECORD ==================*
G04 Layout Name:  G:/project_development/GitHub/HFPLink/PCB/V1.2/hfplink.brd*
G04 Film Name:    TOP*
G04 File Format:  Gerber RS274X*
G04 File Origin:  Cadence Allegro 16.6-2015-S066*
G04 Origin Date:  Sat Feb 18 18:36:33 2023*
G04 *
G04 Layer:  VIA CLASS/TOP*
G04 Layer:  PIN/TOP*
G04 Layer:  ETCH/TOP*
G04 Layer:  BOARD GEOMETRY/OUTLINE*
G04 *
G04 Offset:    (0.00 0.00)*
G04 Mirror:    No*
G04 Mode:      Positive*
G04 Rotation:  0*
G04 FullContactRelief:  No*
G04 UndefLineWidth:     0.01*
G04 ================== end FILE IDENTIFICATION RECORD ====================*
%FSLAX55Y55*MOIN*%
%IR0*IPPOS*OFA0.00000B0.00000*MIA0B0*SFA1.00000B1.00000*%
%ADD26R,.0315X.0315*%
%ADD19R,.02008X.02008*%
%ADD10C,.02756*%
%ADD13C,.02795*%
%ADD16C,.06299*%
%ADD17R,.06299X.06299*%
%ADD23R,.01181X.05118*%
%ADD22R,.02362X.05118*%
%ADD21R,.01181X.04724*%
%ADD20R,.04724X.01181*%
%ADD25R,.05512X.04724*%
%ADD18R,.0315X.03937*%
%ADD14O,.04724X.07087*%
%ADD24R,.04724X.02559*%
%ADD15O,.04724X.07874*%
%ADD11R,.0248X.08858*%
%ADD12R,.01969X.05906*%
%ADD27C,.01*%
%ADD28C,.02*%
%ADD29C,.012*%
%ADD30C,.03*%
%ADD31C,.015*%
%ADD32C,.025*%
%ADD33C,.018*%
%ADD34C,.006*%
%ADD35C,.008*%
%ADD37C,.07302*%
%ADD36R,.07302X.07302*%
%ADD38O,.05726X.08876*%
G75*
%LPD*%
G75*
G36*
G01X86016Y51731D02*
Y51760D01*
X86709D01*
X86743Y51748D01*
G03Y55276I650J1764D01*
G01X86709Y55264D01*
X86016D01*
Y55293D01*
X79984D01*
Y60259D01*
X86016D01*
Y61038D01*
X96648D01*
Y60259D01*
X102374D01*
Y63821D01*
X96648D01*
Y63042D01*
X86016D01*
Y63821D01*
X85996D01*
Y65538D01*
X86500D01*
Y68550D01*
X83490D01*
Y68046D01*
X81943D01*
X80667Y66770D01*
G02X79984Y67052I-283J283D01*
G01Y70198D01*
X74258D01*
Y52046D01*
G02X73575Y51764I-400J1D01*
G01X71262Y54076D01*
X68072D01*
X66278Y52282D01*
Y48348D01*
X54451D01*
X52952Y49848D01*
X48141D01*
X45701Y47408D01*
X37461D01*
X37147Y47721D01*
X37354Y47930D01*
X37448Y47921D01*
G03X39493Y49973I174J1872D01*
G02X40174Y50294I398J38D01*
G01X40181Y50288D01*
X43658D01*
G03X43790Y50296I0J1101D01*
G01X43802Y50297D01*
X46520D01*
Y52481D01*
X43802D01*
X43790Y52482D01*
G03X43658Y52490I-132J-1093D01*
G01X41093D01*
X39807Y53776D01*
X39128D01*
Y54180D01*
X36116D01*
Y50919D01*
G03X35756Y50025I1506J-1126D01*
G02X35077Y49792I-397J50D01*
G01X30992Y53876D01*
X25057D01*
X24514Y54420D01*
Y67556D01*
X25254D01*
Y77532D01*
X26770D01*
Y67556D01*
X27510D01*
Y66643D01*
X27614Y66539D01*
Y66350D01*
X30477Y63488D01*
X32888D01*
Y62983D01*
X36120D01*
Y62056D01*
X36116D01*
Y59046D01*
X37673D01*
G02X37955Y58363I-1J-400D01*
G01X37711Y58118D01*
X36116D01*
Y55108D01*
X39128D01*
Y56702D01*
X40111Y57685D01*
G02X40794Y57403I283J-283D01*
G01Y54234D01*
X46520D01*
Y66136D01*
X48308D01*
X51386Y69213D01*
Y72414D01*
X47647Y76152D01*
X38372D01*
X30646Y83879D01*
Y98403D01*
X22460Y106588D01*
Y118980D01*
X22945D01*
Y125888D01*
X19973D01*
Y118980D01*
X20458D01*
Y105758D01*
X28642Y97573D01*
Y86535D01*
X28296D01*
X28251Y86675D01*
G03X27960Y87238I-1791J-569D01*
G01Y90938D01*
G03X27947Y91140I-1501J5D01*
G01X27945Y91154D01*
Y94392D01*
X24973D01*
Y91154D01*
X24971Y91140D01*
G03X24958Y90938I1488J-197D01*
G01Y87238D01*
G03X27930Y84936I1501J-1131D01*
G02X28642Y84687I312J-250D01*
G01Y83049D01*
G02X28354Y82372I-289J-277D01*
G01X22488D01*
X21312Y83548D01*
G02X21571Y84230I283J283D01*
G03X22960Y87238I-112J1877D01*
G01Y93528D01*
X22945Y93543D01*
Y94392D01*
X22096D01*
X17960Y98528D01*
Y122434D01*
G03X17947Y122636I-1501J5D01*
G01X17945Y122650D01*
Y125888D01*
X14973D01*
Y122650D01*
X14971Y122636D01*
G03X14958Y122434I1488J-197D01*
G01Y97284D01*
X17166Y95075D01*
G02X16884Y94392I-283J-283D01*
G01X14973D01*
Y87838D01*
G02X14290Y87555I-400J0D01*
G01X12945Y88900D01*
Y94392D01*
X9973D01*
Y87484D01*
X11529D01*
X21480Y77532D01*
X21770D01*
Y67556D01*
X22510D01*
Y53590D01*
X23734Y52366D01*
G02X23452Y51684I-283J-282D01*
G01X20899D01*
X18837Y49622D01*
X16770D01*
Y40625D01*
G02X16088Y40343I-400J1D01*
G01X15254Y41177D01*
Y49622D01*
X11770D01*
Y39760D01*
X13837D01*
X17219Y36378D01*
X20564D01*
Y32728D01*
X23301D01*
X23367Y32663D01*
G02X23084Y31980I-283J-283D01*
G01X20254D01*
G03X18181Y28850I-1125J-1507D01*
G02Y28160I-201J-345D01*
G03Y24912I948J-1624D01*
G02Y24222I-201J-345D01*
G03Y20974I948J-1624D01*
G02Y20284I-201J-345D01*
G03X20255Y17154I948J-1624D01*
G01X23516D01*
Y20166D01*
X20255D01*
G03X20077Y20284I-1126J-1506D01*
G02Y20974I201J345D01*
G03X20255Y21092I-948J1624D01*
G01X23516D01*
Y24104D01*
X20255D01*
G03X20077Y24222I-1126J-1506D01*
G02Y24912I201J345D01*
G03X20255Y25030I-948J1624D01*
G01X23516D01*
Y28042D01*
X20255D01*
G03X20077Y28160I-1126J-1506D01*
G02Y28850I201J345D01*
G03X20254Y28968I-953J1621D01*
G01X26745D01*
Y31980D01*
X26240D01*
Y32622D01*
X24717Y34145D01*
Y36378D01*
X51116D01*
X51236Y36498D01*
X51261D01*
X56470Y41707D01*
Y42620D01*
X62440D01*
Y41087D01*
X57656Y36303D01*
G02X56974Y36586I-282J283D01*
G01Y37002D01*
X53962D01*
Y33990D01*
X54466D01*
Y32569D01*
X52406D01*
Y32568D01*
X49258D01*
Y27158D01*
G02X48877Y26759I-400J1D01*
G03X50772Y24257I95J-1897D01*
G02X51434Y24412I379J-128D01*
G01X52496Y23349D01*
Y10283D01*
X48732Y6518D01*
X45601D01*
G02X45329Y7212I0J400D01*
G03X46244Y9310I-1948J2098D01*
G01Y11674D01*
G03X40518I-2863J0D01*
G01Y9310D01*
G03X41433Y7212I2863J0D01*
G02X41161Y6518I-272J-294D01*
G01X34816D01*
Y6622D01*
X31804D01*
Y6618D01*
X28422D01*
X27710Y5906D01*
X27334D01*
Y6875D01*
X23180D01*
Y2004D01*
X4000D01*
G02X2004Y4000I0J1996D01*
G01Y131000D01*
G02X4000Y132996I1996J0D01*
G01X116000D01*
G02X117996Y131000I0J-1996D01*
G01Y4000D01*
G02X116000Y2004I-1996J0D01*
G01X27334D01*
Y2904D01*
X28954D01*
X29666Y3616D01*
X31804D01*
Y3612D01*
X34816D01*
Y3716D01*
X49894D01*
X55300Y9121D01*
Y22528D01*
X67413D01*
X69332Y24448D01*
G02X69996Y24287I283J-283D01*
G03X71901Y26759I1810J575D01*
G02X71520Y27158I19J400D01*
G01Y32568D01*
X68372D01*
Y32569D01*
X68280D01*
Y33990D01*
X68784D01*
Y37002D01*
X67087D01*
G02X66804Y37684I0J400D01*
G01X67048Y37928D01*
X72013D01*
Y37932D01*
X75038D01*
X75075Y37970D01*
X76213D01*
G03Y40980I1126J1505D01*
G01X74509D01*
X72318Y43172D01*
Y45484D01*
G03X72310Y45613I-1102J-4D01*
G01X72308Y45625D01*
Y48348D01*
X70124D01*
Y45625D01*
X70122Y45613D01*
G03X70114Y45484I1094J-133D01*
G01Y42260D01*
X70751Y41623D01*
G02X70469Y40940I-282J-283D01*
G01X67048D01*
X66212Y41776D01*
Y42620D01*
X68372D01*
Y48348D01*
X68280D01*
Y51452D01*
X68902Y52074D01*
X70432D01*
X85960Y36546D01*
Y24020D01*
X91624Y18356D01*
X91559Y18226D01*
G03X93170Y19837I3258J-1647D01*
G01X93040Y19772D01*
X87962Y24850D01*
Y31052D01*
G02X88645Y31334I400J-1D01*
G01X91624Y28355D01*
X91559Y28226D01*
G03X93043Y29770I3258J-1647D01*
G01X90054Y32759D01*
Y41644D01*
X80649Y51048D01*
G02X80932Y51731I283J283D01*
G01X86016D01*
G37*
%LPC*%
G75*
G36*
G01X86500Y69476D02*
X83490D01*
Y70930D01*
X82478Y71942D01*
X73524D01*
X73473Y71818D01*
G02X70039Y73347I-1735J724D01*
G03X69678Y73918I-361J171D01*
G01X60048D01*
X58404Y75563D01*
Y76084D01*
X58312D01*
Y81812D01*
X59972D01*
G03X60113Y82153I0J200D01*
G01X60002Y82264D01*
X58000D01*
X57252Y83012D01*
G03X56570Y82730I-282J-283D01*
G01Y75701D01*
X55357Y74489D01*
X55368Y74393D01*
G02X52080Y75422I-1869J-205D01*
G03X51778Y76084I-302J262D01*
G01X48470D01*
Y77946D01*
X42270D01*
X36093Y84124D01*
X34498D01*
Y90362D01*
X35002D01*
Y96572D01*
X38511Y100080D01*
X45744D01*
X48380Y102716D01*
Y111580D01*
X50935Y114136D01*
X51848D01*
Y114915D01*
X57576D01*
Y114136D01*
X68206D01*
Y114915D01*
X73934D01*
Y111353D01*
X68206D01*
Y112132D01*
X57576D01*
Y111353D01*
X51835D01*
G03X51166Y111533I-386J-103D01*
G01X50382Y110750D01*
Y101886D01*
X46574Y98078D01*
X39341D01*
X37006Y95742D01*
Y90362D01*
X37510D01*
Y85540D01*
X37576Y85474D01*
G03X38258Y85756I282J283D01*
G01Y88336D01*
X40995D01*
X42518Y89858D01*
X43160D01*
Y90362D01*
X46172D01*
Y84124D01*
X46067D01*
G03X45925Y83782I-1J-200D01*
G01X46396Y83312D01*
X50983D01*
X52154Y82140D01*
Y82102D01*
X52444Y81812D01*
X54366D01*
Y82247D01*
X52490Y84124D01*
X51036D01*
Y84128D01*
X50110D01*
Y84124D01*
X47098D01*
Y87134D01*
X50110D01*
Y87130D01*
X51036D01*
Y87134D01*
X54048D01*
Y85681D01*
X54702Y85027D01*
G03X55384Y85310I282J283D01*
G01Y87174D01*
X55888D01*
Y88120D01*
X55242D01*
Y93848D01*
X61758D01*
Y88120D01*
X57892D01*
Y87174D01*
X58396D01*
Y84702D01*
X58830Y84268D01*
X60832D01*
X62358Y82742D01*
X63861Y84246D01*
X67168D01*
X67260Y84337D01*
Y87160D01*
X68854D01*
X70746Y89051D01*
Y93070D01*
X69003Y94812D01*
X63904D01*
Y100540D01*
X70420D01*
Y96229D01*
X72748Y93900D01*
Y88221D01*
X70270Y85743D01*
Y84148D01*
X69766D01*
Y84011D01*
X67998Y82242D01*
X64691D01*
X64602Y82153D01*
G03X64743Y81812I141J-141D01*
G01X72308D01*
Y75922D01*
X83490D01*
Y76426D01*
X85084D01*
X85198Y76539D01*
Y78143D01*
X80294D01*
Y81705D01*
X86020D01*
Y80926D01*
X96652D01*
Y81705D01*
X102378D01*
Y78143D01*
X96652D01*
Y78922D01*
X87200D01*
Y75709D01*
X86500Y75009D01*
Y73414D01*
X85086D01*
G03X84803Y72732I0J-400D01*
G01X85047Y72488D01*
X86500D01*
Y69476D01*
G37*
G36*
G01X37798Y103242D02*
G02X35724Y106371I-1126J1505D01*
G03Y107061I-201J345D01*
G02X37748Y110227I948J1624D01*
G01X37799Y110191D01*
X38552D01*
Y112023D01*
X29143Y121432D01*
X27945D01*
Y118980D01*
X24973D01*
Y125888D01*
X27945D01*
Y123436D01*
X29973D01*
X40556Y112853D01*
Y110191D01*
X44539D01*
G02Y107179I1125J-1506D01*
G01X37797D01*
G02X37620Y107061I-1130J1503D01*
G03Y106371I201J-345D01*
G02X37798Y106252I-954J-1620D01*
G01X41060D01*
Y103242D01*
X37798D01*
G37*
G36*
G01X23594Y16323D02*
Y11383D01*
X19440D01*
Y11852D01*
X18064D01*
G02Y15854I0J2001D01*
G01X19440D01*
Y16323D01*
X23594D01*
G37*
G36*
G01X96648Y51760D02*
X95955D01*
X95922Y51748D01*
G02Y55276I-651J1764D01*
G01X95955Y55264D01*
X96648D01*
Y55293D01*
X102374D01*
Y51731D01*
X96648D01*
Y51760D01*
G37*
G36*
G01X20264Y72487D02*
Y66864D01*
X20276Y66831D01*
G02X16748I-1764J-651D01*
G01X16760Y66864D01*
Y72487D01*
G02X16769Y72664I1752J0D01*
G01X16770Y72674D01*
Y77418D01*
X20254D01*
Y72674D01*
X20255Y72664D01*
G02X20264Y72487I-1743J-177D01*
G37*
G36*
G01X57576Y106358D02*
X58268D01*
X58301Y106370D01*
G02Y102842I651J-1764D01*
G01X58268Y102854D01*
X57576D01*
Y102825D01*
X51848D01*
Y106387D01*
X57576D01*
Y106358D01*
G37*
G36*
G01X68206Y102854D02*
X67514D01*
X67481Y102842D01*
G02Y106370I-651J1764D01*
G01X67514Y106358D01*
X68206D01*
Y106387D01*
X73934D01*
Y102825D01*
X68206D01*
Y102854D01*
G37*
G36*
G01X80260Y9310D02*
G02X74534I-2863J0D01*
G01Y11674D01*
G02X80260I2863J0D01*
G01Y9310D01*
G37*
G54D37*
X94817Y36579D03*
G54D36*
Y6579D03*
G54D38*
X77397Y26949D03*
X43381D03*
%LPD*%
G75*
G54D10*
X4684Y24005D03*
Y14005D03*
Y4005D03*
X18064Y13853D03*
X4684Y104005D03*
Y94005D03*
Y84005D03*
Y74005D03*
Y64005D03*
Y54005D03*
Y44005D03*
Y34005D03*
X13512Y66180D03*
X18512D03*
X11459Y117603D03*
X30428Y8345D03*
X32450Y13853D03*
X28121Y22598D03*
Y18660D03*
X19129Y22598D03*
Y18660D03*
X91105Y74920D03*
Y70982D03*
Y67044D03*
X87397Y88452D03*
X95275D03*
X53866Y97676D03*
X57436Y74188D03*
X52542Y91739D03*
X48604D03*
X69975Y50583D03*
X31512Y60551D03*
Y56613D03*
X47897Y53358D03*
X62850Y87570D03*
X40335Y95618D03*
X72885Y67851D03*
X77434Y35641D03*
X47791Y33945D03*
X76057Y32578D03*
X32000Y34805D03*
X28121Y26536D03*
X87393Y53512D03*
X95271D03*
X77339Y39475D03*
X37622Y49793D03*
X36508Y67769D03*
X53499Y74188D03*
X33427Y42016D03*
X21459Y86107D03*
X26459D03*
X19129Y30474D03*
Y26536D03*
X71738Y72542D03*
X47897Y71074D03*
X32200Y67194D03*
X45440Y41383D03*
X45664Y104747D03*
X58952Y104606D03*
X66830D03*
X36672Y104747D03*
X45664Y108685D03*
X36672D03*
X105684Y24005D03*
Y14005D03*
Y4005D03*
X115684Y24005D03*
Y14005D03*
Y4005D03*
X105684Y104005D03*
Y94005D03*
Y74005D03*
Y64005D03*
Y54005D03*
Y44005D03*
Y34005D03*
X115684Y104005D03*
Y94005D03*
Y84005D03*
Y74005D03*
Y64005D03*
Y54005D03*
Y44005D03*
Y34005D03*
G54D11*
X13512Y44691D03*
Y72487D03*
X28512Y44691D03*
X23512D03*
X18512D03*
Y72487D03*
X23512D03*
X28512D03*
G54D20*
X77121Y73043D03*
Y71074D03*
Y69106D03*
Y67137D03*
Y65169D03*
Y63200D03*
Y61232D03*
Y59263D03*
Y57295D03*
Y55326D03*
Y53358D03*
Y51389D03*
X43657D03*
Y53358D03*
Y55326D03*
Y57295D03*
Y59263D03*
Y61232D03*
Y63200D03*
Y65169D03*
Y67137D03*
Y69106D03*
Y71074D03*
Y73043D03*
G54D30*
G01X28997Y13853D02*
X32450D01*
G01X21517D02*
X18064D01*
G01X40335Y92165D02*
Y95618D01*
G01X28547Y34805D02*
X32000D01*
G54D12*
X16459Y90938D03*
X11459D03*
Y122434D03*
X16459D03*
X26459Y90938D03*
X21459D03*
Y122434D03*
X26459D03*
G54D21*
X71216Y45484D03*
X69247D03*
X67279D03*
X65310D03*
X63342D03*
X61373D03*
X59405D03*
X57436D03*
X55468D03*
X53499D03*
X51531D03*
X49562D03*
Y78948D03*
X51531D03*
X53499D03*
X55468D03*
X57436D03*
X59405D03*
X61373D03*
X63342D03*
X65310D03*
X67279D03*
X69247D03*
X71216D03*
G54D31*
G01X47791Y33945D02*
X49342Y35496D01*
X52240D01*
G54D22*
X72987Y29508D03*
X69838D03*
X50940D03*
X47791D03*
G54D13*
X71806Y24862D03*
X48972D03*
G54D32*
G01X13512Y72487D02*
Y66180D01*
G01X83157Y88452D02*
X87397D01*
G01X99515D02*
X95275D01*
G01X47791Y29508D02*
Y33945D01*
G01X72987Y29508D02*
Y31540D01*
X74025Y32578D01*
X76057D01*
G01X83153Y53512D02*
X87393D01*
G01X99511D02*
X95271D01*
G01X18512Y72487D02*
Y66180D01*
G01X54712Y104606D02*
X58952D01*
G01X71070D02*
X66830D01*
G54D14*
X77397Y10492D03*
X43381D03*
G54D23*
X67279Y29508D03*
X65310D03*
X63342D03*
X61373D03*
X59405D03*
X57436D03*
X55468D03*
X53499D03*
G54D33*
G01X50940D02*
Y26888D01*
X53898Y23930D01*
G01D02*
Y9702D01*
X49313Y5117D01*
X33310D01*
G01X53898Y23930D02*
X66832D01*
X69838Y26936D01*
Y29508D01*
G54D15*
X77397Y26949D03*
X43381D03*
G54D24*
X83157Y88452D03*
Y79924D03*
X83153Y53512D03*
Y62040D03*
X71070Y104606D03*
X54712D03*
X71070Y113134D03*
X54712D03*
X99515Y88452D03*
Y79924D03*
X99511Y53512D03*
Y62040D03*
G54D34*
G01X4000Y0D02*
X116000D01*
G03X120000Y4000I0J4000D01*
G01Y131000D01*
G03X116000Y135000I-4000J0D01*
G01X4000D01*
G03X0Y131000I0J-4000D01*
G01Y4000D01*
G03X4000Y0I4000J0D01*
G54D25*
X67162Y90984D03*
X58500D03*
Y97676D03*
X67162D03*
G54D16*
X94817Y16579D03*
Y36579D03*
Y26579D03*
G54D35*
G01X67279Y39434D02*
X65929Y38084D01*
X62410D01*
X59405Y35079D01*
Y32389D01*
G01X67279Y39434D02*
X65310Y41403D01*
Y45484D01*
G01X59405Y32389D02*
Y29508D01*
G01X63342D02*
Y32751D01*
X62542Y33551D01*
X60567D01*
X59405Y32389D01*
G01X57436Y29508D02*
Y27003D01*
X58196Y26243D01*
X58247D01*
X58441Y26049D01*
X60369D01*
X60563Y26243D01*
X60573D01*
X61373Y27043D01*
Y29508D01*
G01X63342Y45484D02*
Y40714D01*
X58158Y35530D01*
Y33689D01*
X57436Y32967D01*
Y29508D01*
G54D17*
X94817Y6579D03*
G54D26*
X28547Y34805D03*
X22641D03*
X40335Y92165D03*
Y86259D03*
G54D27*
G01X43657Y65169D02*
X40906D01*
X39906Y66169D01*
Y68177D01*
X29549Y78534D01*
X21895D01*
X11459Y88970D01*
Y90938D01*
G01X16459D02*
Y86985D01*
X22073Y81371D01*
X28852D01*
X41117Y69106D01*
X43657D01*
G01X13512Y44691D02*
Y41502D01*
X17634Y37380D01*
X50701D01*
X50821Y37500D01*
X50846D01*
X55468Y42122D01*
Y45484D01*
G01X43381Y22310D02*
Y26949D01*
G01X77397Y22310D02*
Y26949D01*
G01X43381Y10492D02*
Y14738D01*
G01X40317Y10492D02*
X43381D01*
G01D02*
X46445D01*
G01X77397Y6246D02*
Y10492D01*
G01D02*
Y14738D01*
G01X74333Y10492D02*
X77397D01*
G01D02*
X80461D01*
G01X94817Y16579D02*
X86961Y24435D01*
Y36961D01*
X70847Y53075D01*
X68487D01*
X67279Y51867D01*
Y45484D01*
G01X72885Y67851D02*
Y70229D01*
X73730Y71074D01*
X77121D01*
G01X43381Y26949D02*
Y31588D01*
G01X40317Y26949D02*
X43381D01*
G01D02*
X46445D01*
G01X74333D02*
X77397D01*
G01D02*
X80461D01*
G01X94817Y32727D02*
Y36579D01*
G01D02*
Y40431D01*
G01X90965Y36579D02*
X94817D01*
G01D02*
X98669D01*
G01X43657Y71074D02*
X47897D01*
G01X43657Y67137D02*
X47893D01*
X50384Y69628D01*
Y71999D01*
X47232Y75151D01*
X37957D01*
X29644Y83464D01*
Y97988D01*
X21459Y106173D01*
Y122434D01*
G01X44666Y88857D02*
X42933D01*
X40335Y86259D01*
G01X28512Y72487D02*
Y67058D01*
X28616Y66954D01*
Y66765D01*
X30892Y64489D01*
X34394D01*
G01X45440Y41383D02*
X48823D01*
X49562Y42122D01*
Y45484D01*
G01X34394Y64489D02*
Y65000D01*
X32200Y67194D01*
G01X18512Y44691D02*
Y47880D01*
X21314Y50682D01*
X29614D01*
X41291Y39005D01*
X49308D01*
X51531Y41228D01*
Y45484D01*
G01X23512Y72487D02*
Y54005D01*
X24642Y52875D01*
X30577D01*
X37046Y46406D01*
X46116D01*
X48556Y48846D01*
X52537D01*
X53499Y47884D01*
Y45484D01*
G01X56890Y85668D02*
Y89374D01*
X58500Y90984D01*
G01X61373Y78948D02*
Y82310D01*
X60417Y83266D01*
X58415D01*
X56890Y84791D01*
Y85668D01*
G01X68765Y85654D02*
X71747Y88636D01*
Y93485D01*
X67556Y97676D01*
X67162D01*
G01X63342Y78948D02*
Y82310D01*
X64276Y83244D01*
X67583D01*
X68765Y84426D01*
Y85654D01*
G01X84995Y74920D02*
X60463D01*
X59405Y75978D01*
Y78948D01*
G01X84995Y74920D02*
X86199Y76124D01*
Y78924D01*
X85199Y79924D01*
G01D02*
X83157D01*
G01X99515D02*
X85199D01*
G01X37622Y56613D02*
X40272Y59263D01*
X43657D01*
G01X83153Y62040D02*
X99511D01*
G01X84995Y67044D02*
Y63882D01*
X83153Y62040D01*
G01X84995Y67044D02*
X82358D01*
X80483Y65169D01*
X77121D01*
G01X54712Y113134D02*
X51350D01*
X49381Y111165D01*
Y102301D01*
X46159Y99079D01*
X38926D01*
X36004Y96157D01*
Y88857D01*
G01X51531Y78948D02*
Y81309D01*
X51153Y81687D01*
Y81725D01*
X50568Y82310D01*
X45981D01*
X44666Y83625D01*
Y85629D01*
G01X36004D02*
X42685Y78948D01*
X49562D01*
G01X25239Y30474D02*
Y32207D01*
X22641Y34805D01*
G01X55468Y29508D02*
Y35496D01*
G01X67279D02*
Y29508D01*
G01X94817Y26579D02*
X89052Y32344D01*
Y41229D01*
X78892Y51389D01*
X77121D01*
G01X39554Y108685D02*
Y112438D01*
X29558Y122434D01*
X26459D01*
G01X39554Y108685D02*
X36672D01*
G01X71070Y113134D02*
X54712D01*
G54D18*
X25257Y4405D03*
X21517Y13853D03*
X28997D03*
G54D28*
G01X16459Y122434D02*
Y97906D01*
X21459Y92906D01*
Y90938D01*
G01X11459Y122434D02*
Y117603D01*
G01X33310Y8345D02*
X30428D01*
G01X25239Y22598D02*
X28121D01*
G01X25239Y18660D02*
X28121D01*
G01X22011Y22598D02*
X19129D01*
G01X22011Y18660D02*
X19129D01*
G01X25257Y4405D02*
X28332D01*
X29044Y5117D01*
X33310D01*
G01X88223Y74920D02*
X91105D01*
G01X88223Y70982D02*
X91105D01*
G01X88223Y67044D02*
X91105D01*
G01X52542Y88857D02*
Y91739D01*
G01X48604Y88857D02*
Y91739D01*
G01X34394Y60551D02*
X31512D01*
G01X34394Y56613D02*
X31512D01*
G01X34394Y52675D02*
Y56613D01*
G01X25239Y26536D02*
X28121D01*
G01X74457Y36247D02*
X73706Y35496D01*
X70507D01*
G01X77434Y35641D02*
X76828Y36247D01*
X74457D01*
G01X62850Y87570D02*
X64766Y85654D01*
X65537D01*
G01X62850Y87570D02*
X60948Y85668D01*
X60118D01*
G01X58500Y97676D02*
X53866D01*
G01X70507Y39434D02*
X74416D01*
X74457Y39475D01*
G01D02*
X77339D01*
G01X37622Y52675D02*
Y49793D01*
G01Y60551D02*
Y64489D01*
G01D02*
Y66655D01*
X36508Y67769D01*
G01X48604Y85629D02*
X52542D01*
G01X33427Y42016D02*
X30752Y44691D01*
X28512D01*
G01X23512D02*
X28512D01*
G01X21459Y90938D02*
Y86107D01*
G01X26459Y90938D02*
Y86107D01*
G01X22011Y30474D02*
X19129D01*
G01X22011Y26536D02*
X19129D01*
G01X42782Y104747D02*
X45664D01*
G01X39554D02*
X36672D01*
G01X42782Y108685D02*
X45664D01*
G54D19*
X33310Y8345D03*
Y5117D03*
X25239Y18660D03*
X22011D03*
X25239Y22598D03*
X22011D03*
X48604Y88857D03*
Y85629D03*
X84995Y70982D03*
X88223D03*
Y74920D03*
X84995D03*
X37622Y52675D03*
X34394D03*
Y60551D03*
X37622D03*
X74457Y39475D03*
Y36247D03*
X25239Y26536D03*
X22011D03*
X65537Y85654D03*
X68765D03*
X60118Y85668D03*
X56890D03*
X52542Y85629D03*
Y88857D03*
X70507Y35496D03*
X67279D03*
X34394Y56613D03*
X37622D03*
X34394Y64489D03*
X37622D03*
X88223Y67044D03*
X84995D03*
X44666Y85629D03*
Y88857D03*
X25239Y30474D03*
X22011D03*
X36004Y88857D03*
Y85629D03*
X70507Y39434D03*
X67279D03*
X55468Y35496D03*
X52240D03*
X42782Y104747D03*
X39554D03*
Y108685D03*
X42782D03*
G54D29*
G01X57436Y78948D02*
Y74188D01*
G01X43657Y53358D02*
X47897D01*
G01X69975Y50583D02*
X69247Y49855D01*
Y45484D01*
G01X74457Y39475D02*
X71216Y42716D01*
Y45484D01*
G01X43657Y51389D02*
X40637D01*
X39351Y52675D01*
X37622D01*
G01X55468Y78948D02*
Y76157D01*
X53499Y74188D01*
G01X55468Y78948D02*
Y82703D01*
X52542Y85629D01*
G01X77121Y73043D02*
X72239D01*
X71738Y72542D01*
G01X77121Y73043D02*
X82934D01*
X84995Y70982D01*
M02*
